<?xml version="1.0" standalone="no"?>
<!DOCTYPE svg PUBLIC "-//W3C//DTD SVG 1.1//EN" "http://www.w3.org/Graphics/SVG/1.1/DTD/svg11.dtd">
<svg width="179mm" height="28mm" viewBox="-21 -14 179 28" xmlns="http://www.w3.org/2000/svg" version="1.1">
<title>OpenSCAD Model</title>
<path d="
M 63.2484,13.3479 L 64.4138,12.8865 L 65.4277,12.1498 L 66.2266,11.1841 L 66.7603,10.0501 L 67.005,8.50499
 L 67.005,-8.50499 L 66.8479,-9.74844 L 66.3865,-10.9138 L 65.6498,-11.9277 L 64.6841,-12.7266 L 63.5501,-13.2603
 L 62.005,-13.505 L 29.995,-13.505 L 28.7516,-13.3479 L 27.5862,-12.8865 L 26.5723,-12.1498 L 25.7734,-11.1841
 L 25.2397,-10.0501 L 24.995,-8.50499 L 24.995,8.50499 L 25.1521,9.74844 L 25.6135,10.9138 L 26.3502,11.9277
 L 27.3159,12.7266 L 28.4499,13.2603 L 29.995,13.505 L 62.005,13.505 z
M 45.391,-4.30756 L 44.6162,-4.55931 L 43.9284,-4.99582 L 43.3707,-5.58969 L 42.9782,-6.30359 L 42.7756,-7.09267
 L 42.7756,-7.90732 L 42.9782,-8.6964 L 43.3707,-9.41029 L 43.9284,-10.0042 L 44.6162,-10.4407 L 45.391,-10.6924
 L 46.2041,-10.7436 L 47.0043,-10.5909 L 47.7414,-10.2441 L 48.3691,-9.72478 L 48.848,-9.06569 L 49.1479,-8.30823
 L 49.25,-7.5 L 49.1479,-6.69176 L 48.848,-5.9343 L 48.3691,-5.27521 L 47.7414,-4.75592 L 47.0043,-4.40906
 L 46.2041,-4.25641 z
M 60.391,-4.30756 L 59.6162,-4.55931 L 58.9284,-4.99582 L 58.3707,-5.58969 L 57.9782,-6.30359 L 57.7756,-7.09267
 L 57.7756,-7.90732 L 57.9782,-8.6964 L 58.3707,-9.41029 L 58.9284,-10.0042 L 59.6162,-10.4407 L 60.391,-10.6924
 L 61.2041,-10.7436 L 62.0043,-10.5909 L 62.7414,-10.2441 L 63.3691,-9.72478 L 63.848,-9.06569 L 64.1479,-8.30823
 L 64.25,-7.5 L 64.1479,-6.69176 L 63.848,-5.9343 L 63.3691,-5.27521 L 62.7414,-4.75592 L 62.0043,-4.40906
 L 61.2041,-4.25641 z
M 30.6814,-5.83011 L 30.2762,-5.96179 L 29.9164,-6.19012 L 29.6247,-6.50076 L 29.4194,-6.87418 L 29.3134,-7.28693
 L 29.3134,-7.71306 L 29.4194,-8.12581 L 29.6247,-8.49922 L 29.9164,-8.80986 L 30.2762,-9.03819 L 30.6814,-9.16988
 L 31.1067,-9.19664 L 31.5253,-9.11679 L 31.9109,-8.93535 L 32.2392,-8.66373 L 32.4897,-8.31897 L 32.6466,-7.92276
 L 32.7,-7.5 L 32.6466,-7.07722 L 32.4897,-6.68102 L 32.2392,-6.33626 L 31.9109,-6.06464 L 31.5253,-5.88319
 L 31.1067,-5.80334 z
M 34.995,10.505 L 34.377,10.4071 L 33.9234,10.1936 L 33.5371,9.87408 L 33.2424,9.46849 L 33.0578,9.00237
 L 32.995,8.50499 L 32.995,-0.50499 L 33.0929,-1.12302 L 33.3064,-1.57664 L 33.6259,-1.96292 L 34.0315,-2.2576
 L 34.4976,-2.44215 L 34.995,-2.50499 L 55.005,-2.50499 L 55.623,-2.4071 L 56.0766,-2.19365 L 56.4629,-1.87408
 L 56.7576,-1.46849 L 56.9422,-1.00237 L 57.005,-0.50499 L 57.005,8.50499 L 56.9071,9.12302 L 56.6936,9.57664
 L 56.3741,9.96292 L 55.9685,10.2576 L 55.5024,10.4422 L 55.005,10.505 z
M 60.6814,9.16988 L 60.2762,9.03819 L 59.9164,8.80986 L 59.6247,8.49922 L 59.4194,8.12581 L 59.3134,7.71306
 L 59.3134,7.28693 L 59.4194,6.87418 L 59.6247,6.50076 L 59.9164,6.19012 L 60.2762,5.96179 L 60.6814,5.83011
 L 61.1067,5.80334 L 61.5253,5.88319 L 61.9109,6.06464 L 62.2392,6.33626 L 62.4897,6.68102 L 62.6466,7.07722
 L 62.7,7.5 L 62.6466,7.92276 L 62.4897,8.31897 L 62.2392,8.66373 L 61.9109,8.93535 L 61.5253,9.11679
 L 61.1067,9.19664 z
M 153.248,13.3479 L 154.414,12.8865 L 155.428,12.1498 L 156.227,11.1841 L 156.76,10.0501 L 157.005,8.50499
 L 157.005,-8.50499 L 156.848,-9.74844 L 156.387,-10.9138 L 155.65,-11.9277 L 154.684,-12.7266 L 153.55,-13.2603
 L 152.005,-13.505 L 119.995,-13.505 L 118.752,-13.3479 L 117.586,-12.8865 L 116.572,-12.1498 L 115.773,-11.1841
 L 115.24,-10.0501 L 114.995,-8.50499 L 114.995,8.50499 L 115.152,9.74844 L 115.613,10.9138 L 116.35,11.9277
 L 117.316,12.7266 L 118.45,13.2603 L 119.995,13.505 L 152.005,13.505 z
M 135.391,-4.30756 L 134.616,-4.55931 L 133.928,-4.99582 L 133.371,-5.58969 L 132.978,-6.30359 L 132.776,-7.09267
 L 132.776,-7.90732 L 132.978,-8.6964 L 133.371,-9.41029 L 133.928,-10.0042 L 134.616,-10.4407 L 135.391,-10.6924
 L 136.204,-10.7436 L 137.004,-10.5909 L 137.741,-10.2441 L 138.369,-9.72478 L 138.848,-9.06569 L 139.148,-8.30823
 L 139.25,-7.5 L 139.148,-6.69176 L 138.848,-5.9343 L 138.369,-5.27521 L 137.741,-4.75592 L 137.004,-4.40906
 L 136.204,-4.25641 z
M 150.391,-4.30756 L 149.616,-4.55931 L 148.928,-4.99582 L 148.371,-5.58969 L 147.978,-6.30359 L 147.776,-7.09267
 L 147.776,-7.90732 L 147.978,-8.6964 L 148.371,-9.41029 L 148.928,-10.0042 L 149.616,-10.4407 L 150.391,-10.6924
 L 151.204,-10.7436 L 152.004,-10.5909 L 152.741,-10.2441 L 153.369,-9.72478 L 153.848,-9.06569 L 154.148,-8.30823
 L 154.25,-7.5 L 154.148,-6.69176 L 153.848,-5.9343 L 153.369,-5.27521 L 152.741,-4.75592 L 152.004,-4.40906
 L 151.204,-4.25641 z
M 120.681,-5.83011 L 120.276,-5.96179 L 119.916,-6.19012 L 119.625,-6.50076 L 119.419,-6.87418 L 119.313,-7.28693
 L 119.313,-7.71306 L 119.419,-8.12581 L 119.625,-8.49922 L 119.916,-8.80986 L 120.276,-9.03819 L 120.681,-9.16988
 L 121.107,-9.19664 L 121.525,-9.11679 L 121.911,-8.93535 L 122.239,-8.66373 L 122.49,-8.31897 L 122.647,-7.92276
 L 122.7,-7.5 L 122.647,-7.07722 L 122.49,-6.68102 L 122.239,-6.33626 L 121.911,-6.06464 L 121.525,-5.88319
 L 121.107,-5.80334 z
M 150.681,9.16988 L 150.276,9.03819 L 149.916,8.80986 L 149.625,8.49922 L 149.419,8.12581 L 149.313,7.71306
 L 149.313,7.28693 L 149.419,6.87418 L 149.625,6.50076 L 149.916,6.19012 L 150.276,5.96179 L 150.681,5.83011
 L 151.107,5.80334 L 151.525,5.88319 L 151.911,6.06464 L 152.239,6.33626 L 152.49,6.68102 L 152.647,7.07722
 L 152.7,7.5 L 152.647,7.92276 L 152.49,8.31897 L 152.239,8.66373 L 151.911,8.93535 L 151.525,9.11679
 L 151.107,9.19664 z
M 108.248,13.3479 L 109.414,12.8865 L 110.428,12.1498 L 111.227,11.1841 L 111.76,10.0501 L 112.005,8.50499
 L 112.005,-8.50499 L 111.848,-9.74844 L 111.387,-10.9138 L 110.65,-11.9277 L 109.684,-12.7266 L 108.55,-13.2603
 L 107.005,-13.505 L 74.995,-13.505 L 73.7516,-13.3479 L 72.5862,-12.8865 L 71.5723,-12.1498 L 70.7734,-11.1841
 L 70.2397,-10.0501 L 69.995,-8.50499 L 69.995,-8.49142 L 70.2811,-8.47342 L 70.6387,-8.35724 L 70.9561,-8.15576
 L 71.2135,-7.88167 L 71.3947,-7.55219 L 71.4882,-7.18799 L 71.4882,-6.812 L 71.3947,-6.4478 L 71.2135,-6.11832
 L 70.9561,-5.84422 L 70.6387,-5.64275 L 70.2811,-5.52657 L 69.995,-5.50856 L 69.995,-2.32999 L 75.73,-2.32999
 L 75.73,-4.87 L 78.77,-4.87 L 78.77,0.209991 L 92.77,0.209991 L 92.77,1.205 L 98.005,1.205
 L 98.623,1.30289 L 99.0766,1.51634 L 99.4629,1.83591 L 99.7576,2.2415 L 99.9422,2.70763 L 100.005,3.205
 L 100.005,5.33498 L 99.9071,5.953 L 99.6936,6.40663 L 99.3741,6.79291 L 98.9685,7.08759 L 98.5024,7.27214
 L 98.005,7.33498 L 92.77,7.33498 L 92.77,8.32999 L 78.77,8.32999 L 78.77,10.87 L 75.73,10.87
 L 75.73,8.32999 L 69.995,8.32999 L 69.995,8.50499 L 70.1521,9.74844 L 70.6135,10.9138 L 71.3502,11.9277
 L 72.3159,12.7266 L 73.4499,13.2603 L 74.995,13.505 L 107.005,13.505 z
M 105.391,-4.30756 L 104.616,-4.55931 L 103.928,-4.99582 L 103.371,-5.58969 L 102.978,-6.30359 L 102.776,-7.09267
 L 102.776,-7.90732 L 102.978,-8.6964 L 103.371,-9.41029 L 103.928,-10.0042 L 104.616,-10.4407 L 105.391,-10.6924
 L 106.204,-10.7436 L 107.004,-10.5909 L 107.741,-10.2441 L 108.369,-9.72478 L 108.848,-9.06569 L 109.148,-8.30823
 L 109.25,-7.5 L 109.148,-6.69176 L 108.848,-5.9343 L 108.369,-5.27521 L 107.741,-4.75592 L 107.004,-4.40906
 L 106.204,-4.25641 z
M 90.391,-4.30756 L 89.6162,-4.55931 L 88.9284,-4.99582 L 88.3707,-5.58969 L 87.9782,-6.30359 L 87.7756,-7.09267
 L 87.7756,-7.90732 L 87.9782,-8.6964 L 88.3707,-9.41029 L 88.9284,-10.0042 L 89.6162,-10.4407 L 90.391,-10.6924
 L 91.2041,-10.7436 L 92.0043,-10.5909 L 92.7414,-10.2441 L 93.3691,-9.72478 L 93.848,-9.06569 L 94.1479,-8.30823
 L 94.25,-7.5 L 94.1479,-6.69176 L 93.848,-5.9343 L 93.3691,-5.27521 L 92.7414,-4.75592 L 92.0043,-4.40906
 L 91.2041,-4.25641 z
M 75.6814,-5.83011 L 75.2762,-5.96179 L 74.9164,-6.19012 L 74.6247,-6.50076 L 74.4194,-6.87418 L 74.3134,-7.28693
 L 74.3134,-7.71306 L 74.4194,-8.12581 L 74.6247,-8.49922 L 74.9164,-8.80986 L 75.2762,-9.03819 L 75.6814,-9.16988
 L 76.1067,-9.19664 L 76.5253,-9.11679 L 76.9109,-8.93535 L 77.2392,-8.66373 L 77.4897,-8.31897 L 77.6466,-7.92276
 L 77.7,-7.5 L 77.6466,-7.07722 L 77.4897,-6.68102 L 77.2392,-6.33626 L 76.9109,-6.06464 L 76.5253,-5.88319
 L 76.1067,-5.80334 z
M 105.681,9.16988 L 105.276,9.03819 L 104.916,8.80986 L 104.625,8.49922 L 104.419,8.12581 L 104.313,7.71306
 L 104.313,7.28693 L 104.419,6.87418 L 104.625,6.50076 L 104.916,6.19012 L 105.276,5.96179 L 105.681,5.83011
 L 106.107,5.80334 L 106.525,5.88319 L 106.911,6.06464 L 107.239,6.33626 L 107.49,6.68102 L 107.647,7.07722
 L 107.7,7.5 L 107.647,7.92276 L 107.49,8.31897 L 107.239,8.66373 L 106.911,8.93535 L 106.525,9.11679
 L 106.107,9.19664 z
M 18.2484,13.3479 L 19.4138,12.8865 L 20.4277,12.1498 L 21.2266,11.1841 L 21.7603,10.0501 L 22.005,8.50499
 L 22.005,-8.50499 L 21.8479,-9.74844 L 21.3865,-10.9138 L 20.6498,-11.9277 L 19.6841,-12.7266 L 18.5501,-13.2603
 L 17.005,-13.505 L -15.005,-13.505 L -16.2484,-13.3479 L -17.4138,-12.8865 L -18.4277,-12.1498 L -19.2266,-11.1841
 L -19.7603,-10.0501 L -20.005,-8.50499 L -20.005,8.50499 L -19.8479,9.74844 L -19.3865,10.9138 L -18.6498,11.9277
 L -17.6841,12.7266 L -16.5501,13.2603 L -15.005,13.505 L 17.005,13.505 z
M 15.391,-4.30756 L 14.6162,-4.55931 L 13.9284,-4.99582 L 13.3707,-5.58969 L 12.9782,-6.30359 L 12.7756,-7.09267
 L 12.7756,-7.90732 L 12.9782,-8.6964 L 13.3707,-9.41029 L 13.9284,-10.0042 L 14.6162,-10.4407 L 15.391,-10.6924
 L 16.2041,-10.7436 L 17.0043,-10.5909 L 17.7414,-10.2441 L 18.3691,-9.72478 L 18.848,-9.06569 L 19.1479,-8.30823
 L 19.25,-7.5 L 19.1479,-6.69176 L 18.848,-5.9343 L 18.3691,-5.27521 L 17.7414,-4.75592 L 17.0043,-4.40906
 L 16.2041,-4.25641 z
M 0.391006,-4.30756 L -0.383774,-4.55931 L -1.07162,-4.99582 L -1.6293,-5.58969 L -2.02176,-6.30359 L -2.22437,-7.09267
 L -2.22437,-7.90732 L -2.02176,-8.6964 L -1.6293,-9.41029 L -1.07162,-10.0042 L -0.383774,-10.4407 L 0.391006,-10.6924
 L 1.20406,-10.7436 L 2.0043,-10.5909 L 2.74142,-10.2441 L 3.36914,-9.72478 L 3.84799,-9.06569 L 4.14789,-8.30823
 L 4.25,-7.5 L 4.14789,-6.69176 L 3.84799,-5.9343 L 3.36914,-5.27521 L 2.74142,-4.75592 L 2.0043,-4.40906
 L 1.20406,-4.25641 z
M -13.8079,-4.4472 L -14.5732,-4.49535 L -15.3024,-4.73228 L -15.9498,-5.14313 L -16.4746,-5.70206 L -16.844,-6.37396
 L -17.0347,-7.11662 L -17.0347,-7.88336 L -16.844,-8.62602 L -16.4746,-9.29793 L -15.9498,-9.85686 L -15.3024,-10.2677
 L -14.5732,-10.5046 L -13.8079,-10.5528 L -13.0548,-10.4091 L -12.361,-10.0826 L -11.7702,-9.5939 L -11.3195,-8.97359
 L -11.0373,-8.2607 L -10.9412,-7.5 L -11.0373,-6.73929 L -11.3195,-6.0264 L -11.7702,-5.40608 L -12.361,-4.91734
 L -13.0548,-4.59088 z
M -1.7,3.15999 L -1.7,1.75999 L -0.299988,1.75999 L -0.299988,3.15999 z
M -1.7,5.7 L -1.7,4.29999 L -0.299988,4.29999 L -0.299988,5.7 z
M 16.1921,10.5528 L 15.4268,10.5046 L 14.6976,10.2677 L 14.0502,9.85686 L 13.5253,9.29793 L 13.156,8.62602
 L 12.9653,7.88336 L 12.9653,7.11662 L 13.156,6.37396 L 13.5253,5.70206 L 14.0502,5.14313 L 14.6976,4.73228
 L 15.4268,4.49535 L 16.1921,4.4472 L 16.9452,4.59088 L 17.639,4.91734 L 18.2298,5.40608 L 18.6805,6.0264
 L 18.9627,6.73929 L 19.0588,7.5 L 18.9627,8.2607 L 18.6805,8.97359 L 18.2298,9.5939 L 17.639,10.0826
 L 16.9452,10.4091 z
M -1.7,8.23999 L -1.7,6.84 L -0.299988,6.84 L -0.299988,8.23999 z
" stroke="black" fill="lightgray" stroke-width="0.5"/>
</svg>
