  0
SECTION
  2
BLOCKS
  0
ENDSEC
  0
SECTION
  2
ENTITIES
  0
LINE
  8
0
 10
63.2484
 20
-13.3479
 11
64.4138
 21
-12.8865
  0
LINE
  8
0
 10
64.4138
 20
-12.8865
 11
65.4277
 21
-12.1498
  0
LINE
  8
0
 10
65.4277
 20
-12.1498
 11
66.2266
 21
-11.1841
  0
LINE
  8
0
 10
66.2266
 20
-11.1841
 11
66.7603
 21
-10.0501
  0
LINE
  8
0
 10
66.7603
 20
-10.0501
 11
67.005
 21
-8.50499
  0
LINE
  8
0
 10
67.005
 20
-8.50499
 11
67.005
 21
8.50499
  0
LINE
  8
0
 10
67.005
 20
8.50499
 11
66.8479
 21
9.74844
  0
LINE
  8
0
 10
66.8479
 20
9.74844
 11
66.3865
 21
10.9138
  0
LINE
  8
0
 10
66.3865
 20
10.9138
 11
65.6498
 21
11.9277
  0
LINE
  8
0
 10
65.6498
 20
11.9277
 11
64.6841
 21
12.7266
  0
LINE
  8
0
 10
64.6841
 20
12.7266
 11
63.5501
 21
13.2603
  0
LINE
  8
0
 10
63.5501
 20
13.2603
 11
62.005
 21
13.505
  0
LINE
  8
0
 10
62.005
 20
13.505
 11
29.995
 21
13.505
  0
LINE
  8
0
 10
29.995
 20
13.505
 11
28.7516
 21
13.3479
  0
LINE
  8
0
 10
28.7516
 20
13.3479
 11
27.5862
 21
12.8865
  0
LINE
  8
0
 10
27.5862
 20
12.8865
 11
26.5723
 21
12.1498
  0
LINE
  8
0
 10
26.5723
 20
12.1498
 11
25.7734
 21
11.1841
  0
LINE
  8
0
 10
25.7734
 20
11.1841
 11
25.2397
 21
10.0501
  0
LINE
  8
0
 10
25.2397
 20
10.0501
 11
24.995
 21
8.50499
  0
LINE
  8
0
 10
24.995
 20
8.50499
 11
24.995
 21
-8.50499
  0
LINE
  8
0
 10
24.995
 20
-8.50499
 11
25.1521
 21
-9.74844
  0
LINE
  8
0
 10
25.1521
 20
-9.74844
 11
25.6135
 21
-10.9138
  0
LINE
  8
0
 10
25.6135
 20
-10.9138
 11
26.3502
 21
-11.9277
  0
LINE
  8
0
 10
26.3502
 20
-11.9277
 11
27.3159
 21
-12.7266
  0
LINE
  8
0
 10
27.3159
 20
-12.7266
 11
28.4499
 21
-13.2603
  0
LINE
  8
0
 10
28.4499
 20
-13.2603
 11
29.995
 21
-13.505
  0
LINE
  8
0
 10
29.995
 20
-13.505
 11
62.005
 21
-13.505
  0
LINE
  8
0
 10
62.005
 20
-13.505
 11
63.2484
 21
-13.3479
  0
LINE
  8
0
 10
45.391
 20
4.30756
 11
44.6162
 21
4.55931
  0
LINE
  8
0
 10
44.6162
 20
4.55931
 11
43.9284
 21
4.99582
  0
LINE
  8
0
 10
43.9284
 20
4.99582
 11
43.3707
 21
5.58969
  0
LINE
  8
0
 10
43.3707
 20
5.58969
 11
42.9782
 21
6.30359
  0
LINE
  8
0
 10
42.9782
 20
6.30359
 11
42.7756
 21
7.09267
  0
LINE
  8
0
 10
42.7756
 20
7.09267
 11
42.7756
 21
7.90732
  0
LINE
  8
0
 10
42.7756
 20
7.90732
 11
42.9782
 21
8.6964
  0
LINE
  8
0
 10
42.9782
 20
8.6964
 11
43.3707
 21
9.41029
  0
LINE
  8
0
 10
43.3707
 20
9.41029
 11
43.9284
 21
10.0042
  0
LINE
  8
0
 10
43.9284
 20
10.0042
 11
44.6162
 21
10.4407
  0
LINE
  8
0
 10
44.6162
 20
10.4407
 11
45.391
 21
10.6924
  0
LINE
  8
0
 10
45.391
 20
10.6924
 11
46.2041
 21
10.7436
  0
LINE
  8
0
 10
46.2041
 20
10.7436
 11
47.0043
 21
10.5909
  0
LINE
  8
0
 10
47.0043
 20
10.5909
 11
47.7414
 21
10.2441
  0
LINE
  8
0
 10
47.7414
 20
10.2441
 11
48.3691
 21
9.72478
  0
LINE
  8
0
 10
48.3691
 20
9.72478
 11
48.848
 21
9.06569
  0
LINE
  8
0
 10
48.848
 20
9.06569
 11
49.1479
 21
8.30823
  0
LINE
  8
0
 10
49.1479
 20
8.30823
 11
49.25
 21
7.5
  0
LINE
  8
0
 10
49.25
 20
7.5
 11
49.1479
 21
6.69176
  0
LINE
  8
0
 10
49.1479
 20
6.69176
 11
48.848
 21
5.9343
  0
LINE
  8
0
 10
48.848
 20
5.9343
 11
48.3691
 21
5.27521
  0
LINE
  8
0
 10
48.3691
 20
5.27521
 11
47.7414
 21
4.75592
  0
LINE
  8
0
 10
47.7414
 20
4.75592
 11
47.0043
 21
4.40906
  0
LINE
  8
0
 10
47.0043
 20
4.40906
 11
46.2041
 21
4.25641
  0
LINE
  8
0
 10
46.2041
 20
4.25641
 11
45.391
 21
4.30756
  0
LINE
  8
0
 10
60.391
 20
4.30756
 11
59.6162
 21
4.55931
  0
LINE
  8
0
 10
59.6162
 20
4.55931
 11
58.9284
 21
4.99582
  0
LINE
  8
0
 10
58.9284
 20
4.99582
 11
58.3707
 21
5.58969
  0
LINE
  8
0
 10
58.3707
 20
5.58969
 11
57.9782
 21
6.30359
  0
LINE
  8
0
 10
57.9782
 20
6.30359
 11
57.7756
 21
7.09267
  0
LINE
  8
0
 10
57.7756
 20
7.09267
 11
57.7756
 21
7.90732
  0
LINE
  8
0
 10
57.7756
 20
7.90732
 11
57.9782
 21
8.6964
  0
LINE
  8
0
 10
57.9782
 20
8.6964
 11
58.3707
 21
9.41029
  0
LINE
  8
0
 10
58.3707
 20
9.41029
 11
58.9284
 21
10.0042
  0
LINE
  8
0
 10
58.9284
 20
10.0042
 11
59.6162
 21
10.4407
  0
LINE
  8
0
 10
59.6162
 20
10.4407
 11
60.391
 21
10.6924
  0
LINE
  8
0
 10
60.391
 20
10.6924
 11
61.2041
 21
10.7436
  0
LINE
  8
0
 10
61.2041
 20
10.7436
 11
62.0043
 21
10.5909
  0
LINE
  8
0
 10
62.0043
 20
10.5909
 11
62.7414
 21
10.2441
  0
LINE
  8
0
 10
62.7414
 20
10.2441
 11
63.3691
 21
9.72478
  0
LINE
  8
0
 10
63.3691
 20
9.72478
 11
63.848
 21
9.06569
  0
LINE
  8
0
 10
63.848
 20
9.06569
 11
64.1479
 21
8.30823
  0
LINE
  8
0
 10
64.1479
 20
8.30823
 11
64.25
 21
7.5
  0
LINE
  8
0
 10
64.25
 20
7.5
 11
64.1479
 21
6.69176
  0
LINE
  8
0
 10
64.1479
 20
6.69176
 11
63.848
 21
5.9343
  0
LINE
  8
0
 10
63.848
 20
5.9343
 11
63.3691
 21
5.27521
  0
LINE
  8
0
 10
63.3691
 20
5.27521
 11
62.7414
 21
4.75592
  0
LINE
  8
0
 10
62.7414
 20
4.75592
 11
62.0043
 21
4.40906
  0
LINE
  8
0
 10
62.0043
 20
4.40906
 11
61.2041
 21
4.25641
  0
LINE
  8
0
 10
61.2041
 20
4.25641
 11
60.391
 21
4.30756
  0
LINE
  8
0
 10
30.6814
 20
5.83011
 11
30.2762
 21
5.96179
  0
LINE
  8
0
 10
30.2762
 20
5.96179
 11
29.9164
 21
6.19012
  0
LINE
  8
0
 10
29.9164
 20
6.19012
 11
29.6247
 21
6.50076
  0
LINE
  8
0
 10
29.6247
 20
6.50076
 11
29.4194
 21
6.87418
  0
LINE
  8
0
 10
29.4194
 20
6.87418
 11
29.3134
 21
7.28693
  0
LINE
  8
0
 10
29.3134
 20
7.28693
 11
29.3134
 21
7.71306
  0
LINE
  8
0
 10
29.3134
 20
7.71306
 11
29.4194
 21
8.12581
  0
LINE
  8
0
 10
29.4194
 20
8.12581
 11
29.6247
 21
8.49922
  0
LINE
  8
0
 10
29.6247
 20
8.49922
 11
29.9164
 21
8.80986
  0
LINE
  8
0
 10
29.9164
 20
8.80986
 11
30.2762
 21
9.03819
  0
LINE
  8
0
 10
30.2762
 20
9.03819
 11
30.6814
 21
9.16988
  0
LINE
  8
0
 10
30.6814
 20
9.16988
 11
31.1067
 21
9.19664
  0
LINE
  8
0
 10
31.1067
 20
9.19664
 11
31.5253
 21
9.11679
  0
LINE
  8
0
 10
31.5253
 20
9.11679
 11
31.9109
 21
8.93535
  0
LINE
  8
0
 10
31.9109
 20
8.93535
 11
32.2392
 21
8.66373
  0
LINE
  8
0
 10
32.2392
 20
8.66373
 11
32.4897
 21
8.31897
  0
LINE
  8
0
 10
32.4897
 20
8.31897
 11
32.6466
 21
7.92276
  0
LINE
  8
0
 10
32.6466
 20
7.92276
 11
32.7
 21
7.5
  0
LINE
  8
0
 10
32.7
 20
7.5
 11
32.6466
 21
7.07722
  0
LINE
  8
0
 10
32.6466
 20
7.07722
 11
32.4897
 21
6.68102
  0
LINE
  8
0
 10
32.4897
 20
6.68102
 11
32.2392
 21
6.33626
  0
LINE
  8
0
 10
32.2392
 20
6.33626
 11
31.9109
 21
6.06464
  0
LINE
  8
0
 10
31.9109
 20
6.06464
 11
31.5253
 21
5.88319
  0
LINE
  8
0
 10
31.5253
 20
5.88319
 11
31.1067
 21
5.80334
  0
LINE
  8
0
 10
31.1067
 20
5.80334
 11
30.6814
 21
5.83011
  0
LINE
  8
0
 10
34.995
 20
-10.505
 11
34.377
 21
-10.4071
  0
LINE
  8
0
 10
34.377
 20
-10.4071
 11
33.9234
 21
-10.1936
  0
LINE
  8
0
 10
33.9234
 20
-10.1936
 11
33.5371
 21
-9.87408
  0
LINE
  8
0
 10
33.5371
 20
-9.87408
 11
33.2424
 21
-9.46849
  0
LINE
  8
0
 10
33.2424
 20
-9.46849
 11
33.0578
 21
-9.00237
  0
LINE
  8
0
 10
33.0578
 20
-9.00237
 11
32.995
 21
-8.50499
  0
LINE
  8
0
 10
32.995
 20
-8.50499
 11
32.995
 21
0.50499
  0
LINE
  8
0
 10
32.995
 20
0.50499
 11
33.0929
 21
1.12302
  0
LINE
  8
0
 10
33.0929
 20
1.12302
 11
33.3064
 21
1.57664
  0
LINE
  8
0
 10
33.3064
 20
1.57664
 11
33.6259
 21
1.96292
  0
LINE
  8
0
 10
33.6259
 20
1.96292
 11
34.0315
 21
2.2576
  0
LINE
  8
0
 10
34.0315
 20
2.2576
 11
34.4976
 21
2.44215
  0
LINE
  8
0
 10
34.4976
 20
2.44215
 11
34.995
 21
2.50499
  0
LINE
  8
0
 10
34.995
 20
2.50499
 11
55.005
 21
2.50499
  0
LINE
  8
0
 10
55.005
 20
2.50499
 11
55.623
 21
2.4071
  0
LINE
  8
0
 10
55.623
 20
2.4071
 11
56.0766
 21
2.19365
  0
LINE
  8
0
 10
56.0766
 20
2.19365
 11
56.4629
 21
1.87408
  0
LINE
  8
0
 10
56.4629
 20
1.87408
 11
56.7576
 21
1.46849
  0
LINE
  8
0
 10
56.7576
 20
1.46849
 11
56.9422
 21
1.00237
  0
LINE
  8
0
 10
56.9422
 20
1.00237
 11
57.005
 21
0.50499
  0
LINE
  8
0
 10
57.005
 20
0.50499
 11
57.005
 21
-8.50499
  0
LINE
  8
0
 10
57.005
 20
-8.50499
 11
56.9071
 21
-9.12302
  0
LINE
  8
0
 10
56.9071
 20
-9.12302
 11
56.6936
 21
-9.57664
  0
LINE
  8
0
 10
56.6936
 20
-9.57664
 11
56.3741
 21
-9.96292
  0
LINE
  8
0
 10
56.3741
 20
-9.96292
 11
55.9685
 21
-10.2576
  0
LINE
  8
0
 10
55.9685
 20
-10.2576
 11
55.5024
 21
-10.4422
  0
LINE
  8
0
 10
55.5024
 20
-10.4422
 11
55.005
 21
-10.505
  0
LINE
  8
0
 10
55.005
 20
-10.505
 11
34.995
 21
-10.505
  0
LINE
  8
0
 10
60.6814
 20
-9.16988
 11
60.2762
 21
-9.03819
  0
LINE
  8
0
 10
60.2762
 20
-9.03819
 11
59.9164
 21
-8.80986
  0
LINE
  8
0
 10
59.9164
 20
-8.80986
 11
59.6247
 21
-8.49922
  0
LINE
  8
0
 10
59.6247
 20
-8.49922
 11
59.4194
 21
-8.12581
  0
LINE
  8
0
 10
59.4194
 20
-8.12581
 11
59.3134
 21
-7.71306
  0
LINE
  8
0
 10
59.3134
 20
-7.71306
 11
59.3134
 21
-7.28693
  0
LINE
  8
0
 10
59.3134
 20
-7.28693
 11
59.4194
 21
-6.87418
  0
LINE
  8
0
 10
59.4194
 20
-6.87418
 11
59.6247
 21
-6.50076
  0
LINE
  8
0
 10
59.6247
 20
-6.50076
 11
59.9164
 21
-6.19012
  0
LINE
  8
0
 10
59.9164
 20
-6.19012
 11
60.2762
 21
-5.96179
  0
LINE
  8
0
 10
60.2762
 20
-5.96179
 11
60.6814
 21
-5.83011
  0
LINE
  8
0
 10
60.6814
 20
-5.83011
 11
61.1067
 21
-5.80334
  0
LINE
  8
0
 10
61.1067
 20
-5.80334
 11
61.5253
 21
-5.88319
  0
LINE
  8
0
 10
61.5253
 20
-5.88319
 11
61.9109
 21
-6.06464
  0
LINE
  8
0
 10
61.9109
 20
-6.06464
 11
62.2392
 21
-6.33626
  0
LINE
  8
0
 10
62.2392
 20
-6.33626
 11
62.4897
 21
-6.68102
  0
LINE
  8
0
 10
62.4897
 20
-6.68102
 11
62.6466
 21
-7.07722
  0
LINE
  8
0
 10
62.6466
 20
-7.07722
 11
62.7
 21
-7.5
  0
LINE
  8
0
 10
62.7
 20
-7.5
 11
62.6466
 21
-7.92276
  0
LINE
  8
0
 10
62.6466
 20
-7.92276
 11
62.4897
 21
-8.31897
  0
LINE
  8
0
 10
62.4897
 20
-8.31897
 11
62.2392
 21
-8.66373
  0
LINE
  8
0
 10
62.2392
 20
-8.66373
 11
61.9109
 21
-8.93535
  0
LINE
  8
0
 10
61.9109
 20
-8.93535
 11
61.5253
 21
-9.11679
  0
LINE
  8
0
 10
61.5253
 20
-9.11679
 11
61.1067
 21
-9.19664
  0
LINE
  8
0
 10
61.1067
 20
-9.19664
 11
60.6814
 21
-9.16988
  0
LINE
  8
0
 10
153.248
 20
-13.3479
 11
154.414
 21
-12.8865
  0
LINE
  8
0
 10
154.414
 20
-12.8865
 11
155.428
 21
-12.1498
  0
LINE
  8
0
 10
155.428
 20
-12.1498
 11
156.227
 21
-11.1841
  0
LINE
  8
0
 10
156.227
 20
-11.1841
 11
156.76
 21
-10.0501
  0
LINE
  8
0
 10
156.76
 20
-10.0501
 11
157.005
 21
-8.50499
  0
LINE
  8
0
 10
157.005
 20
-8.50499
 11
157.005
 21
8.50499
  0
LINE
  8
0
 10
157.005
 20
8.50499
 11
156.848
 21
9.74844
  0
LINE
  8
0
 10
156.848
 20
9.74844
 11
156.387
 21
10.9138
  0
LINE
  8
0
 10
156.387
 20
10.9138
 11
155.65
 21
11.9277
  0
LINE
  8
0
 10
155.65
 20
11.9277
 11
154.684
 21
12.7266
  0
LINE
  8
0
 10
154.684
 20
12.7266
 11
153.55
 21
13.2603
  0
LINE
  8
0
 10
153.55
 20
13.2603
 11
152.005
 21
13.505
  0
LINE
  8
0
 10
152.005
 20
13.505
 11
119.995
 21
13.505
  0
LINE
  8
0
 10
119.995
 20
13.505
 11
118.752
 21
13.3479
  0
LINE
  8
0
 10
118.752
 20
13.3479
 11
117.586
 21
12.8865
  0
LINE
  8
0
 10
117.586
 20
12.8865
 11
116.572
 21
12.1498
  0
LINE
  8
0
 10
116.572
 20
12.1498
 11
115.773
 21
11.1841
  0
LINE
  8
0
 10
115.773
 20
11.1841
 11
115.24
 21
10.0501
  0
LINE
  8
0
 10
115.24
 20
10.0501
 11
114.995
 21
8.50499
  0
LINE
  8
0
 10
114.995
 20
8.50499
 11
114.995
 21
-8.50499
  0
LINE
  8
0
 10
114.995
 20
-8.50499
 11
115.152
 21
-9.74844
  0
LINE
  8
0
 10
115.152
 20
-9.74844
 11
115.613
 21
-10.9138
  0
LINE
  8
0
 10
115.613
 20
-10.9138
 11
116.35
 21
-11.9277
  0
LINE
  8
0
 10
116.35
 20
-11.9277
 11
117.316
 21
-12.7266
  0
LINE
  8
0
 10
117.316
 20
-12.7266
 11
118.45
 21
-13.2603
  0
LINE
  8
0
 10
118.45
 20
-13.2603
 11
119.995
 21
-13.505
  0
LINE
  8
0
 10
119.995
 20
-13.505
 11
152.005
 21
-13.505
  0
LINE
  8
0
 10
152.005
 20
-13.505
 11
153.248
 21
-13.3479
  0
LINE
  8
0
 10
135.391
 20
4.30756
 11
134.616
 21
4.55931
  0
LINE
  8
0
 10
134.616
 20
4.55931
 11
133.928
 21
4.99582
  0
LINE
  8
0
 10
133.928
 20
4.99582
 11
133.371
 21
5.58969
  0
LINE
  8
0
 10
133.371
 20
5.58969
 11
132.978
 21
6.30359
  0
LINE
  8
0
 10
132.978
 20
6.30359
 11
132.776
 21
7.09267
  0
LINE
  8
0
 10
132.776
 20
7.09267
 11
132.776
 21
7.90732
  0
LINE
  8
0
 10
132.776
 20
7.90732
 11
132.978
 21
8.6964
  0
LINE
  8
0
 10
132.978
 20
8.6964
 11
133.371
 21
9.41029
  0
LINE
  8
0
 10
133.371
 20
9.41029
 11
133.928
 21
10.0042
  0
LINE
  8
0
 10
133.928
 20
10.0042
 11
134.616
 21
10.4407
  0
LINE
  8
0
 10
134.616
 20
10.4407
 11
135.391
 21
10.6924
  0
LINE
  8
0
 10
135.391
 20
10.6924
 11
136.204
 21
10.7436
  0
LINE
  8
0
 10
136.204
 20
10.7436
 11
137.004
 21
10.5909
  0
LINE
  8
0
 10
137.004
 20
10.5909
 11
137.741
 21
10.2441
  0
LINE
  8
0
 10
137.741
 20
10.2441
 11
138.369
 21
9.72478
  0
LINE
  8
0
 10
138.369
 20
9.72478
 11
138.848
 21
9.06569
  0
LINE
  8
0
 10
138.848
 20
9.06569
 11
139.148
 21
8.30823
  0
LINE
  8
0
 10
139.148
 20
8.30823
 11
139.25
 21
7.5
  0
LINE
  8
0
 10
139.25
 20
7.5
 11
139.148
 21
6.69176
  0
LINE
  8
0
 10
139.148
 20
6.69176
 11
138.848
 21
5.9343
  0
LINE
  8
0
 10
138.848
 20
5.9343
 11
138.369
 21
5.27521
  0
LINE
  8
0
 10
138.369
 20
5.27521
 11
137.741
 21
4.75592
  0
LINE
  8
0
 10
137.741
 20
4.75592
 11
137.004
 21
4.40906
  0
LINE
  8
0
 10
137.004
 20
4.40906
 11
136.204
 21
4.25641
  0
LINE
  8
0
 10
136.204
 20
4.25641
 11
135.391
 21
4.30756
  0
LINE
  8
0
 10
150.391
 20
4.30756
 11
149.616
 21
4.55931
  0
LINE
  8
0
 10
149.616
 20
4.55931
 11
148.928
 21
4.99582
  0
LINE
  8
0
 10
148.928
 20
4.99582
 11
148.371
 21
5.58969
  0
LINE
  8
0
 10
148.371
 20
5.58969
 11
147.978
 21
6.30359
  0
LINE
  8
0
 10
147.978
 20
6.30359
 11
147.776
 21
7.09267
  0
LINE
  8
0
 10
147.776
 20
7.09267
 11
147.776
 21
7.90732
  0
LINE
  8
0
 10
147.776
 20
7.90732
 11
147.978
 21
8.6964
  0
LINE
  8
0
 10
147.978
 20
8.6964
 11
148.371
 21
9.41029
  0
LINE
  8
0
 10
148.371
 20
9.41029
 11
148.928
 21
10.0042
  0
LINE
  8
0
 10
148.928
 20
10.0042
 11
149.616
 21
10.4407
  0
LINE
  8
0
 10
149.616
 20
10.4407
 11
150.391
 21
10.6924
  0
LINE
  8
0
 10
150.391
 20
10.6924
 11
151.204
 21
10.7436
  0
LINE
  8
0
 10
151.204
 20
10.7436
 11
152.004
 21
10.5909
  0
LINE
  8
0
 10
152.004
 20
10.5909
 11
152.741
 21
10.2441
  0
LINE
  8
0
 10
152.741
 20
10.2441
 11
153.369
 21
9.72478
  0
LINE
  8
0
 10
153.369
 20
9.72478
 11
153.848
 21
9.06569
  0
LINE
  8
0
 10
153.848
 20
9.06569
 11
154.148
 21
8.30823
  0
LINE
  8
0
 10
154.148
 20
8.30823
 11
154.25
 21
7.5
  0
LINE
  8
0
 10
154.25
 20
7.5
 11
154.148
 21
6.69176
  0
LINE
  8
0
 10
154.148
 20
6.69176
 11
153.848
 21
5.9343
  0
LINE
  8
0
 10
153.848
 20
5.9343
 11
153.369
 21
5.27521
  0
LINE
  8
0
 10
153.369
 20
5.27521
 11
152.741
 21
4.75592
  0
LINE
  8
0
 10
152.741
 20
4.75592
 11
152.004
 21
4.40906
  0
LINE
  8
0
 10
152.004
 20
4.40906
 11
151.204
 21
4.25641
  0
LINE
  8
0
 10
151.204
 20
4.25641
 11
150.391
 21
4.30756
  0
LINE
  8
0
 10
120.681
 20
5.83011
 11
120.276
 21
5.96179
  0
LINE
  8
0
 10
120.276
 20
5.96179
 11
119.916
 21
6.19012
  0
LINE
  8
0
 10
119.916
 20
6.19012
 11
119.625
 21
6.50076
  0
LINE
  8
0
 10
119.625
 20
6.50076
 11
119.419
 21
6.87418
  0
LINE
  8
0
 10
119.419
 20
6.87418
 11
119.313
 21
7.28693
  0
LINE
  8
0
 10
119.313
 20
7.28693
 11
119.313
 21
7.71306
  0
LINE
  8
0
 10
119.313
 20
7.71306
 11
119.419
 21
8.12581
  0
LINE
  8
0
 10
119.419
 20
8.12581
 11
119.625
 21
8.49922
  0
LINE
  8
0
 10
119.625
 20
8.49922
 11
119.916
 21
8.80986
  0
LINE
  8
0
 10
119.916
 20
8.80986
 11
120.276
 21
9.03819
  0
LINE
  8
0
 10
120.276
 20
9.03819
 11
120.681
 21
9.16988
  0
LINE
  8
0
 10
120.681
 20
9.16988
 11
121.107
 21
9.19664
  0
LINE
  8
0
 10
121.107
 20
9.19664
 11
121.525
 21
9.11679
  0
LINE
  8
0
 10
121.525
 20
9.11679
 11
121.911
 21
8.93535
  0
LINE
  8
0
 10
121.911
 20
8.93535
 11
122.239
 21
8.66373
  0
LINE
  8
0
 10
122.239
 20
8.66373
 11
122.49
 21
8.31897
  0
LINE
  8
0
 10
122.49
 20
8.31897
 11
122.647
 21
7.92276
  0
LINE
  8
0
 10
122.647
 20
7.92276
 11
122.7
 21
7.5
  0
LINE
  8
0
 10
122.7
 20
7.5
 11
122.647
 21
7.07722
  0
LINE
  8
0
 10
122.647
 20
7.07722
 11
122.49
 21
6.68102
  0
LINE
  8
0
 10
122.49
 20
6.68102
 11
122.239
 21
6.33626
  0
LINE
  8
0
 10
122.239
 20
6.33626
 11
121.911
 21
6.06464
  0
LINE
  8
0
 10
121.911
 20
6.06464
 11
121.525
 21
5.88319
  0
LINE
  8
0
 10
121.525
 20
5.88319
 11
121.107
 21
5.80334
  0
LINE
  8
0
 10
121.107
 20
5.80334
 11
120.681
 21
5.83011
  0
LINE
  8
0
 10
150.681
 20
-9.16988
 11
150.276
 21
-9.03819
  0
LINE
  8
0
 10
150.276
 20
-9.03819
 11
149.916
 21
-8.80986
  0
LINE
  8
0
 10
149.916
 20
-8.80986
 11
149.625
 21
-8.49922
  0
LINE
  8
0
 10
149.625
 20
-8.49922
 11
149.419
 21
-8.12581
  0
LINE
  8
0
 10
149.419
 20
-8.12581
 11
149.313
 21
-7.71306
  0
LINE
  8
0
 10
149.313
 20
-7.71306
 11
149.313
 21
-7.28693
  0
LINE
  8
0
 10
149.313
 20
-7.28693
 11
149.419
 21
-6.87418
  0
LINE
  8
0
 10
149.419
 20
-6.87418
 11
149.625
 21
-6.50076
  0
LINE
  8
0
 10
149.625
 20
-6.50076
 11
149.916
 21
-6.19012
  0
LINE
  8
0
 10
149.916
 20
-6.19012
 11
150.276
 21
-5.96179
  0
LINE
  8
0
 10
150.276
 20
-5.96179
 11
150.681
 21
-5.83011
  0
LINE
  8
0
 10
150.681
 20
-5.83011
 11
151.107
 21
-5.80334
  0
LINE
  8
0
 10
151.107
 20
-5.80334
 11
151.525
 21
-5.88319
  0
LINE
  8
0
 10
151.525
 20
-5.88319
 11
151.911
 21
-6.06464
  0
LINE
  8
0
 10
151.911
 20
-6.06464
 11
152.239
 21
-6.33626
  0
LINE
  8
0
 10
152.239
 20
-6.33626
 11
152.49
 21
-6.68102
  0
LINE
  8
0
 10
152.49
 20
-6.68102
 11
152.647
 21
-7.07722
  0
LINE
  8
0
 10
152.647
 20
-7.07722
 11
152.7
 21
-7.5
  0
LINE
  8
0
 10
152.7
 20
-7.5
 11
152.647
 21
-7.92276
  0
LINE
  8
0
 10
152.647
 20
-7.92276
 11
152.49
 21
-8.31897
  0
LINE
  8
0
 10
152.49
 20
-8.31897
 11
152.239
 21
-8.66373
  0
LINE
  8
0
 10
152.239
 20
-8.66373
 11
151.911
 21
-8.93535
  0
LINE
  8
0
 10
151.911
 20
-8.93535
 11
151.525
 21
-9.11679
  0
LINE
  8
0
 10
151.525
 20
-9.11679
 11
151.107
 21
-9.19664
  0
LINE
  8
0
 10
151.107
 20
-9.19664
 11
150.681
 21
-9.16988
  0
LINE
  8
0
 10
108.248
 20
-13.3479
 11
109.414
 21
-12.8865
  0
LINE
  8
0
 10
109.414
 20
-12.8865
 11
110.428
 21
-12.1498
  0
LINE
  8
0
 10
110.428
 20
-12.1498
 11
111.227
 21
-11.1841
  0
LINE
  8
0
 10
111.227
 20
-11.1841
 11
111.76
 21
-10.0501
  0
LINE
  8
0
 10
111.76
 20
-10.0501
 11
112.005
 21
-8.50499
  0
LINE
  8
0
 10
112.005
 20
-8.50499
 11
112.005
 21
8.50499
  0
LINE
  8
0
 10
112.005
 20
8.50499
 11
111.848
 21
9.74844
  0
LINE
  8
0
 10
111.848
 20
9.74844
 11
111.387
 21
10.9138
  0
LINE
  8
0
 10
111.387
 20
10.9138
 11
110.65
 21
11.9277
  0
LINE
  8
0
 10
110.65
 20
11.9277
 11
109.684
 21
12.7266
  0
LINE
  8
0
 10
109.684
 20
12.7266
 11
108.55
 21
13.2603
  0
LINE
  8
0
 10
108.55
 20
13.2603
 11
107.005
 21
13.505
  0
LINE
  8
0
 10
107.005
 20
13.505
 11
74.995
 21
13.505
  0
LINE
  8
0
 10
74.995
 20
13.505
 11
73.7516
 21
13.3479
  0
LINE
  8
0
 10
73.7516
 20
13.3479
 11
72.5862
 21
12.8865
  0
LINE
  8
0
 10
72.5862
 20
12.8865
 11
71.5723
 21
12.1498
  0
LINE
  8
0
 10
71.5723
 20
12.1498
 11
70.7734
 21
11.1841
  0
LINE
  8
0
 10
70.7734
 20
11.1841
 11
70.2397
 21
10.0501
  0
LINE
  8
0
 10
70.2397
 20
10.0501
 11
69.995
 21
8.50499
  0
LINE
  8
0
 10
69.995
 20
8.50499
 11
69.995
 21
8.49142
  0
LINE
  8
0
 10
69.995
 20
8.49142
 11
70.2811
 21
8.47342
  0
LINE
  8
0
 10
70.2811
 20
8.47342
 11
70.6387
 21
8.35724
  0
LINE
  8
0
 10
70.6387
 20
8.35724
 11
70.9561
 21
8.15576
  0
LINE
  8
0
 10
70.9561
 20
8.15576
 11
71.2135
 21
7.88167
  0
LINE
  8
0
 10
71.2135
 20
7.88167
 11
71.3947
 21
7.55219
  0
LINE
  8
0
 10
71.3947
 20
7.55219
 11
71.4882
 21
7.18799
  0
LINE
  8
0
 10
71.4882
 20
7.18799
 11
71.4882
 21
6.812
  0
LINE
  8
0
 10
71.4882
 20
6.812
 11
71.3947
 21
6.4478
  0
LINE
  8
0
 10
71.3947
 20
6.4478
 11
71.2135
 21
6.11832
  0
LINE
  8
0
 10
71.2135
 20
6.11832
 11
70.9561
 21
5.84422
  0
LINE
  8
0
 10
70.9561
 20
5.84422
 11
70.6387
 21
5.64275
  0
LINE
  8
0
 10
70.6387
 20
5.64275
 11
70.2811
 21
5.52657
  0
LINE
  8
0
 10
70.2811
 20
5.52657
 11
69.995
 21
5.50856
  0
LINE
  8
0
 10
69.995
 20
5.50856
 11
69.995
 21
2.32999
  0
LINE
  8
0
 10
69.995
 20
2.32999
 11
75.73
 21
2.32999
  0
LINE
  8
0
 10
75.73
 20
2.32999
 11
75.73
 21
4.87
  0
LINE
  8
0
 10
75.73
 20
4.87
 11
78.77
 21
4.87
  0
LINE
  8
0
 10
78.77
 20
4.87
 11
78.77
 21
-0.209991
  0
LINE
  8
0
 10
78.77
 20
-0.209991
 11
92.77
 21
-0.209991
  0
LINE
  8
0
 10
92.77
 20
-0.209991
 11
92.77
 21
-1.205
  0
LINE
  8
0
 10
92.77
 20
-1.205
 11
98.005
 21
-1.205
  0
LINE
  8
0
 10
98.005
 20
-1.205
 11
98.623
 21
-1.30289
  0
LINE
  8
0
 10
98.623
 20
-1.30289
 11
99.0766
 21
-1.51634
  0
LINE
  8
0
 10
99.0766
 20
-1.51634
 11
99.4629
 21
-1.83591
  0
LINE
  8
0
 10
99.4629
 20
-1.83591
 11
99.7576
 21
-2.2415
  0
LINE
  8
0
 10
99.7576
 20
-2.2415
 11
99.9422
 21
-2.70763
  0
LINE
  8
0
 10
99.9422
 20
-2.70763
 11
100.005
 21
-3.205
  0
LINE
  8
0
 10
100.005
 20
-3.205
 11
100.005
 21
-5.33498
  0
LINE
  8
0
 10
100.005
 20
-5.33498
 11
99.9071
 21
-5.953
  0
LINE
  8
0
 10
99.9071
 20
-5.953
 11
99.6936
 21
-6.40663
  0
LINE
  8
0
 10
99.6936
 20
-6.40663
 11
99.3741
 21
-6.79291
  0
LINE
  8
0
 10
99.3741
 20
-6.79291
 11
98.9685
 21
-7.08759
  0
LINE
  8
0
 10
98.9685
 20
-7.08759
 11
98.5024
 21
-7.27214
  0
LINE
  8
0
 10
98.5024
 20
-7.27214
 11
98.005
 21
-7.33498
  0
LINE
  8
0
 10
98.005
 20
-7.33498
 11
92.77
 21
-7.33498
  0
LINE
  8
0
 10
92.77
 20
-7.33498
 11
92.77
 21
-8.32999
  0
LINE
  8
0
 10
92.77
 20
-8.32999
 11
78.77
 21
-8.32999
  0
LINE
  8
0
 10
78.77
 20
-8.32999
 11
78.77
 21
-10.87
  0
LINE
  8
0
 10
78.77
 20
-10.87
 11
75.73
 21
-10.87
  0
LINE
  8
0
 10
75.73
 20
-10.87
 11
75.73
 21
-8.32999
  0
LINE
  8
0
 10
75.73
 20
-8.32999
 11
69.995
 21
-8.32999
  0
LINE
  8
0
 10
69.995
 20
-8.32999
 11
69.995
 21
-8.50499
  0
LINE
  8
0
 10
69.995
 20
-8.50499
 11
70.1521
 21
-9.74844
  0
LINE
  8
0
 10
70.1521
 20
-9.74844
 11
70.6135
 21
-10.9138
  0
LINE
  8
0
 10
70.6135
 20
-10.9138
 11
71.3502
 21
-11.9277
  0
LINE
  8
0
 10
71.3502
 20
-11.9277
 11
72.3159
 21
-12.7266
  0
LINE
  8
0
 10
72.3159
 20
-12.7266
 11
73.4499
 21
-13.2603
  0
LINE
  8
0
 10
73.4499
 20
-13.2603
 11
74.995
 21
-13.505
  0
LINE
  8
0
 10
74.995
 20
-13.505
 11
107.005
 21
-13.505
  0
LINE
  8
0
 10
107.005
 20
-13.505
 11
108.248
 21
-13.3479
  0
LINE
  8
0
 10
105.391
 20
4.30756
 11
104.616
 21
4.55931
  0
LINE
  8
0
 10
104.616
 20
4.55931
 11
103.928
 21
4.99582
  0
LINE
  8
0
 10
103.928
 20
4.99582
 11
103.371
 21
5.58969
  0
LINE
  8
0
 10
103.371
 20
5.58969
 11
102.978
 21
6.30359
  0
LINE
  8
0
 10
102.978
 20
6.30359
 11
102.776
 21
7.09267
  0
LINE
  8
0
 10
102.776
 20
7.09267
 11
102.776
 21
7.90732
  0
LINE
  8
0
 10
102.776
 20
7.90732
 11
102.978
 21
8.6964
  0
LINE
  8
0
 10
102.978
 20
8.6964
 11
103.371
 21
9.41029
  0
LINE
  8
0
 10
103.371
 20
9.41029
 11
103.928
 21
10.0042
  0
LINE
  8
0
 10
103.928
 20
10.0042
 11
104.616
 21
10.4407
  0
LINE
  8
0
 10
104.616
 20
10.4407
 11
105.391
 21
10.6924
  0
LINE
  8
0
 10
105.391
 20
10.6924
 11
106.204
 21
10.7436
  0
LINE
  8
0
 10
106.204
 20
10.7436
 11
107.004
 21
10.5909
  0
LINE
  8
0
 10
107.004
 20
10.5909
 11
107.741
 21
10.2441
  0
LINE
  8
0
 10
107.741
 20
10.2441
 11
108.369
 21
9.72478
  0
LINE
  8
0
 10
108.369
 20
9.72478
 11
108.848
 21
9.06569
  0
LINE
  8
0
 10
108.848
 20
9.06569
 11
109.148
 21
8.30823
  0
LINE
  8
0
 10
109.148
 20
8.30823
 11
109.25
 21
7.5
  0
LINE
  8
0
 10
109.25
 20
7.5
 11
109.148
 21
6.69176
  0
LINE
  8
0
 10
109.148
 20
6.69176
 11
108.848
 21
5.9343
  0
LINE
  8
0
 10
108.848
 20
5.9343
 11
108.369
 21
5.27521
  0
LINE
  8
0
 10
108.369
 20
5.27521
 11
107.741
 21
4.75592
  0
LINE
  8
0
 10
107.741
 20
4.75592
 11
107.004
 21
4.40906
  0
LINE
  8
0
 10
107.004
 20
4.40906
 11
106.204
 21
4.25641
  0
LINE
  8
0
 10
106.204
 20
4.25641
 11
105.391
 21
4.30756
  0
LINE
  8
0
 10
90.391
 20
4.30756
 11
89.6162
 21
4.55931
  0
LINE
  8
0
 10
89.6162
 20
4.55931
 11
88.9284
 21
4.99582
  0
LINE
  8
0
 10
88.9284
 20
4.99582
 11
88.3707
 21
5.58969
  0
LINE
  8
0
 10
88.3707
 20
5.58969
 11
87.9782
 21
6.30359
  0
LINE
  8
0
 10
87.9782
 20
6.30359
 11
87.7756
 21
7.09267
  0
LINE
  8
0
 10
87.7756
 20
7.09267
 11
87.7756
 21
7.90732
  0
LINE
  8
0
 10
87.7756
 20
7.90732
 11
87.9782
 21
8.6964
  0
LINE
  8
0
 10
87.9782
 20
8.6964
 11
88.3707
 21
9.41029
  0
LINE
  8
0
 10
88.3707
 20
9.41029
 11
88.9284
 21
10.0042
  0
LINE
  8
0
 10
88.9284
 20
10.0042
 11
89.6162
 21
10.4407
  0
LINE
  8
0
 10
89.6162
 20
10.4407
 11
90.391
 21
10.6924
  0
LINE
  8
0
 10
90.391
 20
10.6924
 11
91.2041
 21
10.7436
  0
LINE
  8
0
 10
91.2041
 20
10.7436
 11
92.0043
 21
10.5909
  0
LINE
  8
0
 10
92.0043
 20
10.5909
 11
92.7414
 21
10.2441
  0
LINE
  8
0
 10
92.7414
 20
10.2441
 11
93.3691
 21
9.72478
  0
LINE
  8
0
 10
93.3691
 20
9.72478
 11
93.848
 21
9.06569
  0
LINE
  8
0
 10
93.848
 20
9.06569
 11
94.1479
 21
8.30823
  0
LINE
  8
0
 10
94.1479
 20
8.30823
 11
94.25
 21
7.5
  0
LINE
  8
0
 10
94.25
 20
7.5
 11
94.1479
 21
6.69176
  0
LINE
  8
0
 10
94.1479
 20
6.69176
 11
93.848
 21
5.9343
  0
LINE
  8
0
 10
93.848
 20
5.9343
 11
93.3691
 21
5.27521
  0
LINE
  8
0
 10
93.3691
 20
5.27521
 11
92.7414
 21
4.75592
  0
LINE
  8
0
 10
92.7414
 20
4.75592
 11
92.0043
 21
4.40906
  0
LINE
  8
0
 10
92.0043
 20
4.40906
 11
91.2041
 21
4.25641
  0
LINE
  8
0
 10
91.2041
 20
4.25641
 11
90.391
 21
4.30756
  0
LINE
  8
0
 10
75.6814
 20
5.83011
 11
75.2762
 21
5.96179
  0
LINE
  8
0
 10
75.2762
 20
5.96179
 11
74.9164
 21
6.19012
  0
LINE
  8
0
 10
74.9164
 20
6.19012
 11
74.6247
 21
6.50076
  0
LINE
  8
0
 10
74.6247
 20
6.50076
 11
74.4194
 21
6.87418
  0
LINE
  8
0
 10
74.4194
 20
6.87418
 11
74.3134
 21
7.28693
  0
LINE
  8
0
 10
74.3134
 20
7.28693
 11
74.3134
 21
7.71306
  0
LINE
  8
0
 10
74.3134
 20
7.71306
 11
74.4194
 21
8.12581
  0
LINE
  8
0
 10
74.4194
 20
8.12581
 11
74.6247
 21
8.49922
  0
LINE
  8
0
 10
74.6247
 20
8.49922
 11
74.9164
 21
8.80986
  0
LINE
  8
0
 10
74.9164
 20
8.80986
 11
75.2762
 21
9.03819
  0
LINE
  8
0
 10
75.2762
 20
9.03819
 11
75.6814
 21
9.16988
  0
LINE
  8
0
 10
75.6814
 20
9.16988
 11
76.1067
 21
9.19664
  0
LINE
  8
0
 10
76.1067
 20
9.19664
 11
76.5253
 21
9.11679
  0
LINE
  8
0
 10
76.5253
 20
9.11679
 11
76.9109
 21
8.93535
  0
LINE
  8
0
 10
76.9109
 20
8.93535
 11
77.2392
 21
8.66373
  0
LINE
  8
0
 10
77.2392
 20
8.66373
 11
77.4897
 21
8.31897
  0
LINE
  8
0
 10
77.4897
 20
8.31897
 11
77.6466
 21
7.92276
  0
LINE
  8
0
 10
77.6466
 20
7.92276
 11
77.7
 21
7.5
  0
LINE
  8
0
 10
77.7
 20
7.5
 11
77.6466
 21
7.07722
  0
LINE
  8
0
 10
77.6466
 20
7.07722
 11
77.4897
 21
6.68102
  0
LINE
  8
0
 10
77.4897
 20
6.68102
 11
77.2392
 21
6.33626
  0
LINE
  8
0
 10
77.2392
 20
6.33626
 11
76.9109
 21
6.06464
  0
LINE
  8
0
 10
76.9109
 20
6.06464
 11
76.5253
 21
5.88319
  0
LINE
  8
0
 10
76.5253
 20
5.88319
 11
76.1067
 21
5.80334
  0
LINE
  8
0
 10
76.1067
 20
5.80334
 11
75.6814
 21
5.83011
  0
LINE
  8
0
 10
105.681
 20
-9.16988
 11
105.276
 21
-9.03819
  0
LINE
  8
0
 10
105.276
 20
-9.03819
 11
104.916
 21
-8.80986
  0
LINE
  8
0
 10
104.916
 20
-8.80986
 11
104.625
 21
-8.49922
  0
LINE
  8
0
 10
104.625
 20
-8.49922
 11
104.419
 21
-8.12581
  0
LINE
  8
0
 10
104.419
 20
-8.12581
 11
104.313
 21
-7.71306
  0
LINE
  8
0
 10
104.313
 20
-7.71306
 11
104.313
 21
-7.28693
  0
LINE
  8
0
 10
104.313
 20
-7.28693
 11
104.419
 21
-6.87418
  0
LINE
  8
0
 10
104.419
 20
-6.87418
 11
104.625
 21
-6.50076
  0
LINE
  8
0
 10
104.625
 20
-6.50076
 11
104.916
 21
-6.19012
  0
LINE
  8
0
 10
104.916
 20
-6.19012
 11
105.276
 21
-5.96179
  0
LINE
  8
0
 10
105.276
 20
-5.96179
 11
105.681
 21
-5.83011
  0
LINE
  8
0
 10
105.681
 20
-5.83011
 11
106.107
 21
-5.80334
  0
LINE
  8
0
 10
106.107
 20
-5.80334
 11
106.525
 21
-5.88319
  0
LINE
  8
0
 10
106.525
 20
-5.88319
 11
106.911
 21
-6.06464
  0
LINE
  8
0
 10
106.911
 20
-6.06464
 11
107.239
 21
-6.33626
  0
LINE
  8
0
 10
107.239
 20
-6.33626
 11
107.49
 21
-6.68102
  0
LINE
  8
0
 10
107.49
 20
-6.68102
 11
107.647
 21
-7.07722
  0
LINE
  8
0
 10
107.647
 20
-7.07722
 11
107.7
 21
-7.5
  0
LINE
  8
0
 10
107.7
 20
-7.5
 11
107.647
 21
-7.92276
  0
LINE
  8
0
 10
107.647
 20
-7.92276
 11
107.49
 21
-8.31897
  0
LINE
  8
0
 10
107.49
 20
-8.31897
 11
107.239
 21
-8.66373
  0
LINE
  8
0
 10
107.239
 20
-8.66373
 11
106.911
 21
-8.93535
  0
LINE
  8
0
 10
106.911
 20
-8.93535
 11
106.525
 21
-9.11679
  0
LINE
  8
0
 10
106.525
 20
-9.11679
 11
106.107
 21
-9.19664
  0
LINE
  8
0
 10
106.107
 20
-9.19664
 11
105.681
 21
-9.16988
  0
LINE
  8
0
 10
18.2484
 20
-13.3479
 11
19.4138
 21
-12.8865
  0
LINE
  8
0
 10
19.4138
 20
-12.8865
 11
20.4277
 21
-12.1498
  0
LINE
  8
0
 10
20.4277
 20
-12.1498
 11
21.2266
 21
-11.1841
  0
LINE
  8
0
 10
21.2266
 20
-11.1841
 11
21.7603
 21
-10.0501
  0
LINE
  8
0
 10
21.7603
 20
-10.0501
 11
22.005
 21
-8.50499
  0
LINE
  8
0
 10
22.005
 20
-8.50499
 11
22.005
 21
8.50499
  0
LINE
  8
0
 10
22.005
 20
8.50499
 11
21.8479
 21
9.74844
  0
LINE
  8
0
 10
21.8479
 20
9.74844
 11
21.3865
 21
10.9138
  0
LINE
  8
0
 10
21.3865
 20
10.9138
 11
20.6498
 21
11.9277
  0
LINE
  8
0
 10
20.6498
 20
11.9277
 11
19.6841
 21
12.7266
  0
LINE
  8
0
 10
19.6841
 20
12.7266
 11
18.5501
 21
13.2603
  0
LINE
  8
0
 10
18.5501
 20
13.2603
 11
17.005
 21
13.505
  0
LINE
  8
0
 10
17.005
 20
13.505
 11
-15.005
 21
13.505
  0
LINE
  8
0
 10
-15.005
 20
13.505
 11
-16.2484
 21
13.3479
  0
LINE
  8
0
 10
-16.2484
 20
13.3479
 11
-17.4138
 21
12.8865
  0
LINE
  8
0
 10
-17.4138
 20
12.8865
 11
-18.4277
 21
12.1498
  0
LINE
  8
0
 10
-18.4277
 20
12.1498
 11
-19.2266
 21
11.1841
  0
LINE
  8
0
 10
-19.2266
 20
11.1841
 11
-19.7603
 21
10.0501
  0
LINE
  8
0
 10
-19.7603
 20
10.0501
 11
-20.005
 21
8.50499
  0
LINE
  8
0
 10
-20.005
 20
8.50499
 11
-20.005
 21
-8.50499
  0
LINE
  8
0
 10
-20.005
 20
-8.50499
 11
-19.8479
 21
-9.74844
  0
LINE
  8
0
 10
-19.8479
 20
-9.74844
 11
-19.3865
 21
-10.9138
  0
LINE
  8
0
 10
-19.3865
 20
-10.9138
 11
-18.6498
 21
-11.9277
  0
LINE
  8
0
 10
-18.6498
 20
-11.9277
 11
-17.6841
 21
-12.7266
  0
LINE
  8
0
 10
-17.6841
 20
-12.7266
 11
-16.5501
 21
-13.2603
  0
LINE
  8
0
 10
-16.5501
 20
-13.2603
 11
-15.005
 21
-13.505
  0
LINE
  8
0
 10
-15.005
 20
-13.505
 11
17.005
 21
-13.505
  0
LINE
  8
0
 10
17.005
 20
-13.505
 11
18.2484
 21
-13.3479
  0
LINE
  8
0
 10
15.391
 20
4.30756
 11
14.6162
 21
4.55931
  0
LINE
  8
0
 10
14.6162
 20
4.55931
 11
13.9284
 21
4.99582
  0
LINE
  8
0
 10
13.9284
 20
4.99582
 11
13.3707
 21
5.58969
  0
LINE
  8
0
 10
13.3707
 20
5.58969
 11
12.9782
 21
6.30359
  0
LINE
  8
0
 10
12.9782
 20
6.30359
 11
12.7756
 21
7.09267
  0
LINE
  8
0
 10
12.7756
 20
7.09267
 11
12.7756
 21
7.90732
  0
LINE
  8
0
 10
12.7756
 20
7.90732
 11
12.9782
 21
8.6964
  0
LINE
  8
0
 10
12.9782
 20
8.6964
 11
13.3707
 21
9.41029
  0
LINE
  8
0
 10
13.3707
 20
9.41029
 11
13.9284
 21
10.0042
  0
LINE
  8
0
 10
13.9284
 20
10.0042
 11
14.6162
 21
10.4407
  0
LINE
  8
0
 10
14.6162
 20
10.4407
 11
15.391
 21
10.6924
  0
LINE
  8
0
 10
15.391
 20
10.6924
 11
16.2041
 21
10.7436
  0
LINE
  8
0
 10
16.2041
 20
10.7436
 11
17.0043
 21
10.5909
  0
LINE
  8
0
 10
17.0043
 20
10.5909
 11
17.7414
 21
10.2441
  0
LINE
  8
0
 10
17.7414
 20
10.2441
 11
18.3691
 21
9.72478
  0
LINE
  8
0
 10
18.3691
 20
9.72478
 11
18.848
 21
9.06569
  0
LINE
  8
0
 10
18.848
 20
9.06569
 11
19.1479
 21
8.30823
  0
LINE
  8
0
 10
19.1479
 20
8.30823
 11
19.25
 21
7.5
  0
LINE
  8
0
 10
19.25
 20
7.5
 11
19.1479
 21
6.69176
  0
LINE
  8
0
 10
19.1479
 20
6.69176
 11
18.848
 21
5.9343
  0
LINE
  8
0
 10
18.848
 20
5.9343
 11
18.3691
 21
5.27521
  0
LINE
  8
0
 10
18.3691
 20
5.27521
 11
17.7414
 21
4.75592
  0
LINE
  8
0
 10
17.7414
 20
4.75592
 11
17.0043
 21
4.40906
  0
LINE
  8
0
 10
17.0043
 20
4.40906
 11
16.2041
 21
4.25641
  0
LINE
  8
0
 10
16.2041
 20
4.25641
 11
15.391
 21
4.30756
  0
LINE
  8
0
 10
0.391006
 20
4.30756
 11
-0.383774
 21
4.55931
  0
LINE
  8
0
 10
-0.383774
 20
4.55931
 11
-1.07162
 21
4.99582
  0
LINE
  8
0
 10
-1.07162
 20
4.99582
 11
-1.6293
 21
5.58969
  0
LINE
  8
0
 10
-1.6293
 20
5.58969
 11
-2.02176
 21
6.30359
  0
LINE
  8
0
 10
-2.02176
 20
6.30359
 11
-2.22437
 21
7.09267
  0
LINE
  8
0
 10
-2.22437
 20
7.09267
 11
-2.22437
 21
7.90732
  0
LINE
  8
0
 10
-2.22437
 20
7.90732
 11
-2.02176
 21
8.6964
  0
LINE
  8
0
 10
-2.02176
 20
8.6964
 11
-1.6293
 21
9.41029
  0
LINE
  8
0
 10
-1.6293
 20
9.41029
 11
-1.07162
 21
10.0042
  0
LINE
  8
0
 10
-1.07162
 20
10.0042
 11
-0.383774
 21
10.4407
  0
LINE
  8
0
 10
-0.383774
 20
10.4407
 11
0.391006
 21
10.6924
  0
LINE
  8
0
 10
0.391006
 20
10.6924
 11
1.20406
 21
10.7436
  0
LINE
  8
0
 10
1.20406
 20
10.7436
 11
2.0043
 21
10.5909
  0
LINE
  8
0
 10
2.0043
 20
10.5909
 11
2.74142
 21
10.2441
  0
LINE
  8
0
 10
2.74142
 20
10.2441
 11
3.36914
 21
9.72478
  0
LINE
  8
0
 10
3.36914
 20
9.72478
 11
3.84799
 21
9.06569
  0
LINE
  8
0
 10
3.84799
 20
9.06569
 11
4.14789
 21
8.30823
  0
LINE
  8
0
 10
4.14789
 20
8.30823
 11
4.25
 21
7.5
  0
LINE
  8
0
 10
4.25
 20
7.5
 11
4.14789
 21
6.69176
  0
LINE
  8
0
 10
4.14789
 20
6.69176
 11
3.84799
 21
5.9343
  0
LINE
  8
0
 10
3.84799
 20
5.9343
 11
3.36914
 21
5.27521
  0
LINE
  8
0
 10
3.36914
 20
5.27521
 11
2.74142
 21
4.75592
  0
LINE
  8
0
 10
2.74142
 20
4.75592
 11
2.0043
 21
4.40906
  0
LINE
  8
0
 10
2.0043
 20
4.40906
 11
1.20406
 21
4.25641
  0
LINE
  8
0
 10
1.20406
 20
4.25641
 11
0.391006
 21
4.30756
  0
LINE
  8
0
 10
-13.8079
 20
4.4472
 11
-14.5732
 21
4.49535
  0
LINE
  8
0
 10
-14.5732
 20
4.49535
 11
-15.3024
 21
4.73228
  0
LINE
  8
0
 10
-15.3024
 20
4.73228
 11
-15.9498
 21
5.14313
  0
LINE
  8
0
 10
-15.9498
 20
5.14313
 11
-16.4746
 21
5.70206
  0
LINE
  8
0
 10
-16.4746
 20
5.70206
 11
-16.844
 21
6.37396
  0
LINE
  8
0
 10
-16.844
 20
6.37396
 11
-17.0347
 21
7.11662
  0
LINE
  8
0
 10
-17.0347
 20
7.11662
 11
-17.0347
 21
7.88336
  0
LINE
  8
0
 10
-17.0347
 20
7.88336
 11
-16.844
 21
8.62602
  0
LINE
  8
0
 10
-16.844
 20
8.62602
 11
-16.4746
 21
9.29793
  0
LINE
  8
0
 10
-16.4746
 20
9.29793
 11
-15.9498
 21
9.85686
  0
LINE
  8
0
 10
-15.9498
 20
9.85686
 11
-15.3024
 21
10.2677
  0
LINE
  8
0
 10
-15.3024
 20
10.2677
 11
-14.5732
 21
10.5046
  0
LINE
  8
0
 10
-14.5732
 20
10.5046
 11
-13.8079
 21
10.5528
  0
LINE
  8
0
 10
-13.8079
 20
10.5528
 11
-13.0548
 21
10.4091
  0
LINE
  8
0
 10
-13.0548
 20
10.4091
 11
-12.361
 21
10.0826
  0
LINE
  8
0
 10
-12.361
 20
10.0826
 11
-11.7702
 21
9.5939
  0
LINE
  8
0
 10
-11.7702
 20
9.5939
 11
-11.3195
 21
8.97359
  0
LINE
  8
0
 10
-11.3195
 20
8.97359
 11
-11.0373
 21
8.2607
  0
LINE
  8
0
 10
-11.0373
 20
8.2607
 11
-10.9412
 21
7.5
  0
LINE
  8
0
 10
-10.9412
 20
7.5
 11
-11.0373
 21
6.73929
  0
LINE
  8
0
 10
-11.0373
 20
6.73929
 11
-11.3195
 21
6.0264
  0
LINE
  8
0
 10
-11.3195
 20
6.0264
 11
-11.7702
 21
5.40608
  0
LINE
  8
0
 10
-11.7702
 20
5.40608
 11
-12.361
 21
4.91734
  0
LINE
  8
0
 10
-12.361
 20
4.91734
 11
-13.0548
 21
4.59088
  0
LINE
  8
0
 10
-13.0548
 20
4.59088
 11
-13.8079
 21
4.4472
  0
LINE
  8
0
 10
-1.7
 20
-3.15999
 11
-1.7
 21
-1.75999
  0
LINE
  8
0
 10
-1.7
 20
-1.75999
 11
-0.299988
 21
-1.75999
  0
LINE
  8
0
 10
-0.299988
 20
-1.75999
 11
-0.299988
 21
-3.15999
  0
LINE
  8
0
 10
-0.299988
 20
-3.15999
 11
-1.7
 21
-3.15999
  0
LINE
  8
0
 10
-1.7
 20
-5.7
 11
-1.7
 21
-4.29999
  0
LINE
  8
0
 10
-1.7
 20
-4.29999
 11
-0.299988
 21
-4.29999
  0
LINE
  8
0
 10
-0.299988
 20
-4.29999
 11
-0.299988
 21
-5.7
  0
LINE
  8
0
 10
-0.299988
 20
-5.7
 11
-1.7
 21
-5.7
  0
LINE
  8
0
 10
16.1921
 20
-10.5528
 11
15.4268
 21
-10.5046
  0
LINE
  8
0
 10
15.4268
 20
-10.5046
 11
14.6976
 21
-10.2677
  0
LINE
  8
0
 10
14.6976
 20
-10.2677
 11
14.0502
 21
-9.85686
  0
LINE
  8
0
 10
14.0502
 20
-9.85686
 11
13.5253
 21
-9.29793
  0
LINE
  8
0
 10
13.5253
 20
-9.29793
 11
13.156
 21
-8.62602
  0
LINE
  8
0
 10
13.156
 20
-8.62602
 11
12.9653
 21
-7.88336
  0
LINE
  8
0
 10
12.9653
 20
-7.88336
 11
12.9653
 21
-7.11662
  0
LINE
  8
0
 10
12.9653
 20
-7.11662
 11
13.156
 21
-6.37396
  0
LINE
  8
0
 10
13.156
 20
-6.37396
 11
13.5253
 21
-5.70206
  0
LINE
  8
0
 10
13.5253
 20
-5.70206
 11
14.0502
 21
-5.14313
  0
LINE
  8
0
 10
14.0502
 20
-5.14313
 11
14.6976
 21
-4.73228
  0
LINE
  8
0
 10
14.6976
 20
-4.73228
 11
15.4268
 21
-4.49535
  0
LINE
  8
0
 10
15.4268
 20
-4.49535
 11
16.1921
 21
-4.4472
  0
LINE
  8
0
 10
16.1921
 20
-4.4472
 11
16.9452
 21
-4.59088
  0
LINE
  8
0
 10
16.9452
 20
-4.59088
 11
17.639
 21
-4.91734
  0
LINE
  8
0
 10
17.639
 20
-4.91734
 11
18.2298
 21
-5.40608
  0
LINE
  8
0
 10
18.2298
 20
-5.40608
 11
18.6805
 21
-6.0264
  0
LINE
  8
0
 10
18.6805
 20
-6.0264
 11
18.9627
 21
-6.73929
  0
LINE
  8
0
 10
18.9627
 20
-6.73929
 11
19.0588
 21
-7.5
  0
LINE
  8
0
 10
19.0588
 20
-7.5
 11
18.9627
 21
-8.2607
  0
LINE
  8
0
 10
18.9627
 20
-8.2607
 11
18.6805
 21
-8.97359
  0
LINE
  8
0
 10
18.6805
 20
-8.97359
 11
18.2298
 21
-9.5939
  0
LINE
  8
0
 10
18.2298
 20
-9.5939
 11
17.639
 21
-10.0826
  0
LINE
  8
0
 10
17.639
 20
-10.0826
 11
16.9452
 21
-10.4091
  0
LINE
  8
0
 10
16.9452
 20
-10.4091
 11
16.1921
 21
-10.5528
  0
LINE
  8
0
 10
-1.7
 20
-8.23999
 11
-1.7
 21
-6.84
  0
LINE
  8
0
 10
-1.7
 20
-6.84
 11
-0.299988
 21
-6.84
  0
LINE
  8
0
 10
-0.299988
 20
-6.84
 11
-0.299988
 21
-8.23999
  0
LINE
  8
0
 10
-0.299988
 20
-8.23999
 11
-1.7
 21
-8.23999
  0
ENDSEC
  0
SECTION
  2
OBJECTS
  0
DICTIONARY
  0
ENDSEC
  0
EOF
