M48
; DRILL file {KiCad (6.0.5)} date Wed Jun  1 17:15:56 2022
; FORMAT={-:-/ absolute / inch / decimal}
; #@! TF.CreationDate,2022-06-01T17:15:56+01:00
; #@! TF.GenerationSoftware,Kicad,Pcbnew,(6.0.5)
; #@! TF.FileFunction,Plated,1,2,PTH
FMAT,2
INCH
; #@! TA.AperFunction,Plated,PTH,ComponentDrill
T1C0.0315
; #@! TA.AperFunction,Plated,PTH,ComponentDrill
T2C0.0354
; #@! TA.AperFunction,Plated,PTH,ComponentDrill
T3C0.0394
; #@! TA.AperFunction,Plated,PTH,ComponentDrill
T4C0.0433
; #@! TA.AperFunction,Plated,PTH,ComponentDrill
T5C0.0472
; #@! TA.AperFunction,Plated,PTH,ComponentDrill
T6C0.0512
%
G90
G05
T1
X-0.1496Y-0.2362
X0.1496Y-0.2362
T2
X-0.05Y-0.2362
X0.05Y-0.2362
T3
X-0.4406Y-0.0681
X-0.4406Y-0.1681
X-0.4406Y-0.2681
X-0.0994Y-0.4331
X0.0006Y-0.4331
X0.1006Y-0.4331
X0.4089Y-0.0394
X0.4089Y-0.1394
X0.5087Y-0.0394
X0.6087Y-0.0394
X0.7087Y-0.0394
T4
X-0.128Y-0.1476
X-0.128Y-0.3248
X-0.1Y-0.0415
X0.0Y-0.0415
X0.1Y-0.0415
X0.128Y-0.1476
X0.128Y-0.3248
T5
X-0.7618Y0.0787
X-0.7087Y-0.4331
X-0.2618Y0.0787
X-0.2087Y-0.4331
T6
X-0.2457Y-0.1378
X-0.2457Y-0.3346
X0.2465Y-0.1378
X0.2465Y-0.3346
T0
M30
