%TF.GenerationSoftware,KiCad,Pcbnew,(6.0.5)*%
%TF.CreationDate,2022-06-01T17:15:45+01:00*%
%TF.ProjectId,OOEB-MODULE-PCB,4f4f4542-2d4d-44f4-9455-4c452d504342,rev?*%
%TF.SameCoordinates,Original*%
%TF.FileFunction,Copper,L2,Bot*%
%TF.FilePolarity,Positive*%
%FSLAX46Y46*%
G04 Gerber Fmt 4.6, Leading zero omitted, Abs format (unit mm)*
G04 Created by KiCad (PCBNEW (6.0.5)) date 2022-06-01 17:15:45*
%MOMM*%
%LPD*%
G01*
G04 APERTURE LIST*
%TA.AperFunction,ComponentPad*%
%ADD10O,3.048000X1.850000*%
%TD*%
%TA.AperFunction,ComponentPad*%
%ADD11C,2.000000*%
%TD*%
%TA.AperFunction,ComponentPad*%
%ADD12O,2.400000X2.400000*%
%TD*%
%TA.AperFunction,ComponentPad*%
%ADD13C,2.400000*%
%TD*%
%TA.AperFunction,ComponentPad*%
%ADD14C,1.600000*%
%TD*%
%TA.AperFunction,ComponentPad*%
%ADD15O,1.905000X2.000000*%
%TD*%
%TA.AperFunction,ComponentPad*%
%ADD16R,1.905000X2.000000*%
%TD*%
%TA.AperFunction,ComponentPad*%
%ADD17R,1.700000X1.700000*%
%TD*%
%TA.AperFunction,ComponentPad*%
%ADD18O,1.700000X1.700000*%
%TD*%
%TA.AperFunction,ComponentPad*%
%ADD19R,1.800000X1.800000*%
%TD*%
%TA.AperFunction,ComponentPad*%
%ADD20C,1.800000*%
%TD*%
%TA.AperFunction,Conductor*%
%ADD21C,0.250000*%
%TD*%
G04 APERTURE END LIST*
D10*
%TO.P,SW2,1,1*%
%TO.N,Net-(J1-Pad1)*%
X-6240000Y-3500000D03*
X6260000Y-3500000D03*
%TO.P,SW2,2,2*%
%TO.N,GND*%
X-6240000Y-8500000D03*
X6260000Y-8500000D03*
%TD*%
D11*
%TO.P,SW1,1,1*%
%TO.N,Net-(J1-Pad1)*%
X3250000Y-3750000D03*
X-3250000Y-3750000D03*
%TO.P,SW1,2,2*%
%TO.N,GND*%
X3250000Y-8250000D03*
X-3250000Y-8250000D03*
%TD*%
D12*
%TO.P,R3,2*%
%TO.N,Net-(D1-Pad2)*%
X-5300000Y-11000000D03*
D13*
%TO.P,R3,1*%
%TO.N,Net-(J1-Pad1)*%
X-18000000Y-11000000D03*
%TD*%
D14*
%TO.P,R2,2*%
%TO.N,Net-(J1-Pad1)*%
X3800000Y-6000000D03*
%TO.P,R2,1*%
%TO.N,GND*%
X-3800000Y-6000000D03*
%TD*%
D13*
%TO.P,R1,1*%
%TO.N,+5V*%
X-19350000Y2000000D03*
D12*
%TO.P,R1,2*%
%TO.N,Net-(J1-Pad1)*%
X-6650000Y2000000D03*
%TD*%
D15*
%TO.P,Q1,3,E*%
%TO.N,GND*%
X-2540000Y-1055000D03*
%TO.P,Q1,2,C*%
%TO.N,Net-(J4-Pad2)*%
X0Y-1055000D03*
D16*
%TO.P,Q1,1,B*%
%TO.N,Net-(D1-Pad2)*%
X2540000Y-1055000D03*
%TD*%
D17*
%TO.P,J4,1,Pin_1*%
%TO.N,+5V*%
X10385000Y-1000000D03*
D18*
%TO.P,J4,2,Pin_2*%
%TO.N,Net-(J4-Pad2)*%
X10385000Y-3540000D03*
%TD*%
%TO.P,J3,3,Pin_3*%
%TO.N,+5V*%
X12920000Y-1000000D03*
%TO.P,J3,2,Pin_2*%
%TO.N,GND*%
X15460000Y-1000000D03*
D17*
%TO.P,J3,1,Pin_1*%
%TO.N,Net-(J1-Pad1)*%
X18000000Y-1000000D03*
%TD*%
%TO.P,J2,1,Pin_1*%
%TO.N,+5V*%
X-2525000Y-11000000D03*
D18*
%TO.P,J2,2,Pin_2*%
%TO.N,Net-(J1-Pad1)*%
X15000Y-11000000D03*
%TO.P,J2,3,Pin_3*%
%TO.N,GND*%
X2555000Y-11000000D03*
%TD*%
D17*
%TO.P,J1,1,Pin_1*%
%TO.N,Net-(J1-Pad1)*%
X-11190000Y-1730000D03*
D18*
%TO.P,J1,2,Pin_2*%
%TO.N,+5V*%
X-11190000Y-4270000D03*
%TO.P,J1,3,Pin_3*%
%TO.N,GND*%
X-11190000Y-6810000D03*
%TD*%
D19*
%TO.P,D1,1,K*%
%TO.N,GND*%
X-1270000Y-6000000D03*
D20*
%TO.P,D1,2,A*%
%TO.N,Net-(D1-Pad2)*%
X1270000Y-6000000D03*
%TD*%
D21*
%TO.N,GND*%
X-3800000Y-7700000D02*
X-3250000Y-8250000D01*
X-3800000Y-6000000D02*
X-3800000Y-7700000D01*
X-1270000Y-6000000D02*
X-3800000Y-6000000D01*
X-6240000Y-8500000D02*
X-3500000Y-8500000D01*
X-3500000Y-8500000D02*
X-3250000Y-8250000D01*
X7960000Y-8500000D02*
X6260000Y-8500000D01*
X15460000Y-1000000D02*
X7960000Y-8500000D01*
%TO.N,+5V*%
X-6475489Y-12524511D02*
X-4049511Y-12524511D01*
X-4049511Y-12524511D02*
X-2525000Y-11000000D01*
X-8088520Y-10911480D02*
X-6475489Y-12524511D01*
X-8088520Y-7371480D02*
X-8088520Y-10911480D01*
X-11190000Y-4270000D02*
X-8088520Y-7371480D01*
%TO.N,Net-(D1-Pad2)*%
X1270000Y-2325000D02*
X2540000Y-1055000D01*
X1270000Y-6000000D02*
X1270000Y-2325000D01*
X-2555489Y-9825489D02*
X-4125489Y-9825489D01*
X-4125489Y-9825489D02*
X-5300000Y-11000000D01*
X1270000Y-6000000D02*
X-2555489Y-9825489D01*
%TO.N,Net-(J1-Pad1)*%
X3626857Y-6000000D02*
X3800000Y-6000000D01*
X15000Y-9611857D02*
X3626857Y-6000000D01*
X15000Y-11000000D02*
X15000Y-9611857D01*
%TO.N,GND*%
X-2540000Y-1055000D02*
X-1270000Y-2325000D01*
X3250000Y-10305000D02*
X2555000Y-11000000D01*
X3250000Y-8250000D02*
X3250000Y-10305000D01*
X6010000Y-8250000D02*
X6260000Y-8500000D01*
X3250000Y-8250000D02*
X6010000Y-8250000D01*
%TO.N,+5V*%
X10385000Y-1000000D02*
X12920000Y-1000000D01*
X-17825489Y3524511D02*
X5860489Y3524511D01*
X5860489Y3524511D02*
X10385000Y-1000000D01*
X-19350000Y2000000D02*
X-17825489Y3524511D01*
X-17460000Y2000000D02*
X-19350000Y2000000D01*
X-11190000Y-4270000D02*
X-17460000Y2000000D01*
%TD*%
%TA.AperFunction,Conductor*%
%TO.N,GND*%
G36*
X-17641808Y1281635D02*
G01*
X-17620286Y1264382D01*
X-15067836Y-1288069D01*
X-12540223Y-3815682D01*
X-12506197Y-3877994D01*
X-12507900Y-3938446D01*
X-12529011Y-4014570D01*
X-12552749Y-4236695D01*
X-12552452Y-4241848D01*
X-12552452Y-4241851D01*
X-12540400Y-4450865D01*
X-12539890Y-4459715D01*
X-12538753Y-4464761D01*
X-12538752Y-4464767D01*
X-12524049Y-4530007D01*
X-12490778Y-4677639D01*
X-12452795Y-4771181D01*
X-12416887Y-4859611D01*
X-12406734Y-4884616D01*
X-12290013Y-5075088D01*
X-12143750Y-5243938D01*
X-11971874Y-5386632D01*
X-11963213Y-5391693D01*
X-11898045Y-5429774D01*
X-11849321Y-5481412D01*
X-11836250Y-5551195D01*
X-11862981Y-5616967D01*
X-11903438Y-5650327D01*
X-11911543Y-5654546D01*
X-11920262Y-5660036D01*
X-12090567Y-5787905D01*
X-12098274Y-5794748D01*
X-12245410Y-5948717D01*
X-12251896Y-5956727D01*
X-12371902Y-6132649D01*
X-12377000Y-6141623D01*
X-12466662Y-6334783D01*
X-12470225Y-6344470D01*
X-12525611Y-6544183D01*
X-12524088Y-6552607D01*
X-12511708Y-6556000D01*
X-9853541Y-6556000D01*
X-9853541Y-6560776D01*
X-9816897Y-6560784D01*
X-9763328Y-6592577D01*
X-8758925Y-7596980D01*
X-8724899Y-7659292D01*
X-8722020Y-7686075D01*
X-8722020Y-10832713D01*
X-8722547Y-10843896D01*
X-8724222Y-10851389D01*
X-8723973Y-10859315D01*
X-8723973Y-10859316D01*
X-8722082Y-10919466D01*
X-8722020Y-10923425D01*
X-8722020Y-10951336D01*
X-8721523Y-10955270D01*
X-8721523Y-10955271D01*
X-8721515Y-10955336D01*
X-8720582Y-10967173D01*
X-8719193Y-11011369D01*
X-8713542Y-11030819D01*
X-8709533Y-11050180D01*
X-8706994Y-11070277D01*
X-8704075Y-11077648D01*
X-8704075Y-11077650D01*
X-8690716Y-11111392D01*
X-8686871Y-11122622D01*
X-8674538Y-11165073D01*
X-8670505Y-11171892D01*
X-8670503Y-11171897D01*
X-8664227Y-11182508D01*
X-8655532Y-11200256D01*
X-8648072Y-11219097D01*
X-8643410Y-11225513D01*
X-8643410Y-11225514D01*
X-8622084Y-11254867D01*
X-8615568Y-11264787D01*
X-8593062Y-11302842D01*
X-8578741Y-11317163D01*
X-8565901Y-11332196D01*
X-8553992Y-11348587D01*
X-8547886Y-11353638D01*
X-8519915Y-11376778D01*
X-8511136Y-11384768D01*
X-7119499Y-12776405D01*
X-7085473Y-12838717D01*
X-7090538Y-12909532D01*
X-7133085Y-12966368D01*
X-7199605Y-12991179D01*
X-7208594Y-12991500D01*
X-15950633Y-12991500D01*
X-15970018Y-12990000D01*
X-15984851Y-12987690D01*
X-15984855Y-12987690D01*
X-15993724Y-12986309D01*
X-16014183Y-12988984D01*
X-16036007Y-12989928D01*
X-16385965Y-12974648D01*
X-16396914Y-12973690D01*
X-16413564Y-12971498D01*
X-16774498Y-12923981D01*
X-16785307Y-12922074D01*
X-17157115Y-12839647D01*
X-17167732Y-12836802D01*
X-17293583Y-12797121D01*
X-17352536Y-12757561D01*
X-17380743Y-12692407D01*
X-17369247Y-12622348D01*
X-17321699Y-12569625D01*
X-17305431Y-12561185D01*
X-17213193Y-12521557D01*
X-17213190Y-12521555D01*
X-17208890Y-12519708D01*
X-17204910Y-12517245D01*
X-17204906Y-12517243D01*
X-16996936Y-12388547D01*
X-16996934Y-12388545D01*
X-16992953Y-12386082D01*
X-16963991Y-12361564D01*
X-16802711Y-12225031D01*
X-16802709Y-12225029D01*
X-16799138Y-12222006D01*
X-16631705Y-12031084D01*
X-16596841Y-11976883D01*
X-16496859Y-11821442D01*
X-16494331Y-11817512D01*
X-16390033Y-11585980D01*
X-16321104Y-11341575D01*
X-16289057Y-11089667D01*
X-16286709Y-11000000D01*
X-16296221Y-10872000D01*
X-16305182Y-10751411D01*
X-16305183Y-10751407D01*
X-16305528Y-10746759D01*
X-16306598Y-10742027D01*
X-16360541Y-10503639D01*
X-16361572Y-10499082D01*
X-16379862Y-10452050D01*
X-16451916Y-10266762D01*
X-16451917Y-10266760D01*
X-16453609Y-10262409D01*
X-16474134Y-10226498D01*
X-16577298Y-10045997D01*
X-16577300Y-10045995D01*
X-16579617Y-10041940D01*
X-16736829Y-9842517D01*
X-16872005Y-9715357D01*
X-16918390Y-9671722D01*
X-16918392Y-9671720D01*
X-16921791Y-9668523D01*
X-16991190Y-9620379D01*
X-17126607Y-9526437D01*
X-17126610Y-9526435D01*
X-17130439Y-9523779D01*
X-17134616Y-9521719D01*
X-17134623Y-9521715D01*
X-17354004Y-9413528D01*
X-17354008Y-9413527D01*
X-17358190Y-9411464D01*
X-17600040Y-9334047D01*
X-17604645Y-9333297D01*
X-17846065Y-9293980D01*
X-17846066Y-9293980D01*
X-17850677Y-9293229D01*
X-17977635Y-9291567D01*
X-18099917Y-9289966D01*
X-18099920Y-9289966D01*
X-18104594Y-9289905D01*
X-18356213Y-9324149D01*
X-18360699Y-9325457D01*
X-18360701Y-9325457D01*
X-18387599Y-9333297D01*
X-18600007Y-9395208D01*
X-18604260Y-9397168D01*
X-18604261Y-9397169D01*
X-18623467Y-9406023D01*
X-18830620Y-9501522D01*
X-18834529Y-9504085D01*
X-19039072Y-9638189D01*
X-19039077Y-9638193D01*
X-19042985Y-9640755D01*
X-19079853Y-9673661D01*
X-19219331Y-9798150D01*
X-19232438Y-9809848D01*
X-19394817Y-10005087D01*
X-19526553Y-10222182D01*
X-19528362Y-10226496D01*
X-19528363Y-10226498D01*
X-19600359Y-10398190D01*
X-19624754Y-10456365D01*
X-19625905Y-10460897D01*
X-19679715Y-10672774D01*
X-19715870Y-10733875D01*
X-19779319Y-10765729D01*
X-19849918Y-10758224D01*
X-19905252Y-10713742D01*
X-19913601Y-10699938D01*
X-20020427Y-10494728D01*
X-20068142Y-10403067D01*
X-20072784Y-10393114D01*
X-20112384Y-10297509D01*
X-20218529Y-10041254D01*
X-20222285Y-10030932D01*
X-20225024Y-10022243D01*
X-20336802Y-9667731D01*
X-20339647Y-9657114D01*
X-20358562Y-9571792D01*
X-20422074Y-9285307D01*
X-20423982Y-9274490D01*
X-20424524Y-9270368D01*
X-20473690Y-8896913D01*
X-20474648Y-8885964D01*
X-20476371Y-8846502D01*
X-20489439Y-8547206D01*
X-20487812Y-8520805D01*
X-20487231Y-8517352D01*
X-20487230Y-8517345D01*
X-20486424Y-8512552D01*
X-20486271Y-8500000D01*
X-20490227Y-8472376D01*
X-20491500Y-8454514D01*
X-20491500Y-7077966D01*
X-12521743Y-7077966D01*
X-12491435Y-7212446D01*
X-12488355Y-7222275D01*
X-12408230Y-7419603D01*
X-12403587Y-7428794D01*
X-12292306Y-7610388D01*
X-12286223Y-7618699D01*
X-12146787Y-7779667D01*
X-12139420Y-7786883D01*
X-11975566Y-7922916D01*
X-11967119Y-7928831D01*
X-11783244Y-8036279D01*
X-11773958Y-8040729D01*
X-11574999Y-8116703D01*
X-11565101Y-8119579D01*
X-11461750Y-8140606D01*
X-11447701Y-8139410D01*
X-11444000Y-8129065D01*
X-11444000Y-8128517D01*
X-10936000Y-8128517D01*
X-10931936Y-8142359D01*
X-10918522Y-8144393D01*
X-10911816Y-8143534D01*
X-10901738Y-8141392D01*
X-10697745Y-8080191D01*
X-10688158Y-8076433D01*
X-10496905Y-7982739D01*
X-10488055Y-7977464D01*
X-10314672Y-7853792D01*
X-10306800Y-7847139D01*
X-10155948Y-7696812D01*
X-10149270Y-7688965D01*
X-10024997Y-7516020D01*
X-10019687Y-7507183D01*
X-9925330Y-7316267D01*
X-9921531Y-7306672D01*
X-9859623Y-7102910D01*
X-9857445Y-7092837D01*
X-9856014Y-7081962D01*
X-9858225Y-7067778D01*
X-9871383Y-7064000D01*
X-10917885Y-7064000D01*
X-10933124Y-7068475D01*
X-10934329Y-7069865D01*
X-10936000Y-7077548D01*
X-10936000Y-8128517D01*
X-11444000Y-8128517D01*
X-11444000Y-7082115D01*
X-11448475Y-7066876D01*
X-11449865Y-7065671D01*
X-11457548Y-7064000D01*
X-12506775Y-7064000D01*
X-12520306Y-7067973D01*
X-12521743Y-7077966D01*
X-20491500Y-7077966D01*
X-20491500Y469697D01*
X-20471498Y537818D01*
X-20417842Y584311D01*
X-20347568Y594415D01*
X-20290995Y571309D01*
X-20257906Y547047D01*
X-20253771Y544871D01*
X-20253767Y544869D01*
X-20240365Y537818D01*
X-20033173Y428809D01*
X-19937518Y395405D01*
X-19804551Y348971D01*
X-19793432Y345088D01*
X-19543950Y297722D01*
X-19423468Y292989D01*
X-19294875Y287936D01*
X-19294870Y287936D01*
X-19290207Y287753D01*
X-19191226Y298593D01*
X-19042431Y314888D01*
X-19042425Y314889D01*
X-19037778Y315398D01*
X-19032080Y316898D01*
X-18796727Y378862D01*
X-18792207Y380052D01*
X-18626848Y451095D01*
X-18563193Y478443D01*
X-18563190Y478445D01*
X-18558890Y480292D01*
X-18554910Y482755D01*
X-18554906Y482757D01*
X-18346936Y611453D01*
X-18346934Y611455D01*
X-18342953Y613918D01*
X-18244572Y697203D01*
X-18152711Y774969D01*
X-18152709Y774971D01*
X-18149138Y777994D01*
X-17981705Y968916D01*
X-17844331Y1182488D01*
X-17842413Y1186745D01*
X-17842409Y1186753D01*
X-17824263Y1227037D01*
X-17778048Y1280932D01*
X-17710031Y1301285D01*
X-17641808Y1281635D01*
G37*
%TD.AperFunction*%
%TA.AperFunction,Conductor*%
G36*
X15970018Y12990000D02*
G01*
X15984851Y12987690D01*
X15984855Y12987690D01*
X15993724Y12986309D01*
X16014183Y12988984D01*
X16036007Y12989928D01*
X16385965Y12974648D01*
X16396913Y12973690D01*
X16774498Y12923981D01*
X16785307Y12922074D01*
X17157114Y12839647D01*
X17167731Y12836802D01*
X17530939Y12722282D01*
X17541254Y12718529D01*
X17893123Y12572780D01*
X17903067Y12568142D01*
X18240867Y12392295D01*
X18250387Y12386799D01*
X18571574Y12182180D01*
X18580578Y12175876D01*
X18882716Y11944038D01*
X18891137Y11936972D01*
X19171914Y11679686D01*
X19179686Y11671914D01*
X19436972Y11391137D01*
X19444038Y11382716D01*
X19675876Y11080578D01*
X19682180Y11071574D01*
X19886799Y10750387D01*
X19892295Y10740867D01*
X20068138Y10403076D01*
X20072780Y10393123D01*
X20218526Y10041261D01*
X20222285Y10030932D01*
X20336802Y9667732D01*
X20339647Y9657115D01*
X20420219Y9293679D01*
X20422073Y9285315D01*
X20423981Y9274498D01*
X20442882Y9130926D01*
X20473690Y8896914D01*
X20474648Y8885965D01*
X20486548Y8613426D01*
X20489603Y8543448D01*
X20488223Y8518571D01*
X20486309Y8506276D01*
X20487473Y8497374D01*
X20487473Y8497372D01*
X20490436Y8474717D01*
X20491500Y8458379D01*
X20491500Y-8450633D01*
X20490000Y-8470018D01*
X20487690Y-8484851D01*
X20487690Y-8484855D01*
X20486309Y-8493724D01*
X20488984Y-8514183D01*
X20489928Y-8536007D01*
X20476371Y-8846502D01*
X20474648Y-8885964D01*
X20473690Y-8896913D01*
X20424525Y-9270368D01*
X20423982Y-9274490D01*
X20422074Y-9285307D01*
X20358562Y-9571792D01*
X20339647Y-9657114D01*
X20336802Y-9667731D01*
X20225025Y-10022243D01*
X20222285Y-10030932D01*
X20218529Y-10041254D01*
X20112385Y-10297509D01*
X20072784Y-10393114D01*
X20068142Y-10403067D01*
X20020427Y-10494728D01*
X19892295Y-10740867D01*
X19886799Y-10750387D01*
X19682180Y-11071574D01*
X19675876Y-11080578D01*
X19444038Y-11382716D01*
X19436972Y-11391137D01*
X19179686Y-11671914D01*
X19171914Y-11679686D01*
X18891137Y-11936972D01*
X18882716Y-11944038D01*
X18580578Y-12175876D01*
X18571574Y-12182180D01*
X18250387Y-12386799D01*
X18240868Y-12392294D01*
X17903067Y-12568142D01*
X17893123Y-12572780D01*
X17541254Y-12718529D01*
X17530939Y-12722282D01*
X17167732Y-12836802D01*
X17157115Y-12839647D01*
X16785307Y-12922074D01*
X16774498Y-12923981D01*
X16413564Y-12971498D01*
X16396914Y-12973690D01*
X16385965Y-12974648D01*
X16043446Y-12989603D01*
X16018571Y-12988223D01*
X16006276Y-12986309D01*
X15997374Y-12987473D01*
X15997372Y-12987473D01*
X15982323Y-12989441D01*
X15974714Y-12990436D01*
X15958379Y-12991500D01*
X-3316406Y-12991500D01*
X-3384527Y-12971498D01*
X-3431020Y-12917842D01*
X-3441124Y-12847568D01*
X-3411630Y-12782988D01*
X-3405501Y-12776405D01*
X-3024501Y-12395405D01*
X-2962189Y-12361379D01*
X-2935406Y-12358500D01*
X-1626866Y-12358500D01*
X-1564684Y-12351745D01*
X-1428295Y-12300615D01*
X-1311739Y-12213261D01*
X-1224385Y-12096705D01*
X-1202201Y-12037529D01*
X-1180402Y-11979382D01*
X-1137760Y-11922618D01*
X-1071198Y-11897918D01*
X-1001850Y-11913126D01*
X-967183Y-11941114D01*
X-938750Y-11973938D01*
X-766874Y-12116632D01*
X-574000Y-12229338D01*
X-365308Y-12309030D01*
X-360240Y-12310061D01*
X-360237Y-12310062D01*
X-265138Y-12329410D01*
X-146403Y-12353567D01*
X-141228Y-12353757D01*
X-141226Y-12353757D01*
X71673Y-12361564D01*
X71677Y-12361564D01*
X76837Y-12361753D01*
X81957Y-12361097D01*
X81959Y-12361097D01*
X293288Y-12334025D01*
X293289Y-12334025D01*
X298416Y-12333368D01*
X303366Y-12331883D01*
X507429Y-12270661D01*
X507434Y-12270659D01*
X512384Y-12269174D01*
X712994Y-12170896D01*
X894860Y-12041173D01*
X904985Y-12031084D01*
X1049435Y-11887137D01*
X1053096Y-11883489D01*
X1183453Y-11702077D01*
X1184640Y-11702930D01*
X1231960Y-11659362D01*
X1301897Y-11647145D01*
X1367338Y-11674678D01*
X1395166Y-11706511D01*
X1452694Y-11800388D01*
X1458777Y-11808699D01*
X1598213Y-11969667D01*
X1605580Y-11976883D01*
X1769434Y-12112916D01*
X1777881Y-12118831D01*
X1961756Y-12226279D01*
X1971042Y-12230729D01*
X2170001Y-12306703D01*
X2179899Y-12309579D01*
X2283250Y-12330606D01*
X2297299Y-12329410D01*
X2301000Y-12319065D01*
X2301000Y-12318517D01*
X2809000Y-12318517D01*
X2813064Y-12332359D01*
X2826478Y-12334393D01*
X2833184Y-12333534D01*
X2843262Y-12331392D01*
X3047255Y-12270191D01*
X3056842Y-12266433D01*
X3248095Y-12172739D01*
X3256945Y-12167464D01*
X3430328Y-12043792D01*
X3438200Y-12037139D01*
X3589052Y-11886812D01*
X3595730Y-11878965D01*
X3720003Y-11706020D01*
X3725313Y-11697183D01*
X3819670Y-11506267D01*
X3823469Y-11496672D01*
X3885377Y-11292910D01*
X3887555Y-11282837D01*
X3888986Y-11271962D01*
X3886775Y-11257778D01*
X3873617Y-11254000D01*
X2827115Y-11254000D01*
X2811876Y-11258475D01*
X2810671Y-11259865D01*
X2809000Y-11267548D01*
X2809000Y-12318517D01*
X2301000Y-12318517D01*
X2301000Y-10872000D01*
X2321002Y-10803879D01*
X2374658Y-10757386D01*
X2427000Y-10746000D01*
X3873344Y-10746000D01*
X3886875Y-10742027D01*
X3888180Y-10732947D01*
X3846214Y-10565875D01*
X3842894Y-10556124D01*
X3757972Y-10360814D01*
X3753105Y-10351739D01*
X3637426Y-10172926D01*
X3631136Y-10164757D01*
X3487806Y-10007240D01*
X3480273Y-10000215D01*
X3436527Y-9965667D01*
X3395464Y-9907750D01*
X3392232Y-9836827D01*
X3427857Y-9775415D01*
X3487145Y-9746171D01*
X3486633Y-9744040D01*
X3712627Y-9689783D01*
X3722012Y-9686734D01*
X3932163Y-9599687D01*
X3940958Y-9595205D01*
X4108445Y-9492568D01*
X4117907Y-9482110D01*
X4114124Y-9473334D01*
X3262812Y-8622022D01*
X3248868Y-8614408D01*
X3247035Y-8614539D01*
X3240420Y-8618790D01*
X2388920Y-9470290D01*
X2381306Y-9484234D01*
X2382375Y-9499184D01*
X2395122Y-9533359D01*
X2380032Y-9602733D01*
X2329830Y-9652936D01*
X2288502Y-9666900D01*
X2244320Y-9673661D01*
X2234293Y-9676050D01*
X2031868Y-9742212D01*
X2022359Y-9746209D01*
X1833463Y-9844542D01*
X1824738Y-9850036D01*
X1654433Y-9977905D01*
X1646726Y-9984748D01*
X1499590Y-10138717D01*
X1493109Y-10146722D01*
X1388498Y-10300074D01*
X1333587Y-10345076D01*
X1263062Y-10353247D01*
X1199315Y-10321993D01*
X1178618Y-10297509D01*
X1097822Y-10172617D01*
X1097820Y-10172614D01*
X1095014Y-10168277D01*
X944670Y-10003051D01*
X940619Y-9999852D01*
X940615Y-9999848D01*
X818407Y-9903334D01*
X777344Y-9845417D01*
X774112Y-9774494D01*
X807404Y-9715357D01*
X1676259Y-8846502D01*
X1738571Y-8812476D01*
X1809386Y-8817541D01*
X1866222Y-8860088D01*
X1881763Y-8887379D01*
X1900313Y-8932163D01*
X1904795Y-8940958D01*
X2007432Y-9108445D01*
X2017890Y-9117907D01*
X2026666Y-9114124D01*
X3160905Y-7979885D01*
X3223217Y-7945859D01*
X3294032Y-7950924D01*
X3339095Y-7979885D01*
X4435656Y-9076446D01*
X4469682Y-9138758D01*
X4464617Y-9209573D01*
X4457147Y-9225929D01*
X4442164Y-9253368D01*
X4442870Y-9263241D01*
X4447358Y-9270368D01*
X4582628Y-9450532D01*
X4589471Y-9458239D01*
X4752356Y-9613896D01*
X4760362Y-9620379D01*
X4946485Y-9747343D01*
X4955444Y-9752432D01*
X5159807Y-9847294D01*
X5169475Y-9850851D01*
X5386580Y-9911060D01*
X5396699Y-9912991D01*
X5580595Y-9932644D01*
X5587287Y-9933000D01*
X5987885Y-9933000D01*
X6003124Y-9928525D01*
X6004329Y-9927135D01*
X6006000Y-9919452D01*
X6006000Y-9914885D01*
X6514000Y-9914885D01*
X6518475Y-9930124D01*
X6519865Y-9931329D01*
X6527548Y-9933000D01*
X6916145Y-9933000D01*
X6921318Y-9932788D01*
X7088687Y-9919027D01*
X7098867Y-9917342D01*
X7317377Y-9862456D01*
X7327128Y-9859136D01*
X7533749Y-9769296D01*
X7542824Y-9764430D01*
X7731990Y-9642052D01*
X7740161Y-9635760D01*
X7906800Y-9484131D01*
X7913825Y-9476598D01*
X8053466Y-9299782D01*
X8059162Y-9291209D01*
X8168052Y-9093955D01*
X8172273Y-9084560D01*
X8247481Y-8872180D01*
X8250113Y-8862217D01*
X8266212Y-8771837D01*
X8264752Y-8758540D01*
X8250197Y-8754000D01*
X6532115Y-8754000D01*
X6516876Y-8758475D01*
X6515671Y-8759865D01*
X6514000Y-8767548D01*
X6514000Y-9914885D01*
X6006000Y-9914885D01*
X6006000Y-8227885D01*
X6514000Y-8227885D01*
X6518475Y-8243124D01*
X6519865Y-8244329D01*
X6527548Y-8246000D01*
X8251774Y-8246000D01*
X8265118Y-8242082D01*
X8267105Y-8227806D01*
X8258547Y-8171879D01*
X8256159Y-8161854D01*
X8186164Y-7947705D01*
X8182167Y-7938196D01*
X8078139Y-7738360D01*
X8072645Y-7729635D01*
X7999867Y-7632703D01*
X12890743Y-7632703D01*
X12891302Y-7636947D01*
X12891302Y-7636951D01*
X12898150Y-7688965D01*
X12928268Y-7917734D01*
X13004129Y-8195036D01*
X13005813Y-8198984D01*
X13114807Y-8454514D01*
X13116923Y-8459476D01*
X13153628Y-8520805D01*
X13249109Y-8680342D01*
X13264561Y-8706161D01*
X13444313Y-8930528D01*
X13461397Y-8946740D01*
X13638127Y-9114450D01*
X13652851Y-9128423D01*
X13886317Y-9296186D01*
X13890112Y-9298195D01*
X13890113Y-9298196D01*
X13911869Y-9309715D01*
X14140392Y-9430712D01*
X14164699Y-9439607D01*
X14394710Y-9523779D01*
X14410373Y-9529511D01*
X14691264Y-9590755D01*
X14719841Y-9593004D01*
X14914282Y-9608307D01*
X14914291Y-9608307D01*
X14916739Y-9608500D01*
X15072271Y-9608500D01*
X15074407Y-9608354D01*
X15074418Y-9608354D01*
X15282548Y-9594165D01*
X15282554Y-9594164D01*
X15286825Y-9593873D01*
X15291020Y-9593004D01*
X15291022Y-9593004D01*
X15491148Y-9551560D01*
X15568342Y-9535574D01*
X15839343Y-9439607D01*
X15946163Y-9384473D01*
X16091005Y-9309715D01*
X16091006Y-9309715D01*
X16094812Y-9307750D01*
X16098313Y-9305289D01*
X16098317Y-9305287D01*
X16243525Y-9203233D01*
X16330023Y-9142441D01*
X16540622Y-8946740D01*
X16722713Y-8724268D01*
X16872927Y-8479142D01*
X16988483Y-8215898D01*
X17009097Y-8143534D01*
X17066068Y-7943534D01*
X17067244Y-7939406D01*
X17103298Y-7686075D01*
X17107146Y-7659036D01*
X17107146Y-7659034D01*
X17107751Y-7654784D01*
X17107845Y-7636951D01*
X17109235Y-7371583D01*
X17109235Y-7371576D01*
X17109257Y-7367297D01*
X17105492Y-7338694D01*
X17091274Y-7230704D01*
X17071732Y-7082266D01*
X17068343Y-7069876D01*
X17035757Y-6950763D01*
X16995871Y-6804964D01*
X16956665Y-6713048D01*
X16884763Y-6544476D01*
X16884761Y-6544472D01*
X16883077Y-6540524D01*
X16765741Y-6344470D01*
X16737643Y-6297521D01*
X16737640Y-6297517D01*
X16735439Y-6293839D01*
X16555687Y-6069472D01*
X16347149Y-5871577D01*
X16113683Y-5703814D01*
X16091843Y-5692250D01*
X16020632Y-5654546D01*
X15859608Y-5569288D01*
X15589627Y-5470489D01*
X15308736Y-5409245D01*
X15277685Y-5406801D01*
X15085718Y-5391693D01*
X15085709Y-5391693D01*
X15083261Y-5391500D01*
X14927729Y-5391500D01*
X14925593Y-5391646D01*
X14925582Y-5391646D01*
X14717452Y-5405835D01*
X14717446Y-5405836D01*
X14713175Y-5406127D01*
X14708980Y-5406996D01*
X14708978Y-5406996D01*
X14598987Y-5429774D01*
X14431658Y-5464426D01*
X14160657Y-5560393D01*
X14156848Y-5562359D01*
X13986413Y-5650327D01*
X13905188Y-5692250D01*
X13901687Y-5694711D01*
X13901683Y-5694713D01*
X13891594Y-5701804D01*
X13669977Y-5857559D01*
X13654892Y-5871577D01*
X13510801Y-6005475D01*
X13459378Y-6053260D01*
X13277287Y-6275732D01*
X13127073Y-6520858D01*
X13125347Y-6524791D01*
X13125346Y-6524792D01*
X13042133Y-6714356D01*
X13011517Y-6784102D01*
X12932756Y-7060594D01*
X12906146Y-7247568D01*
X12897735Y-7306672D01*
X12892249Y-7345216D01*
X12892227Y-7349505D01*
X12892226Y-7349512D01*
X12890816Y-7618699D01*
X12890743Y-7632703D01*
X7999867Y-7632703D01*
X7937372Y-7549468D01*
X7930529Y-7541761D01*
X7767644Y-7386104D01*
X7759638Y-7379621D01*
X7573515Y-7252657D01*
X7564556Y-7247568D01*
X7360193Y-7152706D01*
X7350525Y-7149149D01*
X7133420Y-7088940D01*
X7123301Y-7087009D01*
X6939405Y-7067356D01*
X6932713Y-7067000D01*
X6532115Y-7067000D01*
X6516876Y-7071475D01*
X6515671Y-7072865D01*
X6514000Y-7080548D01*
X6514000Y-8227885D01*
X6006000Y-8227885D01*
X6006000Y-7085115D01*
X6001525Y-7069876D01*
X6000135Y-7068671D01*
X5992452Y-7067000D01*
X5603855Y-7067000D01*
X5598682Y-7067212D01*
X5431313Y-7080973D01*
X5421133Y-7082658D01*
X5202623Y-7137544D01*
X5192872Y-7140864D01*
X4986251Y-7230704D01*
X4977176Y-7235570D01*
X4788010Y-7357948D01*
X4779839Y-7364240D01*
X4697313Y-7439333D01*
X4633468Y-7470385D01*
X4562969Y-7461989D01*
X4505081Y-7411974D01*
X4476352Y-7365093D01*
X4470554Y-7357113D01*
X4438115Y-7319131D01*
X4409084Y-7254341D01*
X4419689Y-7184141D01*
X4461655Y-7134088D01*
X4639789Y-7009357D01*
X4639792Y-7009355D01*
X4644300Y-7006198D01*
X4806198Y-6844300D01*
X4833742Y-6804964D01*
X4934366Y-6661257D01*
X4937523Y-6656749D01*
X4939846Y-6651767D01*
X4939849Y-6651762D01*
X5031961Y-6454225D01*
X5031961Y-6454224D01*
X5034284Y-6449243D01*
X5079798Y-6279386D01*
X5092119Y-6233402D01*
X5092119Y-6233400D01*
X5093543Y-6228087D01*
X5113498Y-6000000D01*
X5093543Y-5771913D01*
X5092119Y-5766598D01*
X5035707Y-5556067D01*
X5035706Y-5556065D01*
X5034284Y-5550757D01*
X5001948Y-5481412D01*
X4939849Y-5348238D01*
X4939846Y-5348233D01*
X4937523Y-5343251D01*
X4864098Y-5238389D01*
X4809357Y-5160211D01*
X4809355Y-5160208D01*
X4806198Y-5155700D01*
X4644300Y-4993802D01*
X4639792Y-4990645D01*
X4639789Y-4990643D01*
X4462066Y-4866200D01*
X4417738Y-4810743D01*
X4410429Y-4740123D01*
X4438527Y-4681156D01*
X4470960Y-4643183D01*
X4470968Y-4643173D01*
X4474176Y-4639416D01*
X4476758Y-4635203D01*
X4476765Y-4635193D01*
X4504922Y-4589245D01*
X4557569Y-4541614D01*
X4627611Y-4530007D01*
X4692808Y-4558110D01*
X4699400Y-4563981D01*
X4730469Y-4593672D01*
X4747677Y-4610116D01*
X4755777Y-4617857D01*
X4950508Y-4750693D01*
X4955192Y-4752867D01*
X4955195Y-4752869D01*
X5159628Y-4847764D01*
X5159633Y-4847766D01*
X5164319Y-4849941D01*
X5391468Y-4912935D01*
X5396605Y-4913484D01*
X5580563Y-4933144D01*
X5580571Y-4933144D01*
X5583898Y-4933500D01*
X6918757Y-4933500D01*
X6921330Y-4933288D01*
X6921341Y-4933288D01*
X7088779Y-4919522D01*
X7088785Y-4919521D01*
X7093930Y-4919098D01*
X7322551Y-4861673D01*
X7538723Y-4767678D01*
X7736641Y-4639640D01*
X7741528Y-4635194D01*
X7907167Y-4484473D01*
X7907168Y-4484471D01*
X7910989Y-4480995D01*
X7914188Y-4476944D01*
X7914192Y-4476940D01*
X8053883Y-4300061D01*
X8053885Y-4300057D01*
X8057085Y-4296006D01*
X8069584Y-4273365D01*
X8092660Y-4231562D01*
X8171005Y-4089639D01*
X8180794Y-4061998D01*
X8247965Y-3872311D01*
X8247966Y-3872307D01*
X8249691Y-3867436D01*
X8250599Y-3862340D01*
X8290123Y-3640456D01*
X8290124Y-3640450D01*
X8291029Y-3635367D01*
X8293909Y-3399661D01*
X8258253Y-3166651D01*
X8185020Y-2942593D01*
X8076175Y-2733504D01*
X8057415Y-2708517D01*
X7937747Y-2549135D01*
X7937743Y-2549130D01*
X7934642Y-2545000D01*
X7826232Y-2441400D01*
X7767960Y-2385714D01*
X7767959Y-2385713D01*
X7764223Y-2382143D01*
X7569492Y-2249307D01*
X7564808Y-2247133D01*
X7564805Y-2247131D01*
X7360372Y-2152236D01*
X7360367Y-2152234D01*
X7355681Y-2150059D01*
X7128532Y-2087065D01*
X7123395Y-2086516D01*
X6939437Y-2066856D01*
X6939429Y-2066856D01*
X6936102Y-2066500D01*
X5601243Y-2066500D01*
X5598670Y-2066712D01*
X5598659Y-2066712D01*
X5431221Y-2080478D01*
X5431215Y-2080479D01*
X5426070Y-2080902D01*
X5197449Y-2138327D01*
X4981277Y-2232322D01*
X4783359Y-2360360D01*
X4779536Y-2363839D01*
X4779533Y-2363841D01*
X4617947Y-2510874D01*
X4609011Y-2519005D01*
X4605812Y-2523056D01*
X4605808Y-2523060D01*
X4541202Y-2604865D01*
X4525525Y-2624717D01*
X4497787Y-2659839D01*
X4439870Y-2700902D01*
X4368947Y-2704134D01*
X4317075Y-2677558D01*
X4143182Y-2529040D01*
X4143178Y-2529037D01*
X4139416Y-2525824D01*
X4135201Y-2523241D01*
X4135193Y-2523235D01*
X4000104Y-2440452D01*
X3952473Y-2387805D01*
X3940866Y-2317763D01*
X3947957Y-2288791D01*
X3991471Y-2172718D01*
X3991473Y-2172712D01*
X3994245Y-2165316D01*
X4001000Y-2103134D01*
X4001000Y-6866D01*
X3994245Y55316D01*
X3943115Y191705D01*
X3855761Y308261D01*
X3739205Y395615D01*
X3602816Y446745D01*
X3540634Y453500D01*
X1539366Y453500D01*
X1477184Y446745D01*
X1340795Y395615D01*
X1224239Y308261D01*
X1136885Y191705D01*
X1129427Y171811D01*
X1086787Y115047D01*
X1020226Y90346D01*
X950877Y105553D01*
X933353Y117158D01*
X815330Y210367D01*
X815325Y210370D01*
X811276Y213568D01*
X806760Y216061D01*
X806757Y216063D01*
X605474Y327177D01*
X605470Y327179D01*
X600950Y329674D01*
X596081Y331398D01*
X596077Y331400D01*
X379360Y408144D01*
X379356Y408145D01*
X374485Y409870D01*
X369392Y410777D01*
X369389Y410778D01*
X143052Y451095D01*
X143046Y451096D01*
X137963Y452001D01*
X45474Y453131D01*
X-97093Y454873D01*
X-97095Y454873D01*
X-102263Y454936D01*
X-339744Y418596D01*
X-451997Y381906D01*
X-563183Y345566D01*
X-563189Y345563D01*
X-568101Y343958D01*
X-572687Y341571D01*
X-572691Y341569D01*
X-767031Y240401D01*
X-781200Y233025D01*
X-800356Y218642D01*
X-911221Y135402D01*
X-973320Y88777D01*
X-976892Y85039D01*
X-1089009Y-32285D01*
X-1139301Y-84912D01*
X-1164840Y-122351D01*
X-1219751Y-167352D01*
X-1290275Y-175523D01*
X-1354022Y-144269D01*
X-1374716Y-119790D01*
X-1376085Y-117674D01*
X-1382378Y-109502D01*
X-1537050Y60480D01*
X-1544583Y67506D01*
X-1724944Y209945D01*
X-1733531Y215650D01*
X-1934722Y326714D01*
X-1944134Y330944D01*
X-2160768Y407659D01*
X-2170739Y410293D01*
X-2268163Y427647D01*
X-2281460Y426187D01*
X-2286000Y411630D01*
X-2286000Y-1183000D01*
X-2306002Y-1251121D01*
X-2359658Y-1297614D01*
X-2412000Y-1309000D01*
X-3970412Y-1309000D01*
X-3985141Y-1313325D01*
X-3987202Y-1325111D01*
X-3986249Y-1336704D01*
X-3984567Y-1346866D01*
X-3928578Y-1569771D01*
X-3925259Y-1579519D01*
X-3833615Y-1790289D01*
X-3828749Y-1799364D01*
X-3703915Y-1992327D01*
X-3697627Y-2000491D01*
X-3612789Y-2093727D01*
X-3581738Y-2157573D01*
X-3590133Y-2228072D01*
X-3635309Y-2282840D01*
X-3676570Y-2301046D01*
X-3712779Y-2309739D01*
X-3717594Y-2310895D01*
X-3722165Y-2312788D01*
X-3722167Y-2312789D01*
X-3932389Y-2399865D01*
X-3932393Y-2399867D01*
X-3936963Y-2401760D01*
X-3941183Y-2404346D01*
X-4135202Y-2523241D01*
X-4135208Y-2523245D01*
X-4139416Y-2525824D01*
X-4143170Y-2529031D01*
X-4143182Y-2529039D01*
X-4305681Y-2667827D01*
X-4370470Y-2696858D01*
X-4440670Y-2686253D01*
X-4488271Y-2647670D01*
X-4505505Y-2624717D01*
X-4565358Y-2545000D01*
X-4673768Y-2441400D01*
X-4732040Y-2385714D01*
X-4732041Y-2385713D01*
X-4735777Y-2382143D01*
X-4930508Y-2249307D01*
X-4935192Y-2247133D01*
X-4935195Y-2247131D01*
X-5139628Y-2152236D01*
X-5139633Y-2152234D01*
X-5144319Y-2150059D01*
X-5371468Y-2087065D01*
X-5376605Y-2086516D01*
X-5560563Y-2066856D01*
X-5560571Y-2066856D01*
X-5563898Y-2066500D01*
X-6898757Y-2066500D01*
X-6901330Y-2066712D01*
X-6901341Y-2066712D01*
X-7068779Y-2080478D01*
X-7068785Y-2080479D01*
X-7073930Y-2080902D01*
X-7302551Y-2138327D01*
X-7518723Y-2232322D01*
X-7716641Y-2360360D01*
X-7720464Y-2363839D01*
X-7720467Y-2363841D01*
X-7882053Y-2510874D01*
X-7890989Y-2519005D01*
X-7894188Y-2523056D01*
X-7894192Y-2523060D01*
X-8033288Y-2699186D01*
X-8037085Y-2703994D01*
X-8151005Y-2910361D01*
X-8152729Y-2915230D01*
X-8152731Y-2915234D01*
X-8209058Y-3074297D01*
X-8229691Y-3132564D01*
X-8230598Y-3137657D01*
X-8230599Y-3137660D01*
X-8257239Y-3287218D01*
X-8271029Y-3364633D01*
X-8273909Y-3600339D01*
X-8238253Y-3833349D01*
X-8165020Y-4057407D01*
X-8162630Y-4061998D01*
X-8071688Y-4236695D01*
X-8056175Y-4266496D01*
X-8053072Y-4270629D01*
X-8053070Y-4270632D01*
X-7928185Y-4436963D01*
X-7914642Y-4455000D01*
X-7910904Y-4458572D01*
X-7752323Y-4610116D01*
X-7744223Y-4617857D01*
X-7549492Y-4750693D01*
X-7544808Y-4752867D01*
X-7544805Y-4752869D01*
X-7340372Y-4847764D01*
X-7340367Y-4847766D01*
X-7335681Y-4849941D01*
X-7108532Y-4912935D01*
X-7103395Y-4913484D01*
X-6919437Y-4933144D01*
X-6919429Y-4933144D01*
X-6916102Y-4933500D01*
X-5581243Y-4933500D01*
X-5578670Y-4933288D01*
X-5578659Y-4933288D01*
X-5411221Y-4919522D01*
X-5411215Y-4919521D01*
X-5406070Y-4919098D01*
X-5177449Y-4861673D01*
X-4961277Y-4767678D01*
X-4763359Y-4639640D01*
X-4759533Y-4636159D01*
X-4690263Y-4573128D01*
X-4626417Y-4542076D01*
X-4555919Y-4550472D01*
X-4498032Y-4600487D01*
X-4492131Y-4610116D01*
X-4474176Y-4639416D01*
X-4438526Y-4681156D01*
X-4438200Y-4681538D01*
X-4409169Y-4746328D01*
X-4419774Y-4816528D01*
X-4461739Y-4866581D01*
X-4513047Y-4902508D01*
X-4521424Y-4912988D01*
X-4514356Y-4926434D01*
X-3529885Y-5910905D01*
X-3495859Y-5973217D01*
X-3500924Y-6044032D01*
X-3529885Y-6089095D01*
X-4515077Y-7074287D01*
X-4521507Y-7086062D01*
X-4512211Y-7098077D01*
X-4461328Y-7133706D01*
X-4417000Y-7189164D01*
X-4409691Y-7259783D01*
X-4437788Y-7318750D01*
X-4470560Y-7357120D01*
X-4476355Y-7365097D01*
X-4497433Y-7399492D01*
X-4550081Y-7447123D01*
X-4620123Y-7458729D01*
X-4685320Y-7430625D01*
X-4691917Y-7424749D01*
X-4732356Y-7386104D01*
X-4740362Y-7379621D01*
X-4926485Y-7252657D01*
X-4935444Y-7247568D01*
X-5139807Y-7152706D01*
X-5149475Y-7149149D01*
X-5366580Y-7088940D01*
X-5376699Y-7087009D01*
X-5560595Y-7067356D01*
X-5567287Y-7067000D01*
X-5967885Y-7067000D01*
X-5983124Y-7071475D01*
X-5984329Y-7072865D01*
X-5986000Y-7080548D01*
X-5986000Y-8628000D01*
X-6006002Y-8696121D01*
X-6059658Y-8742614D01*
X-6112000Y-8754000D01*
X-6368000Y-8754000D01*
X-6436121Y-8733998D01*
X-6482614Y-8680342D01*
X-6494000Y-8628000D01*
X-6494000Y-7085115D01*
X-6498475Y-7069876D01*
X-6499865Y-7068671D01*
X-6507548Y-7067000D01*
X-6896145Y-7067000D01*
X-6901318Y-7067212D01*
X-7068687Y-7080973D01*
X-7078867Y-7082658D01*
X-7297377Y-7137544D01*
X-7307134Y-7140866D01*
X-7349679Y-7159365D01*
X-7420126Y-7168186D01*
X-7484158Y-7137520D01*
X-7508372Y-7107961D01*
X-7512811Y-7100456D01*
X-7521508Y-7082704D01*
X-7528968Y-7063863D01*
X-7554956Y-7028093D01*
X-7561472Y-7018173D01*
X-7579940Y-6986945D01*
X-7579942Y-6986942D01*
X-7583978Y-6980118D01*
X-7598299Y-6965797D01*
X-7611140Y-6950763D01*
X-7618389Y-6940786D01*
X-7623048Y-6934373D01*
X-7657125Y-6906182D01*
X-7665904Y-6898192D01*
X-8558621Y-6005475D01*
X-5112517Y-6005475D01*
X-5093528Y-6222519D01*
X-5091625Y-6233312D01*
X-5035236Y-6443761D01*
X-5031490Y-6454053D01*
X-4939414Y-6651511D01*
X-4933931Y-6661006D01*
X-4897491Y-6713048D01*
X-4887012Y-6721424D01*
X-4873566Y-6714356D01*
X-4172022Y-6012812D01*
X-4164408Y-5998868D01*
X-4164539Y-5997035D01*
X-4168790Y-5990420D01*
X-4874287Y-5284923D01*
X-4886062Y-5278493D01*
X-4898077Y-5287789D01*
X-4933931Y-5338994D01*
X-4939414Y-5348489D01*
X-5031490Y-5545947D01*
X-5035236Y-5556239D01*
X-5091625Y-5766688D01*
X-5093528Y-5777481D01*
X-5112517Y-5994525D01*
X-5112517Y-6005475D01*
X-8558621Y-6005475D01*
X-9838782Y-4725313D01*
X-9872808Y-4663001D01*
X-9870245Y-4599589D01*
X-9867939Y-4592001D01*
X-9857630Y-4558069D01*
X-9828471Y-4336590D01*
X-9826844Y-4270000D01*
X-9845148Y-4047361D01*
X-9899569Y-3830702D01*
X-9988646Y-3625840D01*
X-10046348Y-3536646D01*
X-10107178Y-3442617D01*
X-10107180Y-3442614D01*
X-10109986Y-3438277D01*
X-10140420Y-3404830D01*
X-10257202Y-3276488D01*
X-10288254Y-3212642D01*
X-10279859Y-3142143D01*
X-10234683Y-3087375D01*
X-10208239Y-3073706D01*
X-10101703Y-3033767D01*
X-10093295Y-3030615D01*
X-9976739Y-2943261D01*
X-9889385Y-2826705D01*
X-9838255Y-2690316D01*
X-9831500Y-2628134D01*
X-9831500Y-831866D01*
X-9836810Y-782987D01*
X-3984901Y-782987D01*
X-3982253Y-797608D01*
X-3969876Y-801000D01*
X-2812115Y-801000D01*
X-2796876Y-796525D01*
X-2795671Y-795135D01*
X-2794000Y-787452D01*
X-2794000Y413096D01*
X-2797918Y426440D01*
X-2812194Y428427D01*
X-2874515Y418890D01*
X-2884543Y416501D01*
X-3102988Y345102D01*
X-3112497Y341105D01*
X-3316344Y234989D01*
X-3325069Y229495D01*
X-3508852Y91507D01*
X-3516559Y84664D01*
X-3675339Y-81491D01*
X-3681826Y-89501D01*
X-3811330Y-279347D01*
X-3816429Y-288321D01*
X-3913187Y-496769D01*
X-3916750Y-506456D01*
X-3978165Y-727908D01*
X-3980096Y-738030D01*
X-3984901Y-782987D01*
X-9836810Y-782987D01*
X-9838255Y-769684D01*
X-9889385Y-633295D01*
X-9976739Y-516739D01*
X-10093295Y-429385D01*
X-10229684Y-378255D01*
X-10291866Y-371500D01*
X-12088134Y-371500D01*
X-12150316Y-378255D01*
X-12286705Y-429385D01*
X-12403261Y-516739D01*
X-12490615Y-633295D01*
X-12541745Y-769684D01*
X-12548500Y-831866D01*
X-12548500Y-1711406D01*
X-12568502Y-1779527D01*
X-12622158Y-1826020D01*
X-12692432Y-1836124D01*
X-12757012Y-1806630D01*
X-12763595Y-1800501D01*
X-14755800Y191705D01*
X-16956348Y2392253D01*
X-16963888Y2400539D01*
X-16968000Y2407018D01*
X-17017652Y2453644D01*
X-17020493Y2456398D01*
X-17040230Y2476135D01*
X-17043427Y2478615D01*
X-17052449Y2486320D01*
X-17084679Y2516586D01*
X-17091625Y2520405D01*
X-17091628Y2520407D01*
X-17102434Y2526348D01*
X-17118953Y2537199D01*
X-17127251Y2543635D01*
X-17134959Y2549614D01*
X-17142228Y2552759D01*
X-17142232Y2552762D01*
X-17175537Y2567174D01*
X-17186187Y2572391D01*
X-17224940Y2593695D01*
X-17244563Y2598733D01*
X-17263266Y2605137D01*
X-17274580Y2610033D01*
X-17274581Y2610033D01*
X-17281855Y2613181D01*
X-17289678Y2614420D01*
X-17289688Y2614423D01*
X-17325524Y2620099D01*
X-17337144Y2622505D01*
X-17372289Y2631528D01*
X-17372290Y2631528D01*
X-17379970Y2633500D01*
X-17400224Y2633500D01*
X-17419935Y2635051D01*
X-17432114Y2636980D01*
X-17439943Y2638220D01*
X-17447835Y2637474D01*
X-17483961Y2634059D01*
X-17495819Y2633500D01*
X-17516405Y2633500D01*
X-17584526Y2653502D01*
X-17631019Y2707158D01*
X-17641123Y2777432D01*
X-17611629Y2842012D01*
X-17605500Y2848595D01*
X-17599989Y2854106D01*
X-17537677Y2888132D01*
X-17510894Y2891011D01*
X-8318553Y2891011D01*
X-8250432Y2871009D01*
X-8203939Y2817353D01*
X-8193835Y2747079D01*
X-8202356Y2716286D01*
X-8272943Y2547955D01*
X-8272945Y2547949D01*
X-8274754Y2543635D01*
X-8275905Y2539103D01*
X-8275906Y2539100D01*
X-8297269Y2454984D01*
X-8337262Y2297510D01*
X-8362704Y2044849D01*
X-8350520Y1791202D01*
X-8300979Y1542143D01*
X-8299400Y1537745D01*
X-8299398Y1537738D01*
X-8254978Y1414020D01*
X-8215169Y1303142D01*
X-8094975Y1079449D01*
X-8092180Y1075706D01*
X-8092178Y1075703D01*
X-7945829Y879718D01*
X-7945824Y879712D01*
X-7943037Y875980D01*
X-7939728Y872700D01*
X-7939723Y872694D01*
X-7766010Y700491D01*
X-7762693Y697203D01*
X-7758931Y694445D01*
X-7758928Y694442D01*
X-7653236Y616946D01*
X-7557906Y547047D01*
X-7553771Y544871D01*
X-7553767Y544869D01*
X-7540365Y537818D01*
X-7333173Y428809D01*
X-7237518Y395405D01*
X-7104551Y348971D01*
X-7093432Y345088D01*
X-6843950Y297722D01*
X-6723468Y292989D01*
X-6594875Y287936D01*
X-6594870Y287936D01*
X-6590207Y287753D01*
X-6491226Y298593D01*
X-6342431Y314888D01*
X-6342425Y314889D01*
X-6337778Y315398D01*
X-6332080Y316898D01*
X-6096727Y378862D01*
X-6092207Y380052D01*
X-5926848Y451095D01*
X-5863193Y478443D01*
X-5863190Y478445D01*
X-5858890Y480292D01*
X-5854910Y482755D01*
X-5854906Y482757D01*
X-5646936Y611453D01*
X-5646934Y611455D01*
X-5642953Y613918D01*
X-5544572Y697203D01*
X-5452711Y774969D01*
X-5452709Y774971D01*
X-5449138Y777994D01*
X-5281705Y968916D01*
X-5144331Y1182488D01*
X-5040033Y1414020D01*
X-4971104Y1658425D01*
X-4939057Y1910333D01*
X-4936709Y2000000D01*
X-4955528Y2253241D01*
X-4988396Y2398498D01*
X-5010541Y2496361D01*
X-5011572Y2500918D01*
X-5015554Y2511159D01*
X-5096513Y2719344D01*
X-5102560Y2790082D01*
X-5069404Y2852861D01*
X-5007570Y2887748D01*
X-4979080Y2891011D01*
X5545895Y2891011D01*
X5614016Y2871009D01*
X5634990Y2854106D01*
X8989595Y-500500D01*
X9023621Y-562812D01*
X9026500Y-589595D01*
X9026500Y-1898134D01*
X9033255Y-1960316D01*
X9084385Y-2096705D01*
X9171739Y-2213261D01*
X9288295Y-2300615D01*
X9296704Y-2303767D01*
X9296705Y-2303768D01*
X9405451Y-2344535D01*
X9462216Y-2387176D01*
X9486916Y-2453738D01*
X9471709Y-2523087D01*
X9452316Y-2549568D01*
X9325629Y-2682138D01*
X9199743Y-2866680D01*
X9105688Y-3069305D01*
X9045989Y-3284570D01*
X9022251Y-3506695D01*
X9022548Y-3511848D01*
X9022548Y-3511851D01*
X9029670Y-3635367D01*
X9035110Y-3729715D01*
X9036247Y-3734761D01*
X9036248Y-3734767D01*
X9054484Y-3815682D01*
X9084222Y-3947639D01*
X9168266Y-4154616D01*
X9170965Y-4159020D01*
X9281813Y-4339908D01*
X9284987Y-4345088D01*
X9431250Y-4513938D01*
X9603126Y-4656632D01*
X9796000Y-4769338D01*
X10004692Y-4849030D01*
X10009760Y-4850061D01*
X10009763Y-4850062D01*
X10090957Y-4866581D01*
X10223597Y-4893567D01*
X10228772Y-4893757D01*
X10228774Y-4893757D01*
X10441673Y-4901564D01*
X10441677Y-4901564D01*
X10446837Y-4901753D01*
X10451957Y-4901097D01*
X10451959Y-4901097D01*
X10663288Y-4874025D01*
X10663289Y-4874025D01*
X10668416Y-4873368D01*
X10703201Y-4862932D01*
X10877429Y-4810661D01*
X10877434Y-4810659D01*
X10882384Y-4809174D01*
X11082994Y-4710896D01*
X11264860Y-4581173D01*
X11295669Y-4550472D01*
X11346209Y-4500107D01*
X11423096Y-4423489D01*
X11482594Y-4340689D01*
X11550435Y-4246277D01*
X11553453Y-4242077D01*
X11567932Y-4212782D01*
X11650136Y-4046453D01*
X11650137Y-4046451D01*
X11652430Y-4041811D01*
X11714273Y-3838264D01*
X11715865Y-3833023D01*
X11715865Y-3833021D01*
X11717370Y-3828069D01*
X11746529Y-3606590D01*
X11748156Y-3540000D01*
X11729852Y-3317361D01*
X11675431Y-3100702D01*
X11586354Y-2895840D01*
X11481334Y-2733504D01*
X11467822Y-2712617D01*
X11467820Y-2712614D01*
X11465014Y-2708277D01*
X11461117Y-2703994D01*
X11317798Y-2546488D01*
X11286746Y-2482642D01*
X11295141Y-2412143D01*
X11340317Y-2357375D01*
X11366761Y-2343706D01*
X11473297Y-2303767D01*
X11481705Y-2300615D01*
X11598261Y-2213261D01*
X11685615Y-2096705D01*
X11691068Y-2082161D01*
X11728087Y-1983411D01*
X11770728Y-1926646D01*
X11837290Y-1901946D01*
X11906639Y-1917153D01*
X11941306Y-1945142D01*
X11962865Y-1970031D01*
X11962869Y-1970035D01*
X11966250Y-1973938D01*
X12138126Y-2116632D01*
X12331000Y-2229338D01*
X12335825Y-2231180D01*
X12335826Y-2231181D01*
X12377595Y-2247131D01*
X12539692Y-2309030D01*
X12544760Y-2310061D01*
X12544763Y-2310062D01*
X12611148Y-2323568D01*
X12758597Y-2353567D01*
X12763772Y-2353757D01*
X12763774Y-2353757D01*
X12976673Y-2361564D01*
X12976677Y-2361564D01*
X12981837Y-2361753D01*
X12986957Y-2361097D01*
X12986959Y-2361097D01*
X13198288Y-2334025D01*
X13198289Y-2334025D01*
X13203416Y-2333368D01*
X13208366Y-2331883D01*
X13412429Y-2270661D01*
X13412434Y-2270659D01*
X13417384Y-2269174D01*
X13617994Y-2170896D01*
X13799860Y-2041173D01*
X13812569Y-2028509D01*
X13898737Y-1942641D01*
X13958096Y-1883489D01*
X13999392Y-1826020D01*
X14088453Y-1702077D01*
X14089640Y-1702930D01*
X14136960Y-1659362D01*
X14206897Y-1647145D01*
X14272338Y-1674678D01*
X14300166Y-1706511D01*
X14357694Y-1800388D01*
X14363777Y-1808699D01*
X14503213Y-1969667D01*
X14510580Y-1976883D01*
X14674434Y-2112916D01*
X14682881Y-2118831D01*
X14866756Y-2226279D01*
X14876042Y-2230729D01*
X15075001Y-2306703D01*
X15084899Y-2309579D01*
X15188250Y-2330606D01*
X15202299Y-2329410D01*
X15206000Y-2319065D01*
X15206000Y-2318517D01*
X15714000Y-2318517D01*
X15718064Y-2332359D01*
X15731478Y-2334393D01*
X15738184Y-2333534D01*
X15748262Y-2331392D01*
X15952255Y-2270191D01*
X15961842Y-2266433D01*
X16153095Y-2172739D01*
X16161945Y-2167464D01*
X16335328Y-2043792D01*
X16343193Y-2037145D01*
X16447897Y-1932805D01*
X16510268Y-1898889D01*
X16581075Y-1904077D01*
X16637837Y-1946723D01*
X16654819Y-1977826D01*
X16670818Y-2020502D01*
X16699385Y-2096705D01*
X16786739Y-2213261D01*
X16903295Y-2300615D01*
X17039684Y-2351745D01*
X17101866Y-2358500D01*
X18898134Y-2358500D01*
X18960316Y-2351745D01*
X19096705Y-2300615D01*
X19213261Y-2213261D01*
X19300615Y-2096705D01*
X19351745Y-1960316D01*
X19358500Y-1898134D01*
X19358500Y-101866D01*
X19351745Y-39684D01*
X19300615Y96705D01*
X19213261Y213261D01*
X19096705Y300615D01*
X18960316Y351745D01*
X18898134Y358500D01*
X17101866Y358500D01*
X17039684Y351745D01*
X16903295Y300615D01*
X16786739Y213261D01*
X16699385Y96705D01*
X16696233Y88297D01*
X16696232Y88295D01*
X16654722Y-22433D01*
X16612081Y-79198D01*
X16545519Y-103898D01*
X16476170Y-88691D01*
X16443546Y-63004D01*
X16392799Y-7234D01*
X16385273Y-215D01*
X16218139Y131778D01*
X16209552Y137483D01*
X16023117Y240401D01*
X16013705Y244631D01*
X15812959Y315720D01*
X15802988Y318354D01*
X15731837Y331028D01*
X15718540Y329568D01*
X15714000Y315011D01*
X15714000Y-2318517D01*
X15206000Y-2318517D01*
X15206000Y316898D01*
X15202082Y330242D01*
X15187806Y332229D01*
X15149324Y326340D01*
X15139288Y323949D01*
X14936868Y257788D01*
X14927359Y253791D01*
X14738463Y155458D01*
X14729738Y149964D01*
X14559433Y22095D01*
X14551726Y15252D01*
X14404590Y-138717D01*
X14398109Y-146722D01*
X14293498Y-300074D01*
X14238587Y-345076D01*
X14168062Y-353247D01*
X14104315Y-321993D01*
X14083618Y-297509D01*
X14002822Y-172617D01*
X14002820Y-172614D01*
X14000014Y-168277D01*
X13849670Y-3051D01*
X13845619Y148D01*
X13845615Y152D01*
X13678414Y132200D01*
X13678410Y132202D01*
X13674359Y135402D01*
X13638028Y155458D01*
X13559348Y198891D01*
X13478789Y243362D01*
X13473920Y245086D01*
X13473916Y245088D01*
X13273087Y316205D01*
X13273083Y316206D01*
X13268212Y317931D01*
X13263119Y318838D01*
X13263116Y318839D01*
X13053373Y356200D01*
X13053367Y356201D01*
X13048284Y357106D01*
X12974452Y358008D01*
X12830081Y359772D01*
X12830079Y359772D01*
X12824911Y359835D01*
X12604091Y326045D01*
X12391756Y256643D01*
X12193607Y153493D01*
X12189474Y150390D01*
X12189471Y150388D01*
X12069725Y60480D01*
X12014965Y19365D01*
X12011393Y15627D01*
X11937874Y-61306D01*
X11876350Y-96736D01*
X11805437Y-93279D01*
X11747651Y-52033D01*
X11728798Y-18485D01*
X11688767Y88297D01*
X11685615Y96705D01*
X11598261Y213261D01*
X11481705Y300615D01*
X11345316Y351745D01*
X11283134Y358500D01*
X9974594Y358500D01*
X9906473Y378502D01*
X9885499Y395405D01*
X6364141Y3916764D01*
X6356601Y3925050D01*
X6352489Y3931529D01*
X6302837Y3978155D01*
X6299996Y3980909D01*
X6280259Y4000646D01*
X6277062Y4003126D01*
X6268040Y4010831D01*
X6254611Y4023442D01*
X6235810Y4041097D01*
X6228864Y4044916D01*
X6228861Y4044918D01*
X6218055Y4050859D01*
X6201536Y4061710D01*
X6197824Y4064589D01*
X6185530Y4074125D01*
X6178261Y4077270D01*
X6178257Y4077273D01*
X6144952Y4091685D01*
X6134302Y4096902D01*
X6095549Y4118206D01*
X6075926Y4123244D01*
X6057223Y4129648D01*
X6045909Y4134544D01*
X6045908Y4134544D01*
X6038634Y4137692D01*
X6030811Y4138931D01*
X6030801Y4138934D01*
X5994965Y4144610D01*
X5983345Y4147016D01*
X5948200Y4156039D01*
X5948199Y4156039D01*
X5940519Y4158011D01*
X5920265Y4158011D01*
X5900554Y4159562D01*
X5888375Y4161491D01*
X5880546Y4162731D01*
X5851275Y4159964D01*
X5836528Y4158570D01*
X5824670Y4158011D01*
X1904646Y4158011D01*
X1836525Y4178013D01*
X1790032Y4231669D01*
X1779928Y4301943D01*
X1809422Y4366523D01*
X1836022Y4389684D01*
X2121159Y4574854D01*
X2123934Y4576656D01*
X2417871Y4814682D01*
X2685318Y5082129D01*
X2923344Y5376066D01*
X3129341Y5693274D01*
X3133688Y5701804D01*
X3299555Y6027337D01*
X3301053Y6030277D01*
X3436597Y6383382D01*
X3534489Y6748721D01*
X3565918Y6947158D01*
X3593143Y7119043D01*
X3593144Y7119051D01*
X3593657Y7122291D01*
X3613452Y7500000D01*
X11386548Y7500000D01*
X11406343Y7122291D01*
X11406856Y7119051D01*
X11406857Y7119043D01*
X11434082Y6947158D01*
X11465511Y6748721D01*
X11563403Y6383382D01*
X11698947Y6030277D01*
X11700445Y6027337D01*
X11866313Y5701804D01*
X11870659Y5693274D01*
X12076656Y5376066D01*
X12314682Y5082129D01*
X12582129Y4814682D01*
X12876066Y4576656D01*
X13193274Y4370659D01*
X13196208Y4369164D01*
X13196215Y4369160D01*
X13526157Y4201046D01*
X13530277Y4198947D01*
X13718459Y4126711D01*
X13868101Y4069269D01*
X13883382Y4063403D01*
X14248721Y3965511D01*
X14429022Y3936954D01*
X14619043Y3906857D01*
X14619051Y3906856D01*
X14622291Y3906343D01*
X14905511Y3891500D01*
X15094489Y3891500D01*
X15377709Y3906343D01*
X15380949Y3906856D01*
X15380957Y3906857D01*
X15570978Y3936954D01*
X15751279Y3965511D01*
X16116618Y4063403D01*
X16131900Y4069269D01*
X16281541Y4126711D01*
X16469723Y4198947D01*
X16473843Y4201046D01*
X16803785Y4369160D01*
X16803792Y4369164D01*
X16806726Y4370659D01*
X17123934Y4576656D01*
X17417871Y4814682D01*
X17685318Y5082129D01*
X17923344Y5376066D01*
X18129341Y5693274D01*
X18133688Y5701804D01*
X18299555Y6027337D01*
X18301053Y6030277D01*
X18436597Y6383382D01*
X18534489Y6748721D01*
X18565918Y6947158D01*
X18593143Y7119043D01*
X18593144Y7119051D01*
X18593657Y7122291D01*
X18613452Y7500000D01*
X18593657Y7877709D01*
X18583232Y7943534D01*
X18565918Y8052842D01*
X18534489Y8251279D01*
X18436597Y8616618D01*
X18301053Y8969723D01*
X18211794Y9144904D01*
X18130840Y9303785D01*
X18130836Y9303792D01*
X18129341Y9306726D01*
X18063934Y9407445D01*
X17925146Y9621159D01*
X17923344Y9623934D01*
X17685318Y9917871D01*
X17417871Y10185318D01*
X17123934Y10423344D01*
X16806726Y10629341D01*
X16803792Y10630836D01*
X16803785Y10630840D01*
X16472663Y10799555D01*
X16469723Y10801053D01*
X16116618Y10936597D01*
X15751279Y11034489D01*
X15517135Y11071574D01*
X15380957Y11093143D01*
X15380949Y11093144D01*
X15377709Y11093657D01*
X15094489Y11108500D01*
X14905511Y11108500D01*
X14622291Y11093657D01*
X14619051Y11093144D01*
X14619043Y11093143D01*
X14482865Y11071574D01*
X14248721Y11034489D01*
X13883382Y10936597D01*
X13530277Y10801053D01*
X13527337Y10799555D01*
X13196215Y10630840D01*
X13196208Y10630836D01*
X13193274Y10629341D01*
X12876066Y10423344D01*
X12582129Y10185318D01*
X12314682Y9917871D01*
X12076656Y9623934D01*
X12074854Y9621159D01*
X11936067Y9407445D01*
X11870659Y9306726D01*
X11869164Y9303792D01*
X11869160Y9303785D01*
X11788206Y9144904D01*
X11698947Y8969723D01*
X11563403Y8616618D01*
X11465511Y8251279D01*
X11434082Y8052842D01*
X11416769Y7943534D01*
X11406343Y7877709D01*
X11386548Y7500000D01*
X3613452Y7500000D01*
X3593657Y7877709D01*
X3583232Y7943534D01*
X3565918Y8052842D01*
X3534489Y8251279D01*
X3436597Y8616618D01*
X3301053Y8969723D01*
X3211794Y9144904D01*
X3130840Y9303785D01*
X3130836Y9303792D01*
X3129341Y9306726D01*
X3063934Y9407445D01*
X2925146Y9621159D01*
X2923344Y9623934D01*
X2685318Y9917871D01*
X2417871Y10185318D01*
X2123934Y10423344D01*
X1806726Y10629341D01*
X1803792Y10630836D01*
X1803785Y10630840D01*
X1472663Y10799555D01*
X1469723Y10801053D01*
X1116618Y10936597D01*
X751279Y11034489D01*
X517135Y11071574D01*
X380957Y11093143D01*
X380949Y11093144D01*
X377709Y11093657D01*
X94489Y11108500D01*
X-94489Y11108500D01*
X-377709Y11093657D01*
X-380949Y11093144D01*
X-380957Y11093143D01*
X-517135Y11071574D01*
X-751279Y11034489D01*
X-1116618Y10936597D01*
X-1469723Y10801053D01*
X-1472663Y10799555D01*
X-1803785Y10630840D01*
X-1803792Y10630836D01*
X-1806726Y10629341D01*
X-2123934Y10423344D01*
X-2417871Y10185318D01*
X-2685318Y9917871D01*
X-2923344Y9623934D01*
X-2925146Y9621159D01*
X-3063933Y9407445D01*
X-3129341Y9306726D01*
X-3130836Y9303792D01*
X-3130840Y9303785D01*
X-3211794Y9144904D01*
X-3301053Y8969723D01*
X-3436597Y8616618D01*
X-3534489Y8251279D01*
X-3565918Y8052842D01*
X-3583231Y7943534D01*
X-3593657Y7877709D01*
X-3613452Y7500000D01*
X-3593657Y7122291D01*
X-3593144Y7119051D01*
X-3593143Y7119043D01*
X-3565918Y6947158D01*
X-3534489Y6748721D01*
X-3436597Y6383382D01*
X-3301053Y6030277D01*
X-3299555Y6027337D01*
X-3133687Y5701804D01*
X-3129341Y5693274D01*
X-2923344Y5376066D01*
X-2685318Y5082129D01*
X-2417871Y4814682D01*
X-2123934Y4576656D01*
X-2121159Y4574854D01*
X-1836022Y4389684D01*
X-1789785Y4335807D01*
X-1780015Y4265486D01*
X-1809815Y4201046D01*
X-1869723Y4162947D01*
X-1904646Y4158011D01*
X-17746722Y4158011D01*
X-17757905Y4158538D01*
X-17765398Y4160213D01*
X-17773324Y4159964D01*
X-17773325Y4159964D01*
X-17833475Y4158073D01*
X-17837434Y4158011D01*
X-17865345Y4158011D01*
X-17869279Y4157514D01*
X-17869280Y4157514D01*
X-17869345Y4157506D01*
X-17881182Y4156573D01*
X-17912999Y4155573D01*
X-17917460Y4155433D01*
X-17925379Y4155184D01*
X-17943035Y4150055D01*
X-17944831Y4149533D01*
X-17964183Y4145525D01*
X-17971254Y4144631D01*
X-17984286Y4142985D01*
X-17991655Y4140068D01*
X-17991657Y4140067D01*
X-18025392Y4126711D01*
X-18036620Y4122866D01*
X-18079082Y4110529D01*
X-18085905Y4106494D01*
X-18085907Y4106493D01*
X-18096517Y4100218D01*
X-18114265Y4091523D01*
X-18133106Y4084063D01*
X-18139522Y4079401D01*
X-18139523Y4079401D01*
X-18168876Y4058075D01*
X-18178796Y4051559D01*
X-18210024Y4033091D01*
X-18210027Y4033089D01*
X-18216851Y4029053D01*
X-18231172Y4014732D01*
X-18246205Y4001892D01*
X-18262596Y3989983D01*
X-18271272Y3979495D01*
X-18290787Y3955906D01*
X-18298777Y3947127D01*
X-18615360Y3630544D01*
X-18677672Y3596518D01*
X-18742868Y3599637D01*
X-18945595Y3664530D01*
X-18945593Y3664530D01*
X-18950040Y3665953D01*
X-18954645Y3666703D01*
X-19196065Y3706020D01*
X-19196066Y3706020D01*
X-19200677Y3706771D01*
X-19327636Y3708433D01*
X-19449917Y3710034D01*
X-19449920Y3710034D01*
X-19454594Y3710095D01*
X-19706213Y3675851D01*
X-19950007Y3604792D01*
X-20180620Y3498478D01*
X-20184529Y3495915D01*
X-20296415Y3422559D01*
X-20364350Y3401936D01*
X-20432651Y3421316D01*
X-20479631Y3474545D01*
X-20491500Y3527931D01*
X-20491500Y7367297D01*
X-17109257Y7367297D01*
X-17071732Y7082266D01*
X-16995871Y6804964D01*
X-16883077Y6540524D01*
X-16871307Y6520858D01*
X-16789029Y6383382D01*
X-16735439Y6293839D01*
X-16555687Y6069472D01*
X-16347149Y5871577D01*
X-16113683Y5703814D01*
X-16109888Y5701805D01*
X-16109887Y5701804D01*
X-16088547Y5690505D01*
X-15859608Y5569288D01*
X-15589627Y5470489D01*
X-15308736Y5409245D01*
X-15280159Y5406996D01*
X-15085718Y5391693D01*
X-15085709Y5391693D01*
X-15083261Y5391500D01*
X-14927729Y5391500D01*
X-14925593Y5391646D01*
X-14925582Y5391646D01*
X-14717452Y5405835D01*
X-14717446Y5405836D01*
X-14713175Y5406127D01*
X-14708980Y5406996D01*
X-14708978Y5406996D01*
X-14572417Y5435276D01*
X-14431658Y5464426D01*
X-14160657Y5560393D01*
X-13905188Y5692250D01*
X-13901687Y5694711D01*
X-13901683Y5694713D01*
X-13787582Y5774905D01*
X-13669977Y5857559D01*
X-13487274Y6027337D01*
X-13462521Y6050339D01*
X-13462519Y6050342D01*
X-13459378Y6053260D01*
X-13277287Y6275732D01*
X-13127073Y6520858D01*
X-13011517Y6784102D01*
X-12932756Y7060594D01*
X-12892249Y7345216D01*
X-12892155Y7363049D01*
X-12890765Y7628417D01*
X-12890765Y7628424D01*
X-12890743Y7632703D01*
X-12928268Y7917734D01*
X-13004129Y8195036D01*
X-13116923Y8459476D01*
X-13209060Y8613426D01*
X-13262357Y8702479D01*
X-13262360Y8702483D01*
X-13264561Y8706161D01*
X-13444313Y8930528D01*
X-13652851Y9128423D01*
X-13886317Y9296186D01*
X-13906223Y9306726D01*
X-13931346Y9320028D01*
X-14140392Y9430712D01*
X-14410373Y9529511D01*
X-14691264Y9590755D01*
X-14722315Y9593199D01*
X-14914282Y9608307D01*
X-14914291Y9608307D01*
X-14916739Y9608500D01*
X-15072271Y9608500D01*
X-15074407Y9608354D01*
X-15074418Y9608354D01*
X-15282548Y9594165D01*
X-15282554Y9594164D01*
X-15286825Y9593873D01*
X-15291020Y9593004D01*
X-15291022Y9593004D01*
X-15427583Y9564724D01*
X-15568342Y9535574D01*
X-15839343Y9439607D01*
X-16094812Y9307750D01*
X-16098313Y9305289D01*
X-16098317Y9305287D01*
X-16212417Y9225096D01*
X-16330023Y9142441D01*
X-16345108Y9128423D01*
X-16519209Y8966638D01*
X-16540622Y8946740D01*
X-16722713Y8724268D01*
X-16872927Y8479142D01*
X-16874653Y8475209D01*
X-16874654Y8475208D01*
X-16878441Y8466580D01*
X-16988483Y8215898D01*
X-17067244Y7939406D01*
X-17107751Y7654784D01*
X-17107773Y7650495D01*
X-17107774Y7650488D01*
X-17109235Y7371583D01*
X-17109257Y7367297D01*
X-20491500Y7367297D01*
X-20491500Y8446750D01*
X-20489754Y8467655D01*
X-20487230Y8482656D01*
X-20487230Y8482659D01*
X-20486424Y8487448D01*
X-20486271Y8500000D01*
X-20486961Y8504816D01*
X-20486961Y8504822D01*
X-20488613Y8516356D01*
X-20489766Y8539716D01*
X-20486547Y8613426D01*
X-20474648Y8885965D01*
X-20473690Y8896914D01*
X-20442882Y9130926D01*
X-20423981Y9274498D01*
X-20422073Y9285315D01*
X-20420218Y9293679D01*
X-20339647Y9657115D01*
X-20336802Y9667732D01*
X-20222285Y10030932D01*
X-20218526Y10041261D01*
X-20072780Y10393123D01*
X-20068138Y10403076D01*
X-19892295Y10740867D01*
X-19886799Y10750387D01*
X-19682180Y11071574D01*
X-19675876Y11080578D01*
X-19444038Y11382716D01*
X-19436972Y11391137D01*
X-19179686Y11671914D01*
X-19171914Y11679686D01*
X-18891137Y11936972D01*
X-18882716Y11944038D01*
X-18580578Y12175876D01*
X-18571574Y12182180D01*
X-18250387Y12386799D01*
X-18240867Y12392295D01*
X-17903067Y12568142D01*
X-17893123Y12572780D01*
X-17541254Y12718529D01*
X-17530939Y12722282D01*
X-17167731Y12836802D01*
X-17157114Y12839647D01*
X-16785307Y12922074D01*
X-16774498Y12923981D01*
X-16396913Y12973690D01*
X-16385965Y12974648D01*
X-16043446Y12989603D01*
X-16018571Y12988223D01*
X-16006276Y12986309D01*
X-15997374Y12987473D01*
X-15997372Y12987473D01*
X-15978601Y12989928D01*
X-15974714Y12990436D01*
X-15958379Y12991500D01*
X15950633Y12991500D01*
X15970018Y12990000D01*
G37*
%TD.AperFunction*%
%TA.AperFunction,Conductor*%
G36*
X-1186580Y-1965722D02*
G01*
X-1165884Y-1990204D01*
X-1161502Y-1996977D01*
X-999814Y-2174670D01*
X-933893Y-2226731D01*
X-815330Y-2320367D01*
X-815325Y-2320370D01*
X-811276Y-2323568D01*
X-806760Y-2326061D01*
X-806757Y-2326063D01*
X-605474Y-2437177D01*
X-605470Y-2437179D01*
X-600950Y-2439674D01*
X-596081Y-2441398D01*
X-596077Y-2441400D01*
X-379360Y-2518144D01*
X-379356Y-2518145D01*
X-374485Y-2519870D01*
X-369392Y-2520777D01*
X-369389Y-2520778D01*
X-143052Y-2561095D01*
X-143046Y-2561096D01*
X-137963Y-2562001D01*
X-50600Y-2563068D01*
X97093Y-2564873D01*
X97095Y-2564873D01*
X102263Y-2564936D01*
X339744Y-2528596D01*
X471356Y-2485579D01*
X542319Y-2483428D01*
X603181Y-2519984D01*
X634617Y-2583642D01*
X636500Y-2605344D01*
X636500Y-4665319D01*
X616498Y-4733440D01*
X568679Y-4777083D01*
X516872Y-4804052D01*
X500256Y-4816528D01*
X344464Y-4933500D01*
X331655Y-4943117D01*
X328083Y-4946855D01*
X313787Y-4961815D01*
X252263Y-4997245D01*
X181351Y-4993788D01*
X123564Y-4952543D01*
X104711Y-4918994D01*
X83324Y-4861946D01*
X74786Y-4846351D01*
X-1715Y-4744276D01*
X-14276Y-4731715D01*
X-116351Y-4655214D01*
X-131946Y-4646676D01*
X-252394Y-4601522D01*
X-267649Y-4597895D01*
X-318514Y-4592369D01*
X-325328Y-4592000D01*
X-997885Y-4592000D01*
X-1013124Y-4596475D01*
X-1014329Y-4597865D01*
X-1016000Y-4605548D01*
X-1016000Y-7337905D01*
X-1036002Y-7406026D01*
X-1052905Y-7427000D01*
X-1574278Y-7948373D01*
X-1636590Y-7982399D01*
X-1707405Y-7977334D01*
X-1764241Y-7934787D01*
X-1785892Y-7888692D01*
X-1810217Y-7787373D01*
X-1813266Y-7777987D01*
X-1894356Y-7582218D01*
X-1901945Y-7511628D01*
X-1870165Y-7448141D01*
X-1809107Y-7411914D01*
X-1777947Y-7408000D01*
X-1542115Y-7408000D01*
X-1526876Y-7403525D01*
X-1525671Y-7402135D01*
X-1524000Y-7394452D01*
X-1524000Y-4610116D01*
X-1528475Y-4594877D01*
X-1529865Y-4593672D01*
X-1537548Y-4592001D01*
X-1777406Y-4592001D01*
X-1845527Y-4571999D01*
X-1892020Y-4518343D01*
X-1902124Y-4448069D01*
X-1893815Y-4417783D01*
X-1812789Y-4222168D01*
X-1812787Y-4222161D01*
X-1810895Y-4217594D01*
X-1773540Y-4061998D01*
X-1756620Y-3991524D01*
X-1756619Y-3991518D01*
X-1755465Y-3986711D01*
X-1736835Y-3750000D01*
X-1755465Y-3513289D01*
X-1773473Y-3438277D01*
X-1809740Y-3287218D01*
X-1810895Y-3282406D01*
X-1870850Y-3137660D01*
X-1899865Y-3067611D01*
X-1899867Y-3067607D01*
X-1901760Y-3063037D01*
X-1924929Y-3025229D01*
X-2023241Y-2864798D01*
X-2023245Y-2864792D01*
X-2025824Y-2860584D01*
X-2029031Y-2856830D01*
X-2029039Y-2856818D01*
X-2163670Y-2699186D01*
X-2192701Y-2634397D01*
X-2182096Y-2564197D01*
X-2135221Y-2510874D01*
X-2107005Y-2497591D01*
X-1977009Y-2455101D01*
X-1967503Y-2451105D01*
X-1763656Y-2344989D01*
X-1754931Y-2339495D01*
X-1571148Y-2201507D01*
X-1563441Y-2194664D01*
X-1404661Y-2028509D01*
X-1398177Y-2020502D01*
X-1375763Y-1987644D01*
X-1320852Y-1942641D01*
X-1250328Y-1934468D01*
X-1186580Y-1965722D01*
G37*
%TD.AperFunction*%
%TD*%
M02*
