%TF.GenerationSoftware,KiCad,Pcbnew,(6.0.5)*%
%TF.CreationDate,2022-06-01T17:15:45+01:00*%
%TF.ProjectId,OOEB-MODULE-PCB,4f4f4542-2d4d-44f4-9455-4c452d504342,rev?*%
%TF.SameCoordinates,Original*%
%TF.FileFunction,Legend,Top*%
%TF.FilePolarity,Positive*%
%FSLAX46Y46*%
G04 Gerber Fmt 4.6, Leading zero omitted, Abs format (unit mm)*
G04 Created by KiCad (PCBNEW (6.0.5)) date 2022-06-01 17:15:45*
%MOMM*%
%LPD*%
G01*
G04 APERTURE LIST*
%ADD10C,0.150000*%
%ADD11C,0.120000*%
G04 APERTURE END LIST*
D10*
%TO.C,REF\u002A\u002A*%
X-1333333Y17547619D02*
X-1666666Y18023809D01*
X-1904761Y17547619D02*
X-1904761Y18547619D01*
X-1523809Y18547619D01*
X-1428571Y18500000D01*
X-1380952Y18452380D01*
X-1333333Y18357142D01*
X-1333333Y18214285D01*
X-1380952Y18119047D01*
X-1428571Y18071428D01*
X-1523809Y18023809D01*
X-1904761Y18023809D01*
X-904761Y18071428D02*
X-571428Y18071428D01*
X-428571Y17547619D02*
X-904761Y17547619D01*
X-904761Y18547619D01*
X-428571Y18547619D01*
X333333Y18071428D02*
X0Y18071428D01*
X0Y17547619D02*
X0Y18547619D01*
X476190Y18547619D01*
X999999Y18547619D02*
X999999Y18309523D01*
X761904Y18404761D02*
X999999Y18309523D01*
X1238095Y18404761D01*
X857142Y18119047D02*
X999999Y18309523D01*
X1142857Y18119047D01*
X1761904Y18547619D02*
X1761904Y18309523D01*
X1523809Y18404761D02*
X1761904Y18309523D01*
X1999999Y18404761D01*
X1619047Y18119047D02*
X1761904Y18309523D01*
X1904761Y18119047D01*
%TO.C,SW2*%
X-1493333Y755238D02*
X-1350476Y707619D01*
X-1112380Y707619D01*
X-1017142Y755238D01*
X-969523Y802857D01*
X-921904Y898095D01*
X-921904Y993333D01*
X-969523Y1088571D01*
X-1017142Y1136190D01*
X-1112380Y1183809D01*
X-1302857Y1231428D01*
X-1398095Y1279047D01*
X-1445714Y1326666D01*
X-1493333Y1421904D01*
X-1493333Y1517142D01*
X-1445714Y1612380D01*
X-1398095Y1660000D01*
X-1302857Y1707619D01*
X-1064761Y1707619D01*
X-921904Y1660000D01*
X-588571Y1707619D02*
X-350476Y707619D01*
X-160000Y1421904D01*
X30476Y707619D01*
X268571Y1707619D01*
X601904Y1612380D02*
X649523Y1660000D01*
X744761Y1707619D01*
X982857Y1707619D01*
X1078095Y1660000D01*
X1125714Y1612380D01*
X1173333Y1517142D01*
X1173333Y1421904D01*
X1125714Y1279047D01*
X554285Y707619D01*
X1173333Y707619D01*
%TO.C,SW1*%
X-1333333Y-2154761D02*
X-1190476Y-2202380D01*
X-952380Y-2202380D01*
X-857142Y-2154761D01*
X-809523Y-2107142D01*
X-761904Y-2011904D01*
X-761904Y-1916666D01*
X-809523Y-1821428D01*
X-857142Y-1773809D01*
X-952380Y-1726190D01*
X-1142857Y-1678571D01*
X-1238095Y-1630952D01*
X-1285714Y-1583333D01*
X-1333333Y-1488095D01*
X-1333333Y-1392857D01*
X-1285714Y-1297619D01*
X-1238095Y-1250000D01*
X-1142857Y-1202380D01*
X-904761Y-1202380D01*
X-761904Y-1250000D01*
X-428571Y-1202380D02*
X-190476Y-2202380D01*
X0Y-1488095D01*
X190476Y-2202380D01*
X428571Y-1202380D01*
X1333333Y-2202380D02*
X761904Y-2202380D01*
X1047619Y-2202380D02*
X1047619Y-1202380D01*
X952380Y-1345238D01*
X857142Y-1440476D01*
X761904Y-1488095D01*
%TO.C,R3*%
X-11816666Y-8532380D02*
X-12150000Y-8056190D01*
X-12388095Y-8532380D02*
X-12388095Y-7532380D01*
X-12007142Y-7532380D01*
X-11911904Y-7580000D01*
X-11864285Y-7627619D01*
X-11816666Y-7722857D01*
X-11816666Y-7865714D01*
X-11864285Y-7960952D01*
X-11911904Y-8008571D01*
X-12007142Y-8056190D01*
X-12388095Y-8056190D01*
X-11483333Y-7532380D02*
X-10864285Y-7532380D01*
X-11197619Y-7913333D01*
X-11054761Y-7913333D01*
X-10959523Y-7960952D01*
X-10911904Y-8008571D01*
X-10864285Y-8103809D01*
X-10864285Y-8341904D01*
X-10911904Y-8437142D01*
X-10959523Y-8484761D01*
X-11054761Y-8532380D01*
X-11340476Y-8532380D01*
X-11435714Y-8484761D01*
X-11483333Y-8437142D01*
%TO.C,R2*%
X-166666Y-1252380D02*
X-500000Y-776190D01*
X-738095Y-1252380D02*
X-738095Y-252380D01*
X-357142Y-252380D01*
X-261904Y-300000D01*
X-214285Y-347619D01*
X-166666Y-442857D01*
X-166666Y-585714D01*
X-214285Y-680952D01*
X-261904Y-728571D01*
X-357142Y-776190D01*
X-738095Y-776190D01*
X214285Y-347619D02*
X261904Y-300000D01*
X357142Y-252380D01*
X595238Y-252380D01*
X690476Y-300000D01*
X738095Y-347619D01*
X785714Y-442857D01*
X785714Y-538095D01*
X738095Y-680952D01*
X166666Y-1252380D01*
X785714Y-1252380D01*
%TO.C,R1*%
X-13166666Y4467619D02*
X-13500000Y4943809D01*
X-13738095Y4467619D02*
X-13738095Y5467619D01*
X-13357142Y5467619D01*
X-13261904Y5420000D01*
X-13214285Y5372380D01*
X-13166666Y5277142D01*
X-13166666Y5134285D01*
X-13214285Y5039047D01*
X-13261904Y4991428D01*
X-13357142Y4943809D01*
X-13738095Y4943809D01*
X-12214285Y4467619D02*
X-12785714Y4467619D01*
X-12500000Y4467619D02*
X-12500000Y5467619D01*
X-12595238Y5324761D01*
X-12690476Y5229523D01*
X-12785714Y5181904D01*
%TO.C,Q1*%
X-95238Y-5872619D02*
X-190476Y-5825000D01*
X-285714Y-5729761D01*
X-428571Y-5586904D01*
X-523809Y-5539285D01*
X-619047Y-5539285D01*
X-571428Y-5777380D02*
X-666666Y-5729761D01*
X-761904Y-5634523D01*
X-809523Y-5444047D01*
X-809523Y-5110714D01*
X-761904Y-4920238D01*
X-666666Y-4825000D01*
X-571428Y-4777380D01*
X-380952Y-4777380D01*
X-285714Y-4825000D01*
X-190476Y-4920238D01*
X-142857Y-5110714D01*
X-142857Y-5444047D01*
X-190476Y-5634523D01*
X-285714Y-5729761D01*
X-380952Y-5777380D01*
X-571428Y-5777380D01*
X809523Y-5777380D02*
X238095Y-5777380D01*
X523809Y-5777380D02*
X523809Y-4777380D01*
X428571Y-4920238D01*
X333333Y-5015476D01*
X238095Y-5063095D01*
%TO.C,J4*%
X10051666Y1877619D02*
X10051666Y1163333D01*
X10004047Y1020476D01*
X9908809Y925238D01*
X9765952Y877619D01*
X9670714Y877619D01*
X10956428Y1544285D02*
X10956428Y877619D01*
X10718333Y1925238D02*
X10480238Y1210952D01*
X11099285Y1210952D01*
%TO.C,J3*%
X19782380Y-1333333D02*
X20496666Y-1333333D01*
X20639523Y-1380952D01*
X20734761Y-1476190D01*
X20782380Y-1619047D01*
X20782380Y-1714285D01*
X19782380Y-952380D02*
X19782380Y-333333D01*
X20163333Y-666666D01*
X20163333Y-523809D01*
X20210952Y-428571D01*
X20258571Y-380952D01*
X20353809Y-333333D01*
X20591904Y-333333D01*
X20687142Y-380952D01*
X20734761Y-428571D01*
X20782380Y-523809D01*
X20782380Y-809523D01*
X20734761Y-904761D01*
X20687142Y-952380D01*
%TO.C,J2*%
X-5402619Y-11333333D02*
X-4688333Y-11333333D01*
X-4545476Y-11380952D01*
X-4450238Y-11476190D01*
X-4402619Y-11619047D01*
X-4402619Y-11714285D01*
X-5307380Y-10904761D02*
X-5355000Y-10857142D01*
X-5402619Y-10761904D01*
X-5402619Y-10523809D01*
X-5355000Y-10428571D01*
X-5307380Y-10380952D01*
X-5212142Y-10333333D01*
X-5116904Y-10333333D01*
X-4974047Y-10380952D01*
X-4402619Y-10952380D01*
X-4402619Y-10333333D01*
%TO.C,D1*%
X-738095Y107619D02*
X-738095Y1107619D01*
X-500000Y1107619D01*
X-357142Y1060000D01*
X-261904Y964761D01*
X-214285Y869523D01*
X-166666Y679047D01*
X-166666Y536190D01*
X-214285Y345714D01*
X-261904Y250476D01*
X-357142Y155238D01*
X-500000Y107619D01*
X-738095Y107619D01*
X785714Y107619D02*
X214285Y107619D01*
X499999Y107619D02*
X499999Y1107619D01*
X404761Y964761D01*
X309523Y869523D01*
X214285Y821904D01*
D11*
%TO.C,REF\u002A\u002A*%
X-11500000Y7500000D02*
G75*
G03*
X-11500000Y7500000I-3500000J0D01*
G01*
X21000000Y7500000D02*
G75*
G03*
X21000000Y7500000I-6000000J0D01*
G01*
X6000000Y7500000D02*
G75*
G03*
X6000000Y7500000I-6000000J0D01*
G01*
X18500000Y-7500000D02*
G75*
G03*
X18500000Y-7500000I-3500000J0D01*
G01*
%TO.C,SW2*%
X6160000Y150000D02*
X6160000Y-2570000D01*
X-6140000Y-2570000D02*
X-6140000Y150000D01*
X-6140000Y-7570000D02*
X-6140000Y-4430000D01*
X-6140000Y150000D02*
X6160000Y150000D01*
X6160000Y-9430000D02*
X6160000Y-12150000D01*
X6160000Y-4430000D02*
X6160000Y-7570000D01*
X6160000Y-12150000D02*
X-6140000Y-12150000D01*
X-6140000Y-12150000D02*
X-6140000Y-9430000D01*
X4689050Y-6040000D02*
G75*
G03*
X4689050Y-6040000I-4579050J0D01*
G01*
%TO.C,SW1*%
X3500000Y-6750000D02*
X3500000Y-5250000D01*
X2250000Y-2750000D02*
X-2250000Y-2750000D01*
X-3500000Y-5250000D02*
X-3500000Y-6750000D01*
X-2250000Y-9250000D02*
X2250000Y-9250000D01*
%TO.C,R3*%
X-6580000Y-9080000D02*
X-6580000Y-9560000D01*
X-16720000Y-12920000D02*
X-6580000Y-12920000D01*
X-16720000Y-12440000D02*
X-16720000Y-12920000D01*
X-16720000Y-9080000D02*
X-6580000Y-9080000D01*
X-6580000Y-12920000D02*
X-6580000Y-12440000D01*
X-16720000Y-9560000D02*
X-16720000Y-9080000D01*
%TO.C,R2*%
X3032650Y-10377560D02*
G75*
G03*
X3000000Y-1600000I-3032650J4377560D01*
G01*
X-3032650Y-1622440D02*
G75*
G03*
X-3000000Y-10400000I3032650J-4377560D01*
G01*
X-3000000Y-1600000D02*
X3000000Y-1600000D01*
X-3000000Y-10400000D02*
X3000000Y-10400000D01*
%TO.C,R1*%
X-18070000Y3440000D02*
X-18070000Y3920000D01*
X-7930000Y80000D02*
X-7930000Y560000D01*
X-18070000Y3920000D02*
X-7930000Y3920000D01*
X-18070000Y560000D02*
X-18070000Y80000D01*
X-18070000Y80000D02*
X-7930000Y80000D01*
X-7930000Y3920000D02*
X-7930000Y3440000D01*
%TO.C,Q1*%
X5120000Y-2815000D02*
X-5120000Y-2815000D01*
X-5120000Y-4325000D02*
X-5120000Y316000D01*
X5120000Y316000D02*
X-5120000Y316000D01*
X5120000Y-4325000D02*
X5120000Y316000D01*
X-1851000Y-4325000D02*
X-1851000Y-2815000D01*
X1850000Y-4325000D02*
X1850000Y-2815000D01*
X5120000Y-4325000D02*
X-5120000Y-4325000D01*
%TO.C,J4*%
X9055000Y-1000000D02*
X9055000Y330000D01*
X9055000Y-4870000D02*
X11715000Y-4870000D01*
X9055000Y-2270000D02*
X9055000Y-4870000D01*
X9055000Y-2270000D02*
X11715000Y-2270000D01*
X9055000Y330000D02*
X10385000Y330000D01*
X11715000Y-2270000D02*
X11715000Y-4870000D01*
%TO.C,J3*%
X16730000Y330000D02*
X16730000Y-2330000D01*
X19330000Y330000D02*
X19330000Y-1000000D01*
X16730000Y-2330000D02*
X11590000Y-2330000D01*
X18000000Y330000D02*
X19330000Y330000D01*
X16730000Y330000D02*
X11590000Y330000D01*
X11590000Y330000D02*
X11590000Y-2330000D01*
%TO.C,J2*%
X3885000Y-12330000D02*
X3885000Y-9670000D01*
X-1255000Y-12330000D02*
X3885000Y-12330000D01*
X-2525000Y-12330000D02*
X-3855000Y-12330000D01*
X-1255000Y-9670000D02*
X3885000Y-9670000D01*
X-3855000Y-12330000D02*
X-3855000Y-11000000D01*
X-1255000Y-12330000D02*
X-1255000Y-9670000D01*
%TO.C,D1*%
X-5060000Y-3624000D02*
X-5060000Y-8376000D01*
X-5060000Y-8375816D02*
G75*
G03*
X5589998Y-6004741I5060000J2375816D01*
G01*
X5589998Y-5995259D02*
G75*
G03*
X-5060000Y-3624184I-5589998J-4741D01*
G01*
X5000000Y-6000000D02*
G75*
G03*
X5000000Y-6000000I-5000000J0D01*
G01*
%TD*%
M02*
