  0
SECTION
  2
BLOCKS
  0
ENDSEC
  0
SECTION
  2
ENTITIES
  0
LINE
  8
0
 10
16.6576
 20
76.5378
 11
17.2991
 21
76.6654
  0
LINE
  8
0
 10
17.2991
 20
76.6654
 11
17.9184
 21
76.8756
  0
LINE
  8
0
 10
17.9184
 20
76.8756
 11
18.505
 21
77.1649
  0
LINE
  8
0
 10
18.505
 20
77.1649
 11
19.0488
 21
77.5282
  0
LINE
  8
0
 10
19.0488
 20
77.5282
 11
19.5405
 21
77.9595
  0
LINE
  8
0
 10
19.5405
 20
77.9595
 11
19.9718
 21
78.4512
  0
LINE
  8
0
 10
19.9718
 20
78.4512
 11
20.3351
 21
78.995
  0
LINE
  8
0
 10
20.3351
 20
78.995
 11
20.6244
 21
79.5816
  0
LINE
  8
0
 10
20.6244
 20
79.5816
 11
20.8346
 21
80.2009
  0
LINE
  8
0
 10
20.8346
 20
80.2009
 11
20.9622
 21
80.8424
  0
LINE
  8
0
 10
20.9622
 20
80.8424
 11
21.005
 21
81.495
  0
LINE
  8
0
 10
21.005
 20
81.495
 11
21.005
 21
98.505
  0
LINE
  8
0
 10
21.005
 20
98.505
 11
20.9622
 21
99.1576
  0
LINE
  8
0
 10
20.9622
 20
99.1576
 11
20.8346
 21
99.7991
  0
LINE
  8
0
 10
20.8346
 20
99.7991
 11
20.6244
 21
100.418
  0
LINE
  8
0
 10
20.6244
 20
100.418
 11
20.3351
 21
101.005
  0
LINE
  8
0
 10
20.3351
 20
101.005
 11
19.9718
 21
101.549
  0
LINE
  8
0
 10
19.9718
 20
101.549
 11
19.5405
 21
102.041
  0
LINE
  8
0
 10
19.5405
 20
102.041
 11
19.0488
 21
102.472
  0
LINE
  8
0
 10
19.0488
 20
102.472
 11
18.505
 21
102.835
  0
LINE
  8
0
 10
18.505
 20
102.835
 11
17.9184
 21
103.124
  0
LINE
  8
0
 10
17.9184
 20
103.124
 11
17.2991
 21
103.335
  0
LINE
  8
0
 10
17.2991
 20
103.335
 11
16.6576
 21
103.462
  0
LINE
  8
0
 10
16.6576
 20
103.462
 11
16.005
 21
103.505
  0
LINE
  8
0
 10
16.005
 20
103.505
 11
-16.005
 21
103.505
  0
LINE
  8
0
 10
-16.005
 20
103.505
 11
-16.6576
 21
103.462
  0
LINE
  8
0
 10
-16.6576
 20
103.462
 11
-17.2991
 21
103.335
  0
LINE
  8
0
 10
-17.2991
 20
103.335
 11
-17.9184
 21
103.124
  0
LINE
  8
0
 10
-17.9184
 20
103.124
 11
-18.505
 21
102.835
  0
LINE
  8
0
 10
-18.505
 20
102.835
 11
-19.0488
 21
102.472
  0
LINE
  8
0
 10
-19.0488
 20
102.472
 11
-19.5405
 21
102.041
  0
LINE
  8
0
 10
-19.5405
 20
102.041
 11
-19.9718
 21
101.549
  0
LINE
  8
0
 10
-19.9718
 20
101.549
 11
-20.3351
 21
101.005
  0
LINE
  8
0
 10
-20.3351
 20
101.005
 11
-20.6244
 21
100.418
  0
LINE
  8
0
 10
-20.6244
 20
100.418
 11
-20.8346
 21
99.7991
  0
LINE
  8
0
 10
-20.8346
 20
99.7991
 11
-20.9622
 21
99.1576
  0
LINE
  8
0
 10
-20.9622
 20
99.1576
 11
-21.005
 21
98.505
  0
LINE
  8
0
 10
-21.005
 20
98.505
 11
-21.005
 21
81.495
  0
LINE
  8
0
 10
-21.005
 20
81.495
 11
-20.9622
 21
80.8424
  0
LINE
  8
0
 10
-20.9622
 20
80.8424
 11
-20.8346
 21
80.2009
  0
LINE
  8
0
 10
-20.8346
 20
80.2009
 11
-20.6244
 21
79.5816
  0
LINE
  8
0
 10
-20.6244
 20
79.5816
 11
-20.3351
 21
78.995
  0
LINE
  8
0
 10
-20.3351
 20
78.995
 11
-19.9718
 21
78.4512
  0
LINE
  8
0
 10
-19.9718
 20
78.4512
 11
-19.5405
 21
77.9595
  0
LINE
  8
0
 10
-19.5405
 20
77.9595
 11
-19.0488
 21
77.5282
  0
LINE
  8
0
 10
-19.0488
 20
77.5282
 11
-18.505
 21
77.1649
  0
LINE
  8
0
 10
-18.505
 20
77.1649
 11
-17.9184
 21
76.8756
  0
LINE
  8
0
 10
-17.9184
 20
76.8756
 11
-17.2991
 21
76.6654
  0
LINE
  8
0
 10
-17.2991
 20
76.6654
 11
-16.6576
 21
76.5378
  0
LINE
  8
0
 10
-16.6576
 20
76.5378
 11
-16.005
 21
76.495
  0
LINE
  8
0
 10
-16.005
 20
76.495
 11
16.005
 21
76.495
  0
LINE
  8
0
 10
16.005
 20
76.495
 11
16.6576
 21
76.5378
  0
LINE
  8
0
 10
-0.391571
 20
94.5257
 11
-0.776443
 21
94.6022
  0
LINE
  8
0
 10
-0.776443
 20
94.6022
 11
-1.14804
 21
94.7283
  0
LINE
  8
0
 10
-1.14804
 20
94.7283
 11
-1.5
 21
94.9019
  0
LINE
  8
0
 10
-1.5
 20
94.9019
 11
-1.82628
 21
95.1199
  0
LINE
  8
0
 10
-1.82628
 20
95.1199
 11
-2.12131
 21
95.3787
  0
LINE
  8
0
 10
-2.12131
 20
95.3787
 11
-2.38005
 21
95.6737
  0
LINE
  8
0
 10
-2.38005
 20
95.6737
 11
-2.59807
 21
96
  0
LINE
  8
0
 10
-2.59807
 20
96
 11
-2.77164
 21
96.3519
  0
LINE
  8
0
 10
-2.77164
 20
96.3519
 11
-2.89777
 21
96.7235
  0
LINE
  8
0
 10
-2.89777
 20
96.7235
 11
-2.97432
 21
97.1084
  0
LINE
  8
0
 10
-2.97432
 20
97.1084
 11
-3
 21
97.5
  0
LINE
  8
0
 10
-3
 20
97.5
 11
-2.97432
 21
97.8916
  0
LINE
  8
0
 10
-2.97432
 20
97.8916
 11
-2.89777
 21
98.2764
  0
LINE
  8
0
 10
-2.89777
 20
98.2764
 11
-2.77164
 21
98.648
  0
LINE
  8
0
 10
-2.77164
 20
98.648
 11
-2.59807
 21
99
  0
LINE
  8
0
 10
-2.59807
 20
99
 11
-2.38005
 21
99.3263
  0
LINE
  8
0
 10
-2.38005
 20
99.3263
 11
-2.12131
 21
99.6213
  0
LINE
  8
0
 10
-2.12131
 20
99.6213
 11
-1.82628
 21
99.8801
  0
LINE
  8
0
 10
-1.82628
 20
99.8801
 11
-1.5
 21
100.098
  0
LINE
  8
0
 10
-1.5
 20
100.098
 11
-1.14804
 21
100.272
  0
LINE
  8
0
 10
-1.14804
 20
100.272
 11
-0.776443
 21
100.398
  0
LINE
  8
0
 10
-0.776443
 20
100.398
 11
-0.391571
 21
100.474
  0
LINE
  8
0
 10
-0.391571
 20
100.474
 11
0
 21
100.5
  0
LINE
  8
0
 10
0
 20
100.5
 11
0.391571
 21
100.474
  0
LINE
  8
0
 10
0.391571
 20
100.474
 11
0.776443
 21
100.398
  0
LINE
  8
0
 10
0.776443
 20
100.398
 11
1.14804
 21
100.272
  0
LINE
  8
0
 10
1.14804
 20
100.272
 11
1.5
 21
100.098
  0
LINE
  8
0
 10
1.5
 20
100.098
 11
1.82628
 21
99.8801
  0
LINE
  8
0
 10
1.82628
 20
99.8801
 11
2.12131
 21
99.6213
  0
LINE
  8
0
 10
2.12131
 20
99.6213
 11
2.38005
 21
99.3263
  0
LINE
  8
0
 10
2.38005
 20
99.3263
 11
2.59807
 21
99
  0
LINE
  8
0
 10
2.59807
 20
99
 11
2.77164
 21
98.648
  0
LINE
  8
0
 10
2.77164
 20
98.648
 11
2.89777
 21
98.2764
  0
LINE
  8
0
 10
2.89777
 20
98.2764
 11
2.97432
 21
97.8916
  0
LINE
  8
0
 10
2.97432
 20
97.8916
 11
3
 21
97.5
  0
LINE
  8
0
 10
3
 20
97.5
 11
2.97432
 21
97.1084
  0
LINE
  8
0
 10
2.97432
 20
97.1084
 11
2.89777
 21
96.7235
  0
LINE
  8
0
 10
2.89777
 20
96.7235
 11
2.77164
 21
96.3519
  0
LINE
  8
0
 10
2.77164
 20
96.3519
 11
2.59807
 21
96
  0
LINE
  8
0
 10
2.59807
 20
96
 11
2.38005
 21
95.6737
  0
LINE
  8
0
 10
2.38005
 20
95.6737
 11
2.12131
 21
95.3787
  0
LINE
  8
0
 10
2.12131
 20
95.3787
 11
1.82628
 21
95.1199
  0
LINE
  8
0
 10
1.82628
 20
95.1199
 11
1.5
 21
94.9019
  0
LINE
  8
0
 10
1.5
 20
94.9019
 11
1.14804
 21
94.7283
  0
LINE
  8
0
 10
1.14804
 20
94.7283
 11
0.776443
 21
94.6022
  0
LINE
  8
0
 10
0.776443
 20
94.6022
 11
0.391571
 21
94.5257
  0
LINE
  8
0
 10
0.391571
 20
94.5257
 11
0
 21
94.5
  0
LINE
  8
0
 10
0
 20
94.5
 11
-0.391571
 21
94.5257
  0
LINE
  8
0
 10
14.6084
 20
94.5257
 11
14.2235
 21
94.6022
  0
LINE
  8
0
 10
14.2235
 20
94.6022
 11
13.8519
 21
94.7283
  0
LINE
  8
0
 10
13.8519
 20
94.7283
 11
13.5
 21
94.9019
  0
LINE
  8
0
 10
13.5
 20
94.9019
 11
13.1737
 21
95.1199
  0
LINE
  8
0
 10
13.1737
 20
95.1199
 11
12.8787
 21
95.3787
  0
LINE
  8
0
 10
12.8787
 20
95.3787
 11
12.6199
 21
95.6737
  0
LINE
  8
0
 10
12.6199
 20
95.6737
 11
12.4019
 21
96
  0
LINE
  8
0
 10
12.4019
 20
96
 11
12.2283
 21
96.3519
  0
LINE
  8
0
 10
12.2283
 20
96.3519
 11
12.1022
 21
96.7235
  0
LINE
  8
0
 10
12.1022
 20
96.7235
 11
12.0257
 21
97.1084
  0
LINE
  8
0
 10
12.0257
 20
97.1084
 11
12
 21
97.5
  0
LINE
  8
0
 10
12
 20
97.5
 11
12.0257
 21
97.8916
  0
LINE
  8
0
 10
12.0257
 20
97.8916
 11
12.1022
 21
98.2764
  0
LINE
  8
0
 10
12.1022
 20
98.2764
 11
12.2283
 21
98.648
  0
LINE
  8
0
 10
12.2283
 20
98.648
 11
12.4019
 21
99
  0
LINE
  8
0
 10
12.4019
 20
99
 11
12.6199
 21
99.3263
  0
LINE
  8
0
 10
12.6199
 20
99.3263
 11
12.8787
 21
99.6213
  0
LINE
  8
0
 10
12.8787
 20
99.6213
 11
13.1737
 21
99.8801
  0
LINE
  8
0
 10
13.1737
 20
99.8801
 11
13.5
 21
100.098
  0
LINE
  8
0
 10
13.5
 20
100.098
 11
13.8519
 21
100.272
  0
LINE
  8
0
 10
13.8519
 20
100.272
 11
14.2235
 21
100.398
  0
LINE
  8
0
 10
14.2235
 20
100.398
 11
14.6084
 21
100.474
  0
LINE
  8
0
 10
14.6084
 20
100.474
 11
15
 21
100.5
  0
LINE
  8
0
 10
15
 20
100.5
 11
15.3916
 21
100.474
  0
LINE
  8
0
 10
15.3916
 20
100.474
 11
15.7764
 21
100.398
  0
LINE
  8
0
 10
15.7764
 20
100.398
 11
16.148
 21
100.272
  0
LINE
  8
0
 10
16.148
 20
100.272
 11
16.5
 21
100.098
  0
LINE
  8
0
 10
16.5
 20
100.098
 11
16.8263
 21
99.8801
  0
LINE
  8
0
 10
16.8263
 20
99.8801
 11
17.1213
 21
99.6213
  0
LINE
  8
0
 10
17.1213
 20
99.6213
 11
17.3801
 21
99.3263
  0
LINE
  8
0
 10
17.3801
 20
99.3263
 11
17.5981
 21
99
  0
LINE
  8
0
 10
17.5981
 20
99
 11
17.7716
 21
98.648
  0
LINE
  8
0
 10
17.7716
 20
98.648
 11
17.8978
 21
98.2764
  0
LINE
  8
0
 10
17.8978
 20
98.2764
 11
17.9743
 21
97.8916
  0
LINE
  8
0
 10
17.9743
 20
97.8916
 11
18
 21
97.5
  0
LINE
  8
0
 10
18
 20
97.5
 11
17.9743
 21
97.1084
  0
LINE
  8
0
 10
17.9743
 20
97.1084
 11
17.8978
 21
96.7235
  0
LINE
  8
0
 10
17.8978
 20
96.7235
 11
17.7716
 21
96.3519
  0
LINE
  8
0
 10
17.7716
 20
96.3519
 11
17.5981
 21
96
  0
LINE
  8
0
 10
17.5981
 20
96
 11
17.3801
 21
95.6737
  0
LINE
  8
0
 10
17.3801
 20
95.6737
 11
17.1213
 21
95.3787
  0
LINE
  8
0
 10
17.1213
 20
95.3787
 11
16.8263
 21
95.1199
  0
LINE
  8
0
 10
16.8263
 20
95.1199
 11
16.5
 21
94.9019
  0
LINE
  8
0
 10
16.5
 20
94.9019
 11
16.148
 21
94.7283
  0
LINE
  8
0
 10
16.148
 20
94.7283
 11
15.7764
 21
94.6022
  0
LINE
  8
0
 10
15.7764
 20
94.6022
 11
15.3916
 21
94.5257
  0
LINE
  8
0
 10
15.3916
 20
94.5257
 11
15
 21
94.5
  0
LINE
  8
0
 10
15
 20
94.5
 11
14.6084
 21
94.5257
  0
LINE
  8
0
 10
-15.1958
 20
96.0128
 11
-15.3882
 21
96.0511
  0
LINE
  8
0
 10
-15.3882
 20
96.0511
 11
-15.574
 21
96.1142
  0
LINE
  8
0
 10
-15.574
 20
96.1142
 11
-15.75
 21
96.201
  0
LINE
  8
0
 10
-15.75
 20
96.201
 11
-15.9131
 21
96.31
  0
LINE
  8
0
 10
-15.9131
 20
96.31
 11
-16.0607
 21
96.4393
  0
LINE
  8
0
 10
-16.0607
 20
96.4393
 11
-16.19
 21
96.5869
  0
LINE
  8
0
 10
-16.19
 20
96.5869
 11
-16.299
 21
96.75
  0
LINE
  8
0
 10
-16.299
 20
96.75
 11
-16.3858
 21
96.926
  0
LINE
  8
0
 10
-16.3858
 20
96.926
 11
-16.4489
 21
97.1118
  0
LINE
  8
0
 10
-16.4489
 20
97.1118
 11
-16.4872
 21
97.3042
  0
LINE
  8
0
 10
-16.4872
 20
97.3042
 11
-16.5
 21
97.5
  0
LINE
  8
0
 10
-16.5
 20
97.5
 11
-16.4872
 21
97.6958
  0
LINE
  8
0
 10
-16.4872
 20
97.6958
 11
-16.4489
 21
97.8882
  0
LINE
  8
0
 10
-16.4489
 20
97.8882
 11
-16.3858
 21
98.074
  0
LINE
  8
0
 10
-16.3858
 20
98.074
 11
-16.299
 21
98.25
  0
LINE
  8
0
 10
-16.299
 20
98.25
 11
-16.19
 21
98.4131
  0
LINE
  8
0
 10
-16.19
 20
98.4131
 11
-16.0607
 21
98.5607
  0
LINE
  8
0
 10
-16.0607
 20
98.5607
 11
-15.9131
 21
98.69
  0
LINE
  8
0
 10
-15.9131
 20
98.69
 11
-15.75
 21
98.799
  0
LINE
  8
0
 10
-15.75
 20
98.799
 11
-15.574
 21
98.8858
  0
LINE
  8
0
 10
-15.574
 20
98.8858
 11
-15.3882
 21
98.9489
  0
LINE
  8
0
 10
-15.3882
 20
98.9489
 11
-15.1958
 21
98.9872
  0
LINE
  8
0
 10
-15.1958
 20
98.9872
 11
-15
 21
99
  0
LINE
  8
0
 10
-15
 20
99
 11
-14.8042
 21
98.9872
  0
LINE
  8
0
 10
-14.8042
 20
98.9872
 11
-14.6118
 21
98.9489
  0
LINE
  8
0
 10
-14.6118
 20
98.9489
 11
-14.426
 21
98.8858
  0
LINE
  8
0
 10
-14.426
 20
98.8858
 11
-14.25
 21
98.799
  0
LINE
  8
0
 10
-14.25
 20
98.799
 11
-14.0869
 21
98.69
  0
LINE
  8
0
 10
-14.0869
 20
98.69
 11
-13.9393
 21
98.5607
  0
LINE
  8
0
 10
-13.9393
 20
98.5607
 11
-13.81
 21
98.4131
  0
LINE
  8
0
 10
-13.81
 20
98.4131
 11
-13.701
 21
98.25
  0
LINE
  8
0
 10
-13.701
 20
98.25
 11
-13.6142
 21
98.074
  0
LINE
  8
0
 10
-13.6142
 20
98.074
 11
-13.5511
 21
97.8882
  0
LINE
  8
0
 10
-13.5511
 20
97.8882
 11
-13.5128
 21
97.6958
  0
LINE
  8
0
 10
-13.5128
 20
97.6958
 11
-13.5
 21
97.5
  0
LINE
  8
0
 10
-13.5
 20
97.5
 11
-13.5128
 21
97.3042
  0
LINE
  8
0
 10
-13.5128
 20
97.3042
 11
-13.5511
 21
97.1118
  0
LINE
  8
0
 10
-13.5511
 20
97.1118
 11
-13.6142
 21
96.926
  0
LINE
  8
0
 10
-13.6142
 20
96.926
 11
-13.701
 21
96.75
  0
LINE
  8
0
 10
-13.701
 20
96.75
 11
-13.81
 21
96.5869
  0
LINE
  8
0
 10
-13.81
 20
96.5869
 11
-13.9393
 21
96.4393
  0
LINE
  8
0
 10
-13.9393
 20
96.4393
 11
-14.0869
 21
96.31
  0
LINE
  8
0
 10
-14.0869
 20
96.31
 11
-14.25
 21
96.201
  0
LINE
  8
0
 10
-14.25
 20
96.201
 11
-14.426
 21
96.1142
  0
LINE
  8
0
 10
-14.426
 20
96.1142
 11
-14.6118
 21
96.0511
  0
LINE
  8
0
 10
-14.6118
 20
96.0511
 11
-14.8042
 21
96.0128
  0
LINE
  8
0
 10
-14.8042
 20
96.0128
 11
-15
 21
96
  0
LINE
  8
0
 10
-15
 20
96
 11
-15.1958
 21
96.0128
  0
LINE
  8
0
 10
14.8042
 20
81.0128
 11
14.6118
 21
81.0511
  0
LINE
  8
0
 10
14.6118
 20
81.0511
 11
14.426
 21
81.1142
  0
LINE
  8
0
 10
14.426
 20
81.1142
 11
14.25
 21
81.201
  0
LINE
  8
0
 10
14.25
 20
81.201
 11
14.0869
 21
81.31
  0
LINE
  8
0
 10
14.0869
 20
81.31
 11
13.9393
 21
81.4393
  0
LINE
  8
0
 10
13.9393
 20
81.4393
 11
13.81
 21
81.5869
  0
LINE
  8
0
 10
13.81
 20
81.5869
 11
13.701
 21
81.75
  0
LINE
  8
0
 10
13.701
 20
81.75
 11
13.6142
 21
81.926
  0
LINE
  8
0
 10
13.6142
 20
81.926
 11
13.5511
 21
82.1118
  0
LINE
  8
0
 10
13.5511
 20
82.1118
 11
13.5128
 21
82.3042
  0
LINE
  8
0
 10
13.5128
 20
82.3042
 11
13.5
 21
82.5
  0
LINE
  8
0
 10
13.5
 20
82.5
 11
13.5128
 21
82.6958
  0
LINE
  8
0
 10
13.5128
 20
82.6958
 11
13.5511
 21
82.8882
  0
LINE
  8
0
 10
13.5511
 20
82.8882
 11
13.6142
 21
83.074
  0
LINE
  8
0
 10
13.6142
 20
83.074
 11
13.701
 21
83.25
  0
LINE
  8
0
 10
13.701
 20
83.25
 11
13.81
 21
83.4131
  0
LINE
  8
0
 10
13.81
 20
83.4131
 11
13.9393
 21
83.5607
  0
LINE
  8
0
 10
13.9393
 20
83.5607
 11
14.0869
 21
83.69
  0
LINE
  8
0
 10
14.0869
 20
83.69
 11
14.25
 21
83.799
  0
LINE
  8
0
 10
14.25
 20
83.799
 11
14.426
 21
83.8858
  0
LINE
  8
0
 10
14.426
 20
83.8858
 11
14.6118
 21
83.9489
  0
LINE
  8
0
 10
14.6118
 20
83.9489
 11
14.8042
 21
83.9872
  0
LINE
  8
0
 10
14.8042
 20
83.9872
 11
15
 21
84
  0
LINE
  8
0
 10
15
 20
84
 11
15.1958
 21
83.9872
  0
LINE
  8
0
 10
15.1958
 20
83.9872
 11
15.3882
 21
83.9489
  0
LINE
  8
0
 10
15.3882
 20
83.9489
 11
15.574
 21
83.8858
  0
LINE
  8
0
 10
15.574
 20
83.8858
 11
15.75
 21
83.799
  0
LINE
  8
0
 10
15.75
 20
83.799
 11
15.9131
 21
83.69
  0
LINE
  8
0
 10
15.9131
 20
83.69
 11
16.0607
 21
83.5607
  0
LINE
  8
0
 10
16.0607
 20
83.5607
 11
16.19
 21
83.4131
  0
LINE
  8
0
 10
16.19
 20
83.4131
 11
16.299
 21
83.25
  0
LINE
  8
0
 10
16.299
 20
83.25
 11
16.3858
 21
83.074
  0
LINE
  8
0
 10
16.3858
 20
83.074
 11
16.4489
 21
82.8882
  0
LINE
  8
0
 10
16.4489
 20
82.8882
 11
16.4872
 21
82.6958
  0
LINE
  8
0
 10
16.4872
 20
82.6958
 11
16.5
 21
82.5
  0
LINE
  8
0
 10
16.5
 20
82.5
 11
16.4872
 21
82.3042
  0
LINE
  8
0
 10
16.4872
 20
82.3042
 11
16.4489
 21
82.1118
  0
LINE
  8
0
 10
16.4489
 20
82.1118
 11
16.3858
 21
81.926
  0
LINE
  8
0
 10
16.3858
 20
81.926
 11
16.299
 21
81.75
  0
LINE
  8
0
 10
16.299
 20
81.75
 11
16.19
 21
81.5869
  0
LINE
  8
0
 10
16.19
 20
81.5869
 11
16.0607
 21
81.4393
  0
LINE
  8
0
 10
16.0607
 20
81.4393
 11
15.9131
 21
81.31
  0
LINE
  8
0
 10
15.9131
 20
81.31
 11
15.75
 21
81.201
  0
LINE
  8
0
 10
15.75
 20
81.201
 11
15.574
 21
81.1142
  0
LINE
  8
0
 10
15.574
 20
81.1142
 11
15.3882
 21
81.0511
  0
LINE
  8
0
 10
15.3882
 20
81.0511
 11
15.1958
 21
81.0128
  0
LINE
  8
0
 10
15.1958
 20
81.0128
 11
15
 21
81
  0
LINE
  8
0
 10
15
 20
81
 11
14.8042
 21
81.0128
  0
LINE
  8
0
 10
16.6576
 20
46.5378
 11
17.2991
 21
46.6654
  0
LINE
  8
0
 10
17.2991
 20
46.6654
 11
17.9184
 21
46.8756
  0
LINE
  8
0
 10
17.9184
 20
46.8756
 11
18.505
 21
47.1649
  0
LINE
  8
0
 10
18.505
 20
47.1649
 11
19.0488
 21
47.5282
  0
LINE
  8
0
 10
19.0488
 20
47.5282
 11
19.5405
 21
47.9595
  0
LINE
  8
0
 10
19.5405
 20
47.9595
 11
19.9718
 21
48.4512
  0
LINE
  8
0
 10
19.9718
 20
48.4512
 11
20.3351
 21
48.995
  0
LINE
  8
0
 10
20.3351
 20
48.995
 11
20.6244
 21
49.5816
  0
LINE
  8
0
 10
20.6244
 20
49.5816
 11
20.8346
 21
50.2009
  0
LINE
  8
0
 10
20.8346
 20
50.2009
 11
20.9622
 21
50.8424
  0
LINE
  8
0
 10
20.9622
 20
50.8424
 11
21.005
 21
51.495
  0
LINE
  8
0
 10
21.005
 20
51.495
 11
21.005
 21
68.505
  0
LINE
  8
0
 10
21.005
 20
68.505
 11
20.9622
 21
69.1576
  0
LINE
  8
0
 10
20.9622
 20
69.1576
 11
20.8346
 21
69.7991
  0
LINE
  8
0
 10
20.8346
 20
69.7991
 11
20.6244
 21
70.4184
  0
LINE
  8
0
 10
20.6244
 20
70.4184
 11
20.3351
 21
71.005
  0
LINE
  8
0
 10
20.3351
 20
71.005
 11
19.9718
 21
71.5488
  0
LINE
  8
0
 10
19.9718
 20
71.5488
 11
19.5405
 21
72.0405
  0
LINE
  8
0
 10
19.5405
 20
72.0405
 11
19.0488
 21
72.4718
  0
LINE
  8
0
 10
19.0488
 20
72.4718
 11
18.505
 21
72.8351
  0
LINE
  8
0
 10
18.505
 20
72.8351
 11
17.9184
 21
73.1244
  0
LINE
  8
0
 10
17.9184
 20
73.1244
 11
17.2991
 21
73.3346
  0
LINE
  8
0
 10
17.2991
 20
73.3346
 11
16.6576
 21
73.4622
  0
LINE
  8
0
 10
16.6576
 20
73.4622
 11
16.005
 21
73.505
  0
LINE
  8
0
 10
16.005
 20
73.505
 11
-16.005
 21
73.505
  0
LINE
  8
0
 10
-16.005
 20
73.505
 11
-16.6576
 21
73.4622
  0
LINE
  8
0
 10
-16.6576
 20
73.4622
 11
-17.2991
 21
73.3346
  0
LINE
  8
0
 10
-17.2991
 20
73.3346
 11
-17.9184
 21
73.1244
  0
LINE
  8
0
 10
-17.9184
 20
73.1244
 11
-18.505
 21
72.8351
  0
LINE
  8
0
 10
-18.505
 20
72.8351
 11
-19.0488
 21
72.4718
  0
LINE
  8
0
 10
-19.0488
 20
72.4718
 11
-19.5405
 21
72.0405
  0
LINE
  8
0
 10
-19.5405
 20
72.0405
 11
-19.9718
 21
71.5488
  0
LINE
  8
0
 10
-19.9718
 20
71.5488
 11
-20.3351
 21
71.005
  0
LINE
  8
0
 10
-20.3351
 20
71.005
 11
-20.6244
 21
70.4184
  0
LINE
  8
0
 10
-20.6244
 20
70.4184
 11
-20.8346
 21
69.7991
  0
LINE
  8
0
 10
-20.8346
 20
69.7991
 11
-20.9622
 21
69.1576
  0
LINE
  8
0
 10
-20.9622
 20
69.1576
 11
-21.005
 21
68.505
  0
LINE
  8
0
 10
-21.005
 20
68.505
 11
-21.005
 21
68.4997
  0
LINE
  8
0
 10
-21.005
 20
68.4997
 11
-21
 21
68.5
  0
LINE
  8
0
 10
-21
 20
68.5
 11
-20.8042
 21
68.4872
  0
LINE
  8
0
 10
-20.8042
 20
68.4872
 11
-20.6118
 21
68.4489
  0
LINE
  8
0
 10
-20.6118
 20
68.4489
 11
-20.426
 21
68.3858
  0
LINE
  8
0
 10
-20.426
 20
68.3858
 11
-20.25
 21
68.299
  0
LINE
  8
0
 10
-20.25
 20
68.299
 11
-20.0869
 21
68.19
  0
LINE
  8
0
 10
-20.0869
 20
68.19
 11
-19.9393
 21
68.0607
  0
LINE
  8
0
 10
-19.9393
 20
68.0607
 11
-19.81
 21
67.9131
  0
LINE
  8
0
 10
-19.81
 20
67.9131
 11
-19.701
 21
67.75
  0
LINE
  8
0
 10
-19.701
 20
67.75
 11
-19.6142
 21
67.574
  0
LINE
  8
0
 10
-19.6142
 20
67.574
 11
-19.5511
 21
67.3882
  0
LINE
  8
0
 10
-19.5511
 20
67.3882
 11
-19.5128
 21
67.1958
  0
LINE
  8
0
 10
-19.5128
 20
67.1958
 11
-19.5
 21
67
  0
LINE
  8
0
 10
-19.5
 20
67
 11
-19.5128
 21
66.8042
  0
LINE
  8
0
 10
-19.5128
 20
66.8042
 11
-19.5511
 21
66.6118
  0
LINE
  8
0
 10
-19.5511
 20
66.6118
 11
-19.6142
 21
66.426
  0
LINE
  8
0
 10
-19.6142
 20
66.426
 11
-19.701
 21
66.25
  0
LINE
  8
0
 10
-19.701
 20
66.25
 11
-19.81
 21
66.0869
  0
LINE
  8
0
 10
-19.81
 20
66.0869
 11
-19.9393
 21
65.9393
  0
LINE
  8
0
 10
-19.9393
 20
65.9393
 11
-20.0869
 21
65.81
  0
LINE
  8
0
 10
-20.0869
 20
65.81
 11
-20.25
 21
65.701
  0
LINE
  8
0
 10
-20.25
 20
65.701
 11
-20.426
 21
65.6142
  0
LINE
  8
0
 10
-20.426
 20
65.6142
 11
-20.6118
 21
65.5511
  0
LINE
  8
0
 10
-20.6118
 20
65.5511
 11
-20.8042
 21
65.5128
  0
LINE
  8
0
 10
-20.8042
 20
65.5128
 11
-21
 21
65.5
  0
LINE
  8
0
 10
-21
 20
65.5
 11
-21.005
 21
65.5003
  0
LINE
  8
0
 10
-21.005
 20
65.5003
 11
-21.005
 21
62.33
  0
LINE
  8
0
 10
-21.005
 20
62.33
 11
-15.27
 21
62.33
  0
LINE
  8
0
 10
-15.27
 20
62.33
 11
-15.27
 21
64.4805
  0
LINE
  8
0
 10
-15.27
 20
64.4805
 11
-17.75
 21
65.9123
  0
LINE
  8
0
 10
-17.75
 20
65.9123
 11
-17.75
 21
69.0877
  0
LINE
  8
0
 10
-17.75
 20
69.0877
 11
-15
 21
70.6754
  0
LINE
  8
0
 10
-15
 20
70.6754
 11
-12.25
 21
69.0877
  0
LINE
  8
0
 10
-12.25
 20
69.0877
 11
-12.25
 21
65.9123
  0
LINE
  8
0
 10
-12.25
 20
65.9123
 11
-14.0553
 21
64.87
  0
LINE
  8
0
 10
-14.0553
 20
64.87
 11
-12.23
 21
64.87
  0
LINE
  8
0
 10
-12.23
 20
64.87
 11
-12.23
 21
59.79
  0
LINE
  8
0
 10
-12.23
 20
59.79
 11
1.76999
 21
59.79
  0
LINE
  8
0
 10
1.76999
 20
59.79
 11
1.76999
 21
58.79
  0
LINE
  8
0
 10
1.76999
 20
58.79
 11
9
 21
58.79
  0
LINE
  8
0
 10
9
 20
58.79
 11
9
 21
52.67
  0
LINE
  8
0
 10
9
 20
52.67
 11
1.76999
 21
52.67
  0
LINE
  8
0
 10
1.76999
 20
52.67
 11
1.76999
 21
51.67
  0
LINE
  8
0
 10
1.76999
 20
51.67
 11
-12.23
 21
51.67
  0
LINE
  8
0
 10
-12.23
 20
51.67
 11
-12.23
 21
49.13
  0
LINE
  8
0
 10
-12.23
 20
49.13
 11
-15.27
 21
49.13
  0
LINE
  8
0
 10
-15.27
 20
49.13
 11
-15.27
 21
51.67
  0
LINE
  8
0
 10
-15.27
 20
51.67
 11
-21.005
 21
51.67
  0
LINE
  8
0
 10
-21.005
 20
51.67
 11
-21.005
 21
51.495
  0
LINE
  8
0
 10
-21.005
 20
51.495
 11
-20.9622
 21
50.8424
  0
LINE
  8
0
 10
-20.9622
 20
50.8424
 11
-20.8346
 21
50.2009
  0
LINE
  8
0
 10
-20.8346
 20
50.2009
 11
-20.6244
 21
49.5816
  0
LINE
  8
0
 10
-20.6244
 20
49.5816
 11
-20.3351
 21
48.995
  0
LINE
  8
0
 10
-20.3351
 20
48.995
 11
-19.9718
 21
48.4512
  0
LINE
  8
0
 10
-19.9718
 20
48.4512
 11
-19.5405
 21
47.9595
  0
LINE
  8
0
 10
-19.5405
 20
47.9595
 11
-19.0488
 21
47.5282
  0
LINE
  8
0
 10
-19.0488
 20
47.5282
 11
-18.505
 21
47.1649
  0
LINE
  8
0
 10
-18.505
 20
47.1649
 11
-17.9184
 21
46.8756
  0
LINE
  8
0
 10
-17.9184
 20
46.8756
 11
-17.2991
 21
46.6654
  0
LINE
  8
0
 10
-17.2991
 20
46.6654
 11
-16.6576
 21
46.5378
  0
LINE
  8
0
 10
-16.6576
 20
46.5378
 11
-16.005
 21
46.495
  0
LINE
  8
0
 10
-16.005
 20
46.495
 11
16.005
 21
46.495
  0
LINE
  8
0
 10
16.005
 20
46.495
 11
16.6576
 21
46.5378
  0
LINE
  8
0
 10
-0.391571
 20
64.5257
 11
-0.776443
 21
64.6022
  0
LINE
  8
0
 10
-0.776443
 20
64.6022
 11
-1.14804
 21
64.7283
  0
LINE
  8
0
 10
-1.14804
 20
64.7283
 11
-1.5
 21
64.9019
  0
LINE
  8
0
 10
-1.5
 20
64.9019
 11
-1.82628
 21
65.1199
  0
LINE
  8
0
 10
-1.82628
 20
65.1199
 11
-2.12131
 21
65.3787
  0
LINE
  8
0
 10
-2.12131
 20
65.3787
 11
-2.38005
 21
65.6737
  0
LINE
  8
0
 10
-2.38005
 20
65.6737
 11
-2.59807
 21
66
  0
LINE
  8
0
 10
-2.59807
 20
66
 11
-2.77164
 21
66.3519
  0
LINE
  8
0
 10
-2.77164
 20
66.3519
 11
-2.89777
 21
66.7235
  0
LINE
  8
0
 10
-2.89777
 20
66.7235
 11
-2.97432
 21
67.1084
  0
LINE
  8
0
 10
-2.97432
 20
67.1084
 11
-3
 21
67.5
  0
LINE
  8
0
 10
-3
 20
67.5
 11
-2.97432
 21
67.8916
  0
LINE
  8
0
 10
-2.97432
 20
67.8916
 11
-2.89777
 21
68.2764
  0
LINE
  8
0
 10
-2.89777
 20
68.2764
 11
-2.77164
 21
68.648
  0
LINE
  8
0
 10
-2.77164
 20
68.648
 11
-2.59807
 21
69
  0
LINE
  8
0
 10
-2.59807
 20
69
 11
-2.38005
 21
69.3263
  0
LINE
  8
0
 10
-2.38005
 20
69.3263
 11
-2.12131
 21
69.6213
  0
LINE
  8
0
 10
-2.12131
 20
69.6213
 11
-1.82628
 21
69.8801
  0
LINE
  8
0
 10
-1.82628
 20
69.8801
 11
-1.5
 21
70.0981
  0
LINE
  8
0
 10
-1.5
 20
70.0981
 11
-1.14804
 21
70.2716
  0
LINE
  8
0
 10
-1.14804
 20
70.2716
 11
-0.776443
 21
70.3978
  0
LINE
  8
0
 10
-0.776443
 20
70.3978
 11
-0.391571
 21
70.4743
  0
LINE
  8
0
 10
-0.391571
 20
70.4743
 11
0
 21
70.5
  0
LINE
  8
0
 10
0
 20
70.5
 11
0.391571
 21
70.4743
  0
LINE
  8
0
 10
0.391571
 20
70.4743
 11
0.776443
 21
70.3978
  0
LINE
  8
0
 10
0.776443
 20
70.3978
 11
1.14804
 21
70.2716
  0
LINE
  8
0
 10
1.14804
 20
70.2716
 11
1.5
 21
70.0981
  0
LINE
  8
0
 10
1.5
 20
70.0981
 11
1.82628
 21
69.8801
  0
LINE
  8
0
 10
1.82628
 20
69.8801
 11
2.12131
 21
69.6213
  0
LINE
  8
0
 10
2.12131
 20
69.6213
 11
2.38005
 21
69.3263
  0
LINE
  8
0
 10
2.38005
 20
69.3263
 11
2.59807
 21
69
  0
LINE
  8
0
 10
2.59807
 20
69
 11
2.77164
 21
68.648
  0
LINE
  8
0
 10
2.77164
 20
68.648
 11
2.89777
 21
68.2764
  0
LINE
  8
0
 10
2.89777
 20
68.2764
 11
2.97432
 21
67.8916
  0
LINE
  8
0
 10
2.97432
 20
67.8916
 11
3
 21
67.5
  0
LINE
  8
0
 10
3
 20
67.5
 11
2.97432
 21
67.1084
  0
LINE
  8
0
 10
2.97432
 20
67.1084
 11
2.89777
 21
66.7235
  0
LINE
  8
0
 10
2.89777
 20
66.7235
 11
2.77164
 21
66.3519
  0
LINE
  8
0
 10
2.77164
 20
66.3519
 11
2.59807
 21
66
  0
LINE
  8
0
 10
2.59807
 20
66
 11
2.38005
 21
65.6737
  0
LINE
  8
0
 10
2.38005
 20
65.6737
 11
2.12131
 21
65.3787
  0
LINE
  8
0
 10
2.12131
 20
65.3787
 11
1.82628
 21
65.1199
  0
LINE
  8
0
 10
1.82628
 20
65.1199
 11
1.5
 21
64.9019
  0
LINE
  8
0
 10
1.5
 20
64.9019
 11
1.14804
 21
64.7283
  0
LINE
  8
0
 10
1.14804
 20
64.7283
 11
0.776443
 21
64.6022
  0
LINE
  8
0
 10
0.776443
 20
64.6022
 11
0.391571
 21
64.5257
  0
LINE
  8
0
 10
0.391571
 20
64.5257
 11
0
 21
64.5
  0
LINE
  8
0
 10
0
 20
64.5
 11
-0.391571
 21
64.5257
  0
LINE
  8
0
 10
14.6084
 20
64.5257
 11
14.2235
 21
64.6022
  0
LINE
  8
0
 10
14.2235
 20
64.6022
 11
13.8519
 21
64.7283
  0
LINE
  8
0
 10
13.8519
 20
64.7283
 11
13.5
 21
64.9019
  0
LINE
  8
0
 10
13.5
 20
64.9019
 11
13.1737
 21
65.1199
  0
LINE
  8
0
 10
13.1737
 20
65.1199
 11
12.8787
 21
65.3787
  0
LINE
  8
0
 10
12.8787
 20
65.3787
 11
12.6199
 21
65.6737
  0
LINE
  8
0
 10
12.6199
 20
65.6737
 11
12.4019
 21
66
  0
LINE
  8
0
 10
12.4019
 20
66
 11
12.2283
 21
66.3519
  0
LINE
  8
0
 10
12.2283
 20
66.3519
 11
12.1022
 21
66.7235
  0
LINE
  8
0
 10
12.1022
 20
66.7235
 11
12.0257
 21
67.1084
  0
LINE
  8
0
 10
12.0257
 20
67.1084
 11
12
 21
67.5
  0
LINE
  8
0
 10
12
 20
67.5
 11
12.0257
 21
67.8916
  0
LINE
  8
0
 10
12.0257
 20
67.8916
 11
12.1022
 21
68.2764
  0
LINE
  8
0
 10
12.1022
 20
68.2764
 11
12.2283
 21
68.648
  0
LINE
  8
0
 10
12.2283
 20
68.648
 11
12.4019
 21
69
  0
LINE
  8
0
 10
12.4019
 20
69
 11
12.6199
 21
69.3263
  0
LINE
  8
0
 10
12.6199
 20
69.3263
 11
12.8787
 21
69.6213
  0
LINE
  8
0
 10
12.8787
 20
69.6213
 11
13.1737
 21
69.8801
  0
LINE
  8
0
 10
13.1737
 20
69.8801
 11
13.5
 21
70.0981
  0
LINE
  8
0
 10
13.5
 20
70.0981
 11
13.8519
 21
70.2716
  0
LINE
  8
0
 10
13.8519
 20
70.2716
 11
14.2235
 21
70.3978
  0
LINE
  8
0
 10
14.2235
 20
70.3978
 11
14.6084
 21
70.4743
  0
LINE
  8
0
 10
14.6084
 20
70.4743
 11
15
 21
70.5
  0
LINE
  8
0
 10
15
 20
70.5
 11
15.3916
 21
70.4743
  0
LINE
  8
0
 10
15.3916
 20
70.4743
 11
15.7764
 21
70.3978
  0
LINE
  8
0
 10
15.7764
 20
70.3978
 11
16.148
 21
70.2716
  0
LINE
  8
0
 10
16.148
 20
70.2716
 11
16.5
 21
70.0981
  0
LINE
  8
0
 10
16.5
 20
70.0981
 11
16.8263
 21
69.8801
  0
LINE
  8
0
 10
16.8263
 20
69.8801
 11
17.1213
 21
69.6213
  0
LINE
  8
0
 10
17.1213
 20
69.6213
 11
17.3801
 21
69.3263
  0
LINE
  8
0
 10
17.3801
 20
69.3263
 11
17.5981
 21
69
  0
LINE
  8
0
 10
17.5981
 20
69
 11
17.7716
 21
68.648
  0
LINE
  8
0
 10
17.7716
 20
68.648
 11
17.8978
 21
68.2764
  0
LINE
  8
0
 10
17.8978
 20
68.2764
 11
17.9743
 21
67.8916
  0
LINE
  8
0
 10
17.9743
 20
67.8916
 11
18
 21
67.5
  0
LINE
  8
0
 10
18
 20
67.5
 11
17.9743
 21
67.1084
  0
LINE
  8
0
 10
17.9743
 20
67.1084
 11
17.8978
 21
66.7235
  0
LINE
  8
0
 10
17.8978
 20
66.7235
 11
17.7716
 21
66.3519
  0
LINE
  8
0
 10
17.7716
 20
66.3519
 11
17.5981
 21
66
  0
LINE
  8
0
 10
17.5981
 20
66
 11
17.3801
 21
65.6737
  0
LINE
  8
0
 10
17.3801
 20
65.6737
 11
17.1213
 21
65.3787
  0
LINE
  8
0
 10
17.1213
 20
65.3787
 11
16.8263
 21
65.1199
  0
LINE
  8
0
 10
16.8263
 20
65.1199
 11
16.5
 21
64.9019
  0
LINE
  8
0
 10
16.5
 20
64.9019
 11
16.148
 21
64.7283
  0
LINE
  8
0
 10
16.148
 20
64.7283
 11
15.7764
 21
64.6022
  0
LINE
  8
0
 10
15.7764
 20
64.6022
 11
15.3916
 21
64.5257
  0
LINE
  8
0
 10
15.3916
 20
64.5257
 11
15
 21
64.5
  0
LINE
  8
0
 10
15
 20
64.5
 11
14.6084
 21
64.5257
  0
LINE
  8
0
 10
12.25
 20
50.9123
 11
12.25
 21
54.0877
  0
LINE
  8
0
 10
12.25
 20
54.0877
 11
15
 21
55.6754
  0
LINE
  8
0
 10
15
 20
55.6754
 11
17.75
 21
54.0877
  0
LINE
  8
0
 10
17.75
 20
54.0877
 11
17.75
 21
50.9123
  0
LINE
  8
0
 10
17.75
 20
50.9123
 11
15
 21
49.3246
  0
LINE
  8
0
 10
15
 20
49.3246
 11
12.25
 21
50.9123
  0
LINE
  8
0
 10
16.6576
 20
16.5378
 11
17.2991
 21
16.6654
  0
LINE
  8
0
 10
17.2991
 20
16.6654
 11
17.9184
 21
16.8756
  0
LINE
  8
0
 10
17.9184
 20
16.8756
 11
18.505
 21
17.1649
  0
LINE
  8
0
 10
18.505
 20
17.1649
 11
19.0488
 21
17.5282
  0
LINE
  8
0
 10
19.0488
 20
17.5282
 11
19.5405
 21
17.9595
  0
LINE
  8
0
 10
19.5405
 20
17.9595
 11
19.9718
 21
18.4512
  0
LINE
  8
0
 10
19.9718
 20
18.4512
 11
20.3351
 21
18.995
  0
LINE
  8
0
 10
20.3351
 20
18.995
 11
20.6244
 21
19.5816
  0
LINE
  8
0
 10
20.6244
 20
19.5816
 11
20.8346
 21
20.2009
  0
LINE
  8
0
 10
20.8346
 20
20.2009
 11
20.9622
 21
20.8424
  0
LINE
  8
0
 10
20.9622
 20
20.8424
 11
21.005
 21
21.495
  0
LINE
  8
0
 10
21.005
 20
21.495
 11
21.005
 21
38.505
  0
LINE
  8
0
 10
21.005
 20
38.505
 11
20.9622
 21
39.1576
  0
LINE
  8
0
 10
20.9622
 20
39.1576
 11
20.8346
 21
39.7991
  0
LINE
  8
0
 10
20.8346
 20
39.7991
 11
20.6244
 21
40.4184
  0
LINE
  8
0
 10
20.6244
 20
40.4184
 11
20.3351
 21
41.005
  0
LINE
  8
0
 10
20.3351
 20
41.005
 11
19.9718
 21
41.5488
  0
LINE
  8
0
 10
19.9718
 20
41.5488
 11
19.5405
 21
42.0405
  0
LINE
  8
0
 10
19.5405
 20
42.0405
 11
19.0488
 21
42.4718
  0
LINE
  8
0
 10
19.0488
 20
42.4718
 11
18.505
 21
42.8351
  0
LINE
  8
0
 10
18.505
 20
42.8351
 11
17.9184
 21
43.1244
  0
LINE
  8
0
 10
17.9184
 20
43.1244
 11
17.2991
 21
43.3346
  0
LINE
  8
0
 10
17.2991
 20
43.3346
 11
16.6576
 21
43.4622
  0
LINE
  8
0
 10
16.6576
 20
43.4622
 11
16.005
 21
43.505
  0
LINE
  8
0
 10
16.005
 20
43.505
 11
-16.005
 21
43.505
  0
LINE
  8
0
 10
-16.005
 20
43.505
 11
-16.6576
 21
43.4622
  0
LINE
  8
0
 10
-16.6576
 20
43.4622
 11
-17.2991
 21
43.3346
  0
LINE
  8
0
 10
-17.2991
 20
43.3346
 11
-17.9184
 21
43.1244
  0
LINE
  8
0
 10
-17.9184
 20
43.1244
 11
-18.505
 21
42.8351
  0
LINE
  8
0
 10
-18.505
 20
42.8351
 11
-19.0488
 21
42.4718
  0
LINE
  8
0
 10
-19.0488
 20
42.4718
 11
-19.5405
 21
42.0405
  0
LINE
  8
0
 10
-19.5405
 20
42.0405
 11
-19.9718
 21
41.5488
  0
LINE
  8
0
 10
-19.9718
 20
41.5488
 11
-20.3351
 21
41.005
  0
LINE
  8
0
 10
-20.3351
 20
41.005
 11
-20.6244
 21
40.4184
  0
LINE
  8
0
 10
-20.6244
 20
40.4184
 11
-20.8346
 21
39.7991
  0
LINE
  8
0
 10
-20.8346
 20
39.7991
 11
-20.9622
 21
39.1576
  0
LINE
  8
0
 10
-20.9622
 20
39.1576
 11
-21.005
 21
38.505
  0
LINE
  8
0
 10
-21.005
 20
38.505
 11
-21.005
 21
21.495
  0
LINE
  8
0
 10
-21.005
 20
21.495
 11
-20.9622
 21
20.8424
  0
LINE
  8
0
 10
-20.9622
 20
20.8424
 11
-20.8346
 21
20.2009
  0
LINE
  8
0
 10
-20.8346
 20
20.2009
 11
-20.6244
 21
19.5816
  0
LINE
  8
0
 10
-20.6244
 20
19.5816
 11
-20.3351
 21
18.995
  0
LINE
  8
0
 10
-20.3351
 20
18.995
 11
-19.9718
 21
18.4512
  0
LINE
  8
0
 10
-19.9718
 20
18.4512
 11
-19.5405
 21
17.9595
  0
LINE
  8
0
 10
-19.5405
 20
17.9595
 11
-19.0488
 21
17.5282
  0
LINE
  8
0
 10
-19.0488
 20
17.5282
 11
-18.505
 21
17.1649
  0
LINE
  8
0
 10
-18.505
 20
17.1649
 11
-17.9184
 21
16.8756
  0
LINE
  8
0
 10
-17.9184
 20
16.8756
 11
-17.2991
 21
16.6654
  0
LINE
  8
0
 10
-17.2991
 20
16.6654
 11
-16.6576
 21
16.5378
  0
LINE
  8
0
 10
-16.6576
 20
16.5378
 11
-16.005
 21
16.495
  0
LINE
  8
0
 10
-16.005
 20
16.495
 11
16.005
 21
16.495
  0
LINE
  8
0
 10
16.005
 20
16.495
 11
16.6576
 21
16.5378
  0
LINE
  8
0
 10
-17.75
 20
35.9123
 11
-17.75
 21
39.0877
  0
LINE
  8
0
 10
-17.75
 20
39.0877
 11
-15
 21
40.6754
  0
LINE
  8
0
 10
-15
 20
40.6754
 11
-12.25
 21
39.0877
  0
LINE
  8
0
 10
-12.25
 20
39.0877
 11
-12.25
 21
35.9123
  0
LINE
  8
0
 10
-12.25
 20
35.9123
 11
-15
 21
34.3246
  0
LINE
  8
0
 10
-15
 20
34.3246
 11
-17.75
 21
35.9123
  0
LINE
  8
0
 10
-0.391571
 20
34.5257
 11
-0.776443
 21
34.6022
  0
LINE
  8
0
 10
-0.776443
 20
34.6022
 11
-1.14804
 21
34.7283
  0
LINE
  8
0
 10
-1.14804
 20
34.7283
 11
-1.5
 21
34.9019
  0
LINE
  8
0
 10
-1.5
 20
34.9019
 11
-1.82628
 21
35.1199
  0
LINE
  8
0
 10
-1.82628
 20
35.1199
 11
-2.12131
 21
35.3787
  0
LINE
  8
0
 10
-2.12131
 20
35.3787
 11
-2.38005
 21
35.6737
  0
LINE
  8
0
 10
-2.38005
 20
35.6737
 11
-2.59807
 21
36
  0
LINE
  8
0
 10
-2.59807
 20
36
 11
-2.77164
 21
36.3519
  0
LINE
  8
0
 10
-2.77164
 20
36.3519
 11
-2.89777
 21
36.7235
  0
LINE
  8
0
 10
-2.89777
 20
36.7235
 11
-2.97432
 21
37.1084
  0
LINE
  8
0
 10
-2.97432
 20
37.1084
 11
-3
 21
37.5
  0
LINE
  8
0
 10
-3
 20
37.5
 11
-2.97432
 21
37.8916
  0
LINE
  8
0
 10
-2.97432
 20
37.8916
 11
-2.89777
 21
38.2764
  0
LINE
  8
0
 10
-2.89777
 20
38.2764
 11
-2.77164
 21
38.648
  0
LINE
  8
0
 10
-2.77164
 20
38.648
 11
-2.59807
 21
39
  0
LINE
  8
0
 10
-2.59807
 20
39
 11
-2.38005
 21
39.3263
  0
LINE
  8
0
 10
-2.38005
 20
39.3263
 11
-2.12131
 21
39.6213
  0
LINE
  8
0
 10
-2.12131
 20
39.6213
 11
-1.82628
 21
39.8801
  0
LINE
  8
0
 10
-1.82628
 20
39.8801
 11
-1.5
 21
40.0981
  0
LINE
  8
0
 10
-1.5
 20
40.0981
 11
-1.14804
 21
40.2716
  0
LINE
  8
0
 10
-1.14804
 20
40.2716
 11
-0.776443
 21
40.3978
  0
LINE
  8
0
 10
-0.776443
 20
40.3978
 11
-0.391571
 21
40.4743
  0
LINE
  8
0
 10
-0.391571
 20
40.4743
 11
0
 21
40.5
  0
LINE
  8
0
 10
0
 20
40.5
 11
0.391571
 21
40.4743
  0
LINE
  8
0
 10
0.391571
 20
40.4743
 11
0.776443
 21
40.3978
  0
LINE
  8
0
 10
0.776443
 20
40.3978
 11
1.14804
 21
40.2716
  0
LINE
  8
0
 10
1.14804
 20
40.2716
 11
1.5
 21
40.0981
  0
LINE
  8
0
 10
1.5
 20
40.0981
 11
1.82628
 21
39.8801
  0
LINE
  8
0
 10
1.82628
 20
39.8801
 11
2.12131
 21
39.6213
  0
LINE
  8
0
 10
2.12131
 20
39.6213
 11
2.38005
 21
39.3263
  0
LINE
  8
0
 10
2.38005
 20
39.3263
 11
2.59807
 21
39
  0
LINE
  8
0
 10
2.59807
 20
39
 11
2.77164
 21
38.648
  0
LINE
  8
0
 10
2.77164
 20
38.648
 11
2.89777
 21
38.2764
  0
LINE
  8
0
 10
2.89777
 20
38.2764
 11
2.97432
 21
37.8916
  0
LINE
  8
0
 10
2.97432
 20
37.8916
 11
3
 21
37.5
  0
LINE
  8
0
 10
3
 20
37.5
 11
2.97432
 21
37.1084
  0
LINE
  8
0
 10
2.97432
 20
37.1084
 11
2.89777
 21
36.7235
  0
LINE
  8
0
 10
2.89777
 20
36.7235
 11
2.77164
 21
36.3519
  0
LINE
  8
0
 10
2.77164
 20
36.3519
 11
2.59807
 21
36
  0
LINE
  8
0
 10
2.59807
 20
36
 11
2.38005
 21
35.6737
  0
LINE
  8
0
 10
2.38005
 20
35.6737
 11
2.12131
 21
35.3787
  0
LINE
  8
0
 10
2.12131
 20
35.3787
 11
1.82628
 21
35.1199
  0
LINE
  8
0
 10
1.82628
 20
35.1199
 11
1.5
 21
34.9019
  0
LINE
  8
0
 10
1.5
 20
34.9019
 11
1.14804
 21
34.7283
  0
LINE
  8
0
 10
1.14804
 20
34.7283
 11
0.776443
 21
34.6022
  0
LINE
  8
0
 10
0.776443
 20
34.6022
 11
0.391571
 21
34.5257
  0
LINE
  8
0
 10
0.391571
 20
34.5257
 11
0
 21
34.5
  0
LINE
  8
0
 10
0
 20
34.5
 11
-0.391571
 21
34.5257
  0
LINE
  8
0
 10
14.6084
 20
34.5257
 11
14.2235
 21
34.6022
  0
LINE
  8
0
 10
14.2235
 20
34.6022
 11
13.8519
 21
34.7283
  0
LINE
  8
0
 10
13.8519
 20
34.7283
 11
13.5
 21
34.9019
  0
LINE
  8
0
 10
13.5
 20
34.9019
 11
13.1737
 21
35.1199
  0
LINE
  8
0
 10
13.1737
 20
35.1199
 11
12.8787
 21
35.3787
  0
LINE
  8
0
 10
12.8787
 20
35.3787
 11
12.6199
 21
35.6737
  0
LINE
  8
0
 10
12.6199
 20
35.6737
 11
12.4019
 21
36
  0
LINE
  8
0
 10
12.4019
 20
36
 11
12.2283
 21
36.3519
  0
LINE
  8
0
 10
12.2283
 20
36.3519
 11
12.1022
 21
36.7235
  0
LINE
  8
0
 10
12.1022
 20
36.7235
 11
12.0257
 21
37.1084
  0
LINE
  8
0
 10
12.0257
 20
37.1084
 11
12
 21
37.5
  0
LINE
  8
0
 10
12
 20
37.5
 11
12.0257
 21
37.8916
  0
LINE
  8
0
 10
12.0257
 20
37.8916
 11
12.1022
 21
38.2764
  0
LINE
  8
0
 10
12.1022
 20
38.2764
 11
12.2283
 21
38.648
  0
LINE
  8
0
 10
12.2283
 20
38.648
 11
12.4019
 21
39
  0
LINE
  8
0
 10
12.4019
 20
39
 11
12.6199
 21
39.3263
  0
LINE
  8
0
 10
12.6199
 20
39.3263
 11
12.8787
 21
39.6213
  0
LINE
  8
0
 10
12.8787
 20
39.6213
 11
13.1737
 21
39.8801
  0
LINE
  8
0
 10
13.1737
 20
39.8801
 11
13.5
 21
40.0981
  0
LINE
  8
0
 10
13.5
 20
40.0981
 11
13.8519
 21
40.2716
  0
LINE
  8
0
 10
13.8519
 20
40.2716
 11
14.2235
 21
40.3978
  0
LINE
  8
0
 10
14.2235
 20
40.3978
 11
14.6084
 21
40.4743
  0
LINE
  8
0
 10
14.6084
 20
40.4743
 11
15
 21
40.5
  0
LINE
  8
0
 10
15
 20
40.5
 11
15.3916
 21
40.4743
  0
LINE
  8
0
 10
15.3916
 20
40.4743
 11
15.7764
 21
40.3978
  0
LINE
  8
0
 10
15.7764
 20
40.3978
 11
16.148
 21
40.2716
  0
LINE
  8
0
 10
16.148
 20
40.2716
 11
16.5
 21
40.0981
  0
LINE
  8
0
 10
16.5
 20
40.0981
 11
16.8263
 21
39.8801
  0
LINE
  8
0
 10
16.8263
 20
39.8801
 11
17.1213
 21
39.6213
  0
LINE
  8
0
 10
17.1213
 20
39.6213
 11
17.3801
 21
39.3263
  0
LINE
  8
0
 10
17.3801
 20
39.3263
 11
17.5981
 21
39
  0
LINE
  8
0
 10
17.5981
 20
39
 11
17.7716
 21
38.648
  0
LINE
  8
0
 10
17.7716
 20
38.648
 11
17.8978
 21
38.2764
  0
LINE
  8
0
 10
17.8978
 20
38.2764
 11
17.9743
 21
37.8916
  0
LINE
  8
0
 10
17.9743
 20
37.8916
 11
18
 21
37.5
  0
LINE
  8
0
 10
18
 20
37.5
 11
17.9743
 21
37.1084
  0
LINE
  8
0
 10
17.9743
 20
37.1084
 11
17.8978
 21
36.7235
  0
LINE
  8
0
 10
17.8978
 20
36.7235
 11
17.7716
 21
36.3519
  0
LINE
  8
0
 10
17.7716
 20
36.3519
 11
17.5981
 21
36
  0
LINE
  8
0
 10
17.5981
 20
36
 11
17.3801
 21
35.6737
  0
LINE
  8
0
 10
17.3801
 20
35.6737
 11
17.1213
 21
35.3787
  0
LINE
  8
0
 10
17.1213
 20
35.3787
 11
16.8263
 21
35.1199
  0
LINE
  8
0
 10
16.8263
 20
35.1199
 11
16.5
 21
34.9019
  0
LINE
  8
0
 10
16.5
 20
34.9019
 11
16.148
 21
34.7283
  0
LINE
  8
0
 10
16.148
 20
34.7283
 11
15.7764
 21
34.6022
  0
LINE
  8
0
 10
15.7764
 20
34.6022
 11
15.3916
 21
34.5257
  0
LINE
  8
0
 10
15.3916
 20
34.5257
 11
15
 21
34.5
  0
LINE
  8
0
 10
15
 20
34.5
 11
14.6084
 21
34.5257
  0
LINE
  8
0
 10
-8.00499
 20
19.495
 11
-8.65762
 21
19.5378
  0
LINE
  8
0
 10
-8.65762
 20
19.5378
 11
-9.29909
 21
19.6654
  0
LINE
  8
0
 10
-9.29909
 20
19.6654
 11
-9.91841
 21
19.8756
  0
LINE
  8
0
 10
-9.91841
 20
19.8756
 11
-10.505
 21
20.1649
  0
LINE
  8
0
 10
-10.505
 20
20.1649
 11
-11.0488
 21
20.5282
  0
LINE
  8
0
 10
-11.0488
 20
20.5282
 11
-11.5405
 21
20.9595
  0
LINE
  8
0
 10
-11.5405
 20
20.9595
 11
-11.9718
 21
21.4512
  0
LINE
  8
0
 10
-11.9718
 20
21.4512
 11
-12.3351
 21
21.995
  0
LINE
  8
0
 10
-12.3351
 20
21.995
 11
-12.6244
 21
22.5816
  0
LINE
  8
0
 10
-12.6244
 20
22.5816
 11
-12.8346
 21
23.2009
  0
LINE
  8
0
 10
-12.8346
 20
23.2009
 11
-12.9622
 21
23.8424
  0
LINE
  8
0
 10
-12.9622
 20
23.8424
 11
-13.005
 21
24.495
  0
LINE
  8
0
 10
-13.005
 20
24.495
 11
-13.005
 21
27.505
  0
LINE
  8
0
 10
-13.005
 20
27.505
 11
-12.9622
 21
28.1576
  0
LINE
  8
0
 10
-12.9622
 20
28.1576
 11
-12.8346
 21
28.7991
  0
LINE
  8
0
 10
-12.8346
 20
28.7991
 11
-12.6244
 21
29.4184
  0
LINE
  8
0
 10
-12.6244
 20
29.4184
 11
-12.3351
 21
30.005
  0
LINE
  8
0
 10
-12.3351
 20
30.005
 11
-11.9718
 21
30.5488
  0
LINE
  8
0
 10
-11.9718
 20
30.5488
 11
-11.5405
 21
31.0405
  0
LINE
  8
0
 10
-11.5405
 20
31.0405
 11
-11.0488
 21
31.4718
  0
LINE
  8
0
 10
-11.0488
 20
31.4718
 11
-10.505
 21
31.8351
  0
LINE
  8
0
 10
-10.505
 20
31.8351
 11
-9.91841
 21
32.1244
  0
LINE
  8
0
 10
-9.91841
 20
32.1244
 11
-9.29909
 21
32.3346
  0
LINE
  8
0
 10
-9.29909
 20
32.3346
 11
-8.65762
 21
32.4622
  0
LINE
  8
0
 10
-8.65762
 20
32.4622
 11
-8.00499
 21
32.505
  0
LINE
  8
0
 10
-8.00499
 20
32.505
 11
6.00499
 21
32.505
  0
LINE
  8
0
 10
6.00499
 20
32.505
 11
6.65762
 21
32.4622
  0
LINE
  8
0
 10
6.65762
 20
32.4622
 11
7.29909
 21
32.3346
  0
LINE
  8
0
 10
7.29909
 20
32.3346
 11
7.91841
 21
32.1244
  0
LINE
  8
0
 10
7.91841
 20
32.1244
 11
8.50499
 21
31.8351
  0
LINE
  8
0
 10
8.50499
 20
31.8351
 11
9.0488
 21
31.4718
  0
LINE
  8
0
 10
9.0488
 20
31.4718
 11
9.54053
 21
31.0405
  0
LINE
  8
0
 10
9.54053
 20
31.0405
 11
9.97176
 21
30.5488
  0
LINE
  8
0
 10
9.97176
 20
30.5488
 11
10.3351
 21
30.005
  0
LINE
  8
0
 10
10.3351
 20
30.005
 11
10.6244
 21
29.4184
  0
LINE
  8
0
 10
10.6244
 20
29.4184
 11
10.8346
 21
28.7991
  0
LINE
  8
0
 10
10.8346
 20
28.7991
 11
10.9622
 21
28.1576
  0
LINE
  8
0
 10
10.9622
 20
28.1576
 11
11.005
 21
27.505
  0
LINE
  8
0
 10
11.005
 20
27.505
 11
11.005
 21
24.495
  0
LINE
  8
0
 10
11.005
 20
24.495
 11
10.9622
 21
23.8424
  0
LINE
  8
0
 10
10.9622
 20
23.8424
 11
10.8346
 21
23.2009
  0
LINE
  8
0
 10
10.8346
 20
23.2009
 11
10.6244
 21
22.5816
  0
LINE
  8
0
 10
10.6244
 20
22.5816
 11
10.3351
 21
21.995
  0
LINE
  8
0
 10
10.3351
 20
21.995
 11
9.97176
 21
21.4512
  0
LINE
  8
0
 10
9.97176
 20
21.4512
 11
9.54053
 21
20.9595
  0
LINE
  8
0
 10
9.54053
 20
20.9595
 11
9.0488
 21
20.5282
  0
LINE
  8
0
 10
9.0488
 20
20.5282
 11
8.50499
 21
20.1649
  0
LINE
  8
0
 10
8.50499
 20
20.1649
 11
7.91841
 21
19.8756
  0
LINE
  8
0
 10
7.91841
 20
19.8756
 11
7.29909
 21
19.6654
  0
LINE
  8
0
 10
7.29909
 20
19.6654
 11
6.65762
 21
19.5378
  0
LINE
  8
0
 10
6.65762
 20
19.5378
 11
6.00499
 21
19.495
  0
LINE
  8
0
 10
6.00499
 20
19.495
 11
-8.00499
 21
19.495
  0
LINE
  8
0
 10
12.25
 20
20.9123
 11
12.25
 21
24.0877
  0
LINE
  8
0
 10
12.25
 20
24.0877
 11
15
 21
25.6754
  0
LINE
  8
0
 10
15
 20
25.6754
 11
17.75
 21
24.0877
  0
LINE
  8
0
 10
17.75
 20
24.0877
 11
17.75
 21
20.9123
  0
LINE
  8
0
 10
17.75
 20
20.9123
 11
15
 21
19.3246
  0
LINE
  8
0
 10
15
 20
19.3246
 11
12.25
 21
20.9123
  0
LINE
  8
0
 10
16.6576
 20
-13.4622
 11
17.2991
 21
-13.3346
  0
LINE
  8
0
 10
17.2991
 20
-13.3346
 11
17.9184
 21
-13.1244
  0
LINE
  8
0
 10
17.9184
 20
-13.1244
 11
18.505
 21
-12.8351
  0
LINE
  8
0
 10
18.505
 20
-12.8351
 11
19.0488
 21
-12.4718
  0
LINE
  8
0
 10
19.0488
 20
-12.4718
 11
19.5405
 21
-12.0405
  0
LINE
  8
0
 10
19.5405
 20
-12.0405
 11
19.9718
 21
-11.5488
  0
LINE
  8
0
 10
19.9718
 20
-11.5488
 11
20.3351
 21
-11.005
  0
LINE
  8
0
 10
20.3351
 20
-11.005
 11
20.6244
 21
-10.4184
  0
LINE
  8
0
 10
20.6244
 20
-10.4184
 11
20.8346
 21
-9.79909
  0
LINE
  8
0
 10
20.8346
 20
-9.79909
 11
20.9622
 21
-9.15762
  0
LINE
  8
0
 10
20.9622
 20
-9.15762
 11
21.005
 21
-8.50499
  0
LINE
  8
0
 10
21.005
 20
-8.50499
 11
21.005
 21
8.50499
  0
LINE
  8
0
 10
21.005
 20
8.50499
 11
20.9622
 21
9.15762
  0
LINE
  8
0
 10
20.9622
 20
9.15762
 11
20.8346
 21
9.79909
  0
LINE
  8
0
 10
20.8346
 20
9.79909
 11
20.6244
 21
10.4184
  0
LINE
  8
0
 10
20.6244
 20
10.4184
 11
20.3351
 21
11.005
  0
LINE
  8
0
 10
20.3351
 20
11.005
 11
19.9718
 21
11.5488
  0
LINE
  8
0
 10
19.9718
 20
11.5488
 11
19.5405
 21
12.0405
  0
LINE
  8
0
 10
19.5405
 20
12.0405
 11
19.0488
 21
12.4718
  0
LINE
  8
0
 10
19.0488
 20
12.4718
 11
18.505
 21
12.8351
  0
LINE
  8
0
 10
18.505
 20
12.8351
 11
17.9184
 21
13.1244
  0
LINE
  8
0
 10
17.9184
 20
13.1244
 11
17.2991
 21
13.3346
  0
LINE
  8
0
 10
17.2991
 20
13.3346
 11
16.6576
 21
13.4622
  0
LINE
  8
0
 10
16.6576
 20
13.4622
 11
16.005
 21
13.505
  0
LINE
  8
0
 10
16.005
 20
13.505
 11
-16.005
 21
13.505
  0
LINE
  8
0
 10
-16.005
 20
13.505
 11
-16.6576
 21
13.4622
  0
LINE
  8
0
 10
-16.6576
 20
13.4622
 11
-17.2991
 21
13.3346
  0
LINE
  8
0
 10
-17.2991
 20
13.3346
 11
-17.9184
 21
13.1244
  0
LINE
  8
0
 10
-17.9184
 20
13.1244
 11
-18.505
 21
12.8351
  0
LINE
  8
0
 10
-18.505
 20
12.8351
 11
-19.0488
 21
12.4718
  0
LINE
  8
0
 10
-19.0488
 20
12.4718
 11
-19.5405
 21
12.0405
  0
LINE
  8
0
 10
-19.5405
 20
12.0405
 11
-19.9718
 21
11.5488
  0
LINE
  8
0
 10
-19.9718
 20
11.5488
 11
-20.3351
 21
11.005
  0
LINE
  8
0
 10
-20.3351
 20
11.005
 11
-20.6244
 21
10.4184
  0
LINE
  8
0
 10
-20.6244
 20
10.4184
 11
-20.8346
 21
9.79909
  0
LINE
  8
0
 10
-20.8346
 20
9.79909
 11
-20.9622
 21
9.15762
  0
LINE
  8
0
 10
-20.9622
 20
9.15762
 11
-21.005
 21
8.50499
  0
LINE
  8
0
 10
-21.005
 20
8.50499
 11
-21.005
 21
-8.50499
  0
LINE
  8
0
 10
-21.005
 20
-8.50499
 11
-20.9622
 21
-9.15762
  0
LINE
  8
0
 10
-20.9622
 20
-9.15762
 11
-20.8346
 21
-9.79909
  0
LINE
  8
0
 10
-20.8346
 20
-9.79909
 11
-20.6244
 21
-10.4184
  0
LINE
  8
0
 10
-20.6244
 20
-10.4184
 11
-20.3351
 21
-11.005
  0
LINE
  8
0
 10
-20.3351
 20
-11.005
 11
-19.9718
 21
-11.5488
  0
LINE
  8
0
 10
-19.9718
 20
-11.5488
 11
-19.5405
 21
-12.0405
  0
LINE
  8
0
 10
-19.5405
 20
-12.0405
 11
-19.0488
 21
-12.4718
  0
LINE
  8
0
 10
-19.0488
 20
-12.4718
 11
-18.505
 21
-12.8351
  0
LINE
  8
0
 10
-18.505
 20
-12.8351
 11
-17.9184
 21
-13.1244
  0
LINE
  8
0
 10
-17.9184
 20
-13.1244
 11
-17.2991
 21
-13.3346
  0
LINE
  8
0
 10
-17.2991
 20
-13.3346
 11
-16.6576
 21
-13.4622
  0
LINE
  8
0
 10
-16.6576
 20
-13.4622
 11
-16.005
 21
-13.505
  0
LINE
  8
0
 10
-16.005
 20
-13.505
 11
16.005
 21
-13.505
  0
LINE
  8
0
 10
16.005
 20
-13.505
 11
16.6576
 21
-13.4622
  0
LINE
  8
0
 10
14.6084
 20
4.52567
 11
14.2235
 21
4.60222
  0
LINE
  8
0
 10
14.2235
 20
4.60222
 11
13.8519
 21
4.72835
  0
LINE
  8
0
 10
13.8519
 20
4.72835
 11
13.5
 21
4.90192
  0
LINE
  8
0
 10
13.5
 20
4.90192
 11
13.1737
 21
5.11993
  0
LINE
  8
0
 10
13.1737
 20
5.11993
 11
12.8787
 21
5.37868
  0
LINE
  8
0
 10
12.8787
 20
5.37868
 11
12.6199
 21
5.67371
  0
LINE
  8
0
 10
12.6199
 20
5.67371
 11
12.4019
 21
6
  0
LINE
  8
0
 10
12.4019
 20
6
 11
12.2283
 21
6.35194
  0
LINE
  8
0
 10
12.2283
 20
6.35194
 11
12.1022
 21
6.72354
  0
LINE
  8
0
 10
12.1022
 20
6.72354
 11
12.0257
 21
7.10841
  0
LINE
  8
0
 10
12.0257
 20
7.10841
 11
12
 21
7.5
  0
LINE
  8
0
 10
12
 20
7.5
 11
12.0257
 21
7.89157
  0
LINE
  8
0
 10
12.0257
 20
7.89157
 11
12.1022
 21
8.27644
  0
LINE
  8
0
 10
12.1022
 20
8.27644
 11
12.2283
 21
8.64804
  0
LINE
  8
0
 10
12.2283
 20
8.64804
 11
12.4019
 21
9
  0
LINE
  8
0
 10
12.4019
 20
9
 11
12.6199
 21
9.32628
  0
LINE
  8
0
 10
12.6199
 20
9.32628
 11
12.8787
 21
9.62131
  0
LINE
  8
0
 10
12.8787
 20
9.62131
 11
13.1737
 21
9.88005
  0
LINE
  8
0
 10
13.1737
 20
9.88005
 11
13.5
 21
10.0981
  0
LINE
  8
0
 10
13.5
 20
10.0981
 11
13.8519
 21
10.2716
  0
LINE
  8
0
 10
13.8519
 20
10.2716
 11
14.2235
 21
10.3978
  0
LINE
  8
0
 10
14.2235
 20
10.3978
 11
14.6084
 21
10.4743
  0
LINE
  8
0
 10
14.6084
 20
10.4743
 11
15
 21
10.5
  0
LINE
  8
0
 10
15
 20
10.5
 11
15.3916
 21
10.4743
  0
LINE
  8
0
 10
15.3916
 20
10.4743
 11
15.7764
 21
10.3978
  0
LINE
  8
0
 10
15.7764
 20
10.3978
 11
16.148
 21
10.2716
  0
LINE
  8
0
 10
16.148
 20
10.2716
 11
16.5
 21
10.0981
  0
LINE
  8
0
 10
16.5
 20
10.0981
 11
16.8263
 21
9.88005
  0
LINE
  8
0
 10
16.8263
 20
9.88005
 11
17.1213
 21
9.62131
  0
LINE
  8
0
 10
17.1213
 20
9.62131
 11
17.3801
 21
9.32628
  0
LINE
  8
0
 10
17.3801
 20
9.32628
 11
17.5981
 21
9
  0
LINE
  8
0
 10
17.5981
 20
9
 11
17.7716
 21
8.64804
  0
LINE
  8
0
 10
17.7716
 20
8.64804
 11
17.8978
 21
8.27644
  0
LINE
  8
0
 10
17.8978
 20
8.27644
 11
17.9743
 21
7.89157
  0
LINE
  8
0
 10
17.9743
 20
7.89157
 11
18
 21
7.5
  0
LINE
  8
0
 10
18
 20
7.5
 11
17.9743
 21
7.10841
  0
LINE
  8
0
 10
17.9743
 20
7.10841
 11
17.8978
 21
6.72354
  0
LINE
  8
0
 10
17.8978
 20
6.72354
 11
17.7716
 21
6.35194
  0
LINE
  8
0
 10
17.7716
 20
6.35194
 11
17.5981
 21
6
  0
LINE
  8
0
 10
17.5981
 20
6
 11
17.3801
 21
5.67371
  0
LINE
  8
0
 10
17.3801
 20
5.67371
 11
17.1213
 21
5.37868
  0
LINE
  8
0
 10
17.1213
 20
5.37868
 11
16.8263
 21
5.11993
  0
LINE
  8
0
 10
16.8263
 20
5.11993
 11
16.5
 21
4.90192
  0
LINE
  8
0
 10
16.5
 20
4.90192
 11
16.148
 21
4.72835
  0
LINE
  8
0
 10
16.148
 20
4.72835
 11
15.7764
 21
4.60222
  0
LINE
  8
0
 10
15.7764
 20
4.60222
 11
15.3916
 21
4.52567
  0
LINE
  8
0
 10
15.3916
 20
4.52567
 11
15
 21
4.5
  0
LINE
  8
0
 10
15
 20
4.5
 11
14.6084
 21
4.52567
  0
LINE
  8
0
 10
-0.391571
 20
4.52567
 11
-0.776443
 21
4.60222
  0
LINE
  8
0
 10
-0.776443
 20
4.60222
 11
-1.14804
 21
4.72835
  0
LINE
  8
0
 10
-1.14804
 20
4.72835
 11
-1.5
 21
4.90192
  0
LINE
  8
0
 10
-1.5
 20
4.90192
 11
-1.82628
 21
5.11993
  0
LINE
  8
0
 10
-1.82628
 20
5.11993
 11
-2.12131
 21
5.37868
  0
LINE
  8
0
 10
-2.12131
 20
5.37868
 11
-2.38005
 21
5.67371
  0
LINE
  8
0
 10
-2.38005
 20
5.67371
 11
-2.59807
 21
6
  0
LINE
  8
0
 10
-2.59807
 20
6
 11
-2.77164
 21
6.35194
  0
LINE
  8
0
 10
-2.77164
 20
6.35194
 11
-2.89777
 21
6.72354
  0
LINE
  8
0
 10
-2.89777
 20
6.72354
 11
-2.97432
 21
7.10841
  0
LINE
  8
0
 10
-2.97432
 20
7.10841
 11
-3
 21
7.5
  0
LINE
  8
0
 10
-3
 20
7.5
 11
-2.97432
 21
7.89157
  0
LINE
  8
0
 10
-2.97432
 20
7.89157
 11
-2.89777
 21
8.27644
  0
LINE
  8
0
 10
-2.89777
 20
8.27644
 11
-2.77164
 21
8.64804
  0
LINE
  8
0
 10
-2.77164
 20
8.64804
 11
-2.59807
 21
9
  0
LINE
  8
0
 10
-2.59807
 20
9
 11
-2.38005
 21
9.32628
  0
LINE
  8
0
 10
-2.38005
 20
9.32628
 11
-2.12131
 21
9.62131
  0
LINE
  8
0
 10
-2.12131
 20
9.62131
 11
-1.82628
 21
9.88005
  0
LINE
  8
0
 10
-1.82628
 20
9.88005
 11
-1.5
 21
10.0981
  0
LINE
  8
0
 10
-1.5
 20
10.0981
 11
-1.14804
 21
10.2716
  0
LINE
  8
0
 10
-1.14804
 20
10.2716
 11
-0.776443
 21
10.3978
  0
LINE
  8
0
 10
-0.776443
 20
10.3978
 11
-0.391571
 21
10.4743
  0
LINE
  8
0
 10
-0.391571
 20
10.4743
 11
0
 21
10.5
  0
LINE
  8
0
 10
0
 20
10.5
 11
0.391571
 21
10.4743
  0
LINE
  8
0
 10
0.391571
 20
10.4743
 11
0.776443
 21
10.3978
  0
LINE
  8
0
 10
0.776443
 20
10.3978
 11
1.14804
 21
10.2716
  0
LINE
  8
0
 10
1.14804
 20
10.2716
 11
1.5
 21
10.0981
  0
LINE
  8
0
 10
1.5
 20
10.0981
 11
1.82628
 21
9.88005
  0
LINE
  8
0
 10
1.82628
 20
9.88005
 11
2.12131
 21
9.62131
  0
LINE
  8
0
 10
2.12131
 20
9.62131
 11
2.38005
 21
9.32628
  0
LINE
  8
0
 10
2.38005
 20
9.32628
 11
2.59807
 21
9
  0
LINE
  8
0
 10
2.59807
 20
9
 11
2.77164
 21
8.64804
  0
LINE
  8
0
 10
2.77164
 20
8.64804
 11
2.89777
 21
8.27644
  0
LINE
  8
0
 10
2.89777
 20
8.27644
 11
2.97432
 21
7.89157
  0
LINE
  8
0
 10
2.97432
 20
7.89157
 11
3
 21
7.5
  0
LINE
  8
0
 10
3
 20
7.5
 11
2.97432
 21
7.10841
  0
LINE
  8
0
 10
2.97432
 20
7.10841
 11
2.89777
 21
6.72354
  0
LINE
  8
0
 10
2.89777
 20
6.72354
 11
2.77164
 21
6.35194
  0
LINE
  8
0
 10
2.77164
 20
6.35194
 11
2.59807
 21
6
  0
LINE
  8
0
 10
2.59807
 20
6
 11
2.38005
 21
5.67371
  0
LINE
  8
0
 10
2.38005
 20
5.67371
 11
2.12131
 21
5.37868
  0
LINE
  8
0
 10
2.12131
 20
5.37868
 11
1.82628
 21
5.11993
  0
LINE
  8
0
 10
1.82628
 20
5.11993
 11
1.5
 21
4.90192
  0
LINE
  8
0
 10
1.5
 20
4.90192
 11
1.14804
 21
4.72835
  0
LINE
  8
0
 10
1.14804
 20
4.72835
 11
0.776443
 21
4.60222
  0
LINE
  8
0
 10
0.776443
 20
4.60222
 11
0.391571
 21
4.52567
  0
LINE
  8
0
 10
0.391571
 20
4.52567
 11
0
 21
4.5
  0
LINE
  8
0
 10
0
 20
4.5
 11
-0.391571
 21
4.52567
  0
LINE
  8
0
 10
-15.1958
 20
6.01283
 11
-15.3882
 21
6.0511
  0
LINE
  8
0
 10
-15.3882
 20
6.0511
 11
-15.574
 21
6.11417
  0
LINE
  8
0
 10
-15.574
 20
6.11417
 11
-15.75
 21
6.20096
  0
LINE
  8
0
 10
-15.75
 20
6.20096
 11
-15.9131
 21
6.30997
  0
LINE
  8
0
 10
-15.9131
 20
6.30997
 11
-16.0607
 21
6.43933
  0
LINE
  8
0
 10
-16.0607
 20
6.43933
 11
-16.19
 21
6.58685
  0
LINE
  8
0
 10
-16.19
 20
6.58685
 11
-16.299
 21
6.75
  0
LINE
  8
0
 10
-16.299
 20
6.75
 11
-16.3858
 21
6.92596
  0
LINE
  8
0
 10
-16.3858
 20
6.92596
 11
-16.4489
 21
7.11177
  0
LINE
  8
0
 10
-16.4489
 20
7.11177
 11
-16.4872
 21
7.3042
  0
LINE
  8
0
 10
-16.4872
 20
7.3042
 11
-16.5
 21
7.5
  0
LINE
  8
0
 10
-16.5
 20
7.5
 11
-16.4872
 21
7.69579
  0
LINE
  8
0
 10
-16.4872
 20
7.69579
 11
-16.4489
 21
7.88821
  0
LINE
  8
0
 10
-16.4489
 20
7.88821
 11
-16.3858
 21
8.07402
  0
LINE
  8
0
 10
-16.3858
 20
8.07402
 11
-16.299
 21
8.25
  0
LINE
  8
0
 10
-16.299
 20
8.25
 11
-16.19
 21
8.41313
  0
LINE
  8
0
 10
-16.19
 20
8.41313
 11
-16.0607
 21
8.56065
  0
LINE
  8
0
 10
-16.0607
 20
8.56065
 11
-15.9131
 21
8.69002
  0
LINE
  8
0
 10
-15.9131
 20
8.69002
 11
-15.75
 21
8.79903
  0
LINE
  8
0
 10
-15.75
 20
8.79903
 11
-15.574
 21
8.88582
  0
LINE
  8
0
 10
-15.574
 20
8.88582
 11
-15.3882
 21
8.94888
  0
LINE
  8
0
 10
-15.3882
 20
8.94888
 11
-15.1958
 21
8.98715
  0
LINE
  8
0
 10
-15.1958
 20
8.98715
 11
-15
 21
9
  0
LINE
  8
0
 10
-15
 20
9
 11
-14.8042
 21
8.98715
  0
LINE
  8
0
 10
-14.8042
 20
8.98715
 11
-14.6118
 21
8.94888
  0
LINE
  8
0
 10
-14.6118
 20
8.94888
 11
-14.426
 21
8.88582
  0
LINE
  8
0
 10
-14.426
 20
8.88582
 11
-14.25
 21
8.79903
  0
LINE
  8
0
 10
-14.25
 20
8.79903
 11
-14.0869
 21
8.69002
  0
LINE
  8
0
 10
-14.0869
 20
8.69002
 11
-13.9393
 21
8.56065
  0
LINE
  8
0
 10
-13.9393
 20
8.56065
 11
-13.81
 21
8.41313
  0
LINE
  8
0
 10
-13.81
 20
8.41313
 11
-13.701
 21
8.25
  0
LINE
  8
0
 10
-13.701
 20
8.25
 11
-13.6142
 21
8.07402
  0
LINE
  8
0
 10
-13.6142
 20
8.07402
 11
-13.5511
 21
7.88821
  0
LINE
  8
0
 10
-13.5511
 20
7.88821
 11
-13.5128
 21
7.69579
  0
LINE
  8
0
 10
-13.5128
 20
7.69579
 11
-13.5
 21
7.5
  0
LINE
  8
0
 10
-13.5
 20
7.5
 11
-13.5128
 21
7.3042
  0
LINE
  8
0
 10
-13.5128
 20
7.3042
 11
-13.5511
 21
7.11177
  0
LINE
  8
0
 10
-13.5511
 20
7.11177
 11
-13.6142
 21
6.92596
  0
LINE
  8
0
 10
-13.6142
 20
6.92596
 11
-13.701
 21
6.75
  0
LINE
  8
0
 10
-13.701
 20
6.75
 11
-13.81
 21
6.58685
  0
LINE
  8
0
 10
-13.81
 20
6.58685
 11
-13.9393
 21
6.43933
  0
LINE
  8
0
 10
-13.9393
 20
6.43933
 11
-14.0869
 21
6.30997
  0
LINE
  8
0
 10
-14.0869
 20
6.30997
 11
-14.25
 21
6.20096
  0
LINE
  8
0
 10
-14.25
 20
6.20096
 11
-14.426
 21
6.11417
  0
LINE
  8
0
 10
-14.426
 20
6.11417
 11
-14.6118
 21
6.0511
  0
LINE
  8
0
 10
-14.6118
 20
6.0511
 11
-14.8042
 21
6.01283
  0
LINE
  8
0
 10
-14.8042
 20
6.01283
 11
-15
 21
6
  0
LINE
  8
0
 10
-15
 20
6
 11
-15.1958
 21
6.01283
  0
LINE
  8
0
 10
-10.6
 20
-1.78999
 11
-10.6
 21
-0.589996
  0
LINE
  8
0
 10
-10.6
 20
-0.589996
 11
-9.39999
 21
-0.589996
  0
LINE
  8
0
 10
-9.39999
 20
-0.589996
 11
-9.39999
 21
-1.78999
  0
LINE
  8
0
 10
-9.39999
 20
-1.78999
 11
-10.6
 21
-1.78999
  0
LINE
  8
0
 10
0.0494843
 20
-4.10197
 11
0.898026
 21
-3.25343
  0
LINE
  8
0
 10
0.898026
 20
-3.25343
 11
1.74655
 21
-4.10196
  0
LINE
  8
0
 10
1.74655
 20
-4.10196
 11
0.89801
 21
-4.9505
  0
LINE
  8
0
 10
0.89801
 20
-4.9505
 11
0.0494843
 21
-4.10197
  0
LINE
  8
0
 10
-1.74655
 20
-5.89803
 11
-0.89801
 21
-5.04948
  0
LINE
  8
0
 10
-0.89801
 20
-5.04948
 11
-0.0494843
 21
-5.89801
  0
LINE
  8
0
 10
-0.0494843
 20
-5.89801
 11
-0.898026
 21
-6.74655
  0
LINE
  8
0
 10
-0.898026
 20
-6.74655
 11
-1.74655
 21
-5.89803
  0
LINE
  8
0
 10
14.8042
 20
-8.98715
 11
14.6118
 21
-8.94888
  0
LINE
  8
0
 10
14.6118
 20
-8.94888
 11
14.426
 21
-8.88582
  0
LINE
  8
0
 10
14.426
 20
-8.88582
 11
14.25
 21
-8.79903
  0
LINE
  8
0
 10
14.25
 20
-8.79903
 11
14.0869
 21
-8.69002
  0
LINE
  8
0
 10
14.0869
 20
-8.69002
 11
13.9393
 21
-8.56065
  0
LINE
  8
0
 10
13.9393
 20
-8.56065
 11
13.81
 21
-8.41313
  0
LINE
  8
0
 10
13.81
 20
-8.41313
 11
13.701
 21
-8.25
  0
LINE
  8
0
 10
13.701
 20
-8.25
 11
13.6142
 21
-8.07402
  0
LINE
  8
0
 10
13.6142
 20
-8.07402
 11
13.5511
 21
-7.88821
  0
LINE
  8
0
 10
13.5511
 20
-7.88821
 11
13.5128
 21
-7.69579
  0
LINE
  8
0
 10
13.5128
 20
-7.69579
 11
13.5
 21
-7.5
  0
LINE
  8
0
 10
13.5
 20
-7.5
 11
13.5128
 21
-7.3042
  0
LINE
  8
0
 10
13.5128
 20
-7.3042
 11
13.5511
 21
-7.11177
  0
LINE
  8
0
 10
13.5511
 20
-7.11177
 11
13.6142
 21
-6.92596
  0
LINE
  8
0
 10
13.6142
 20
-6.92596
 11
13.701
 21
-6.75
  0
LINE
  8
0
 10
13.701
 20
-6.75
 11
13.81
 21
-6.58685
  0
LINE
  8
0
 10
13.81
 20
-6.58685
 11
13.9393
 21
-6.43933
  0
LINE
  8
0
 10
13.9393
 20
-6.43933
 11
14.0869
 21
-6.30997
  0
LINE
  8
0
 10
14.0869
 20
-6.30997
 11
14.25
 21
-6.20096
  0
LINE
  8
0
 10
14.25
 20
-6.20096
 11
14.426
 21
-6.11417
  0
LINE
  8
0
 10
14.426
 20
-6.11417
 11
14.6118
 21
-6.0511
  0
LINE
  8
0
 10
14.6118
 20
-6.0511
 11
14.8042
 21
-6.01283
  0
LINE
  8
0
 10
14.8042
 20
-6.01283
 11
15
 21
-6
  0
LINE
  8
0
 10
15
 20
-6
 11
15.1958
 21
-6.01283
  0
LINE
  8
0
 10
15.1958
 20
-6.01283
 11
15.3882
 21
-6.0511
  0
LINE
  8
0
 10
15.3882
 20
-6.0511
 11
15.574
 21
-6.11417
  0
LINE
  8
0
 10
15.574
 20
-6.11417
 11
15.75
 21
-6.20096
  0
LINE
  8
0
 10
15.75
 20
-6.20096
 11
15.9131
 21
-6.30997
  0
LINE
  8
0
 10
15.9131
 20
-6.30997
 11
16.0607
 21
-6.43933
  0
LINE
  8
0
 10
16.0607
 20
-6.43933
 11
16.19
 21
-6.58685
  0
LINE
  8
0
 10
16.19
 20
-6.58685
 11
16.299
 21
-6.75
  0
LINE
  8
0
 10
16.299
 20
-6.75
 11
16.3858
 21
-6.92596
  0
LINE
  8
0
 10
16.3858
 20
-6.92596
 11
16.4489
 21
-7.11177
  0
LINE
  8
0
 10
16.4489
 20
-7.11177
 11
16.4872
 21
-7.3042
  0
LINE
  8
0
 10
16.4872
 20
-7.3042
 11
16.5
 21
-7.5
  0
LINE
  8
0
 10
16.5
 20
-7.5
 11
16.4872
 21
-7.69579
  0
LINE
  8
0
 10
16.4872
 20
-7.69579
 11
16.4489
 21
-7.88821
  0
LINE
  8
0
 10
16.4489
 20
-7.88821
 11
16.3858
 21
-8.07402
  0
LINE
  8
0
 10
16.3858
 20
-8.07402
 11
16.299
 21
-8.25
  0
LINE
  8
0
 10
16.299
 20
-8.25
 11
16.19
 21
-8.41313
  0
LINE
  8
0
 10
16.19
 20
-8.41313
 11
16.0607
 21
-8.56065
  0
LINE
  8
0
 10
16.0607
 20
-8.56065
 11
15.9131
 21
-8.69002
  0
LINE
  8
0
 10
15.9131
 20
-8.69002
 11
15.75
 21
-8.79903
  0
LINE
  8
0
 10
15.75
 20
-8.79903
 11
15.574
 21
-8.88582
  0
LINE
  8
0
 10
15.574
 20
-8.88582
 11
15.3882
 21
-8.94888
  0
LINE
  8
0
 10
15.3882
 20
-8.94888
 11
15.1958
 21
-8.98715
  0
LINE
  8
0
 10
15.1958
 20
-8.98715
 11
15
 21
-9
  0
LINE
  8
0
 10
15
 20
-9
 11
14.8042
 21
-8.98715
  0
LINE
  8
0
 10
-10.6
 20
-9.40999
 11
-10.6
 21
-8.20999
  0
LINE
  8
0
 10
-10.6
 20
-8.20999
 11
-9.39999
 21
-8.20999
  0
LINE
  8
0
 10
-9.39999
 20
-8.20999
 11
-9.39999
 21
-9.40999
  0
LINE
  8
0
 10
-9.39999
 20
-9.40999
 11
-10.6
 21
-9.40999
  0
ENDSEC
  0
SECTION
  2
OBJECTS
  0
DICTIONARY
  0
ENDSEC
  0
EOF
